<?xml version="1.0" encoding="UTF-8" standalone="no"?>
<!-- Created with Inkscape (http://www.inkscape.org/) -->

<svg
   version="1.1"
   id="svg1110"
   xml:space="preserve"
   width="32"
   height="32"
   viewBox="0 0 32 32"
   xmlns="http://www.w3.org/2000/svg"
   xmlns:svg="http://www.w3.org/2000/svg"><defs
     id="defs1114"><clipPath
       clipPathUnits="userSpaceOnUse"
       id="clipPath1124"><path
         d="M 0,24 H 24 V 0 H 0 Z"
         id="path1122" /></clipPath></defs><g
     id="g1116"
     transform="matrix(1.3333333,0,0,-1.3333333,0,32)"><g
       id="g1118"><g
         id="g1120"
         clip-path="url(#clipPath1124)"><g
           id="g1126"
           transform="translate(1.5,3.5)"><path
             d="m 0,0 c 0,-0.939 1.162,-2 2.625,-2 1.28,0 2.33,0.73 2.572,1.553"
             style="fill:none;stroke:#000000;stroke-width:3;stroke-linecap:round;stroke-linejoin:round;stroke-miterlimit:10;stroke-dasharray:none;stroke-opacity:1"
             id="path1128" /></g><g
           id="g1130"
           transform="translate(17.3496,2.9238)"><path
             d="m 0,0 c 0.312,-0.761 1.315,-1.424 2.525,-1.424 1.463,0 2.625,1.046 2.625,2"
             style="fill:none;stroke:#000000;stroke-width:3;stroke-linecap:round;stroke-linejoin:round;stroke-miterlimit:10;stroke-dasharray:none;stroke-opacity:1"
             id="path1132" /></g><g
           id="g1134"
           transform="translate(19.1953,11.5)"><path
             d="m 0,0 -6.592,1.902 c -0.391,0.13 -0.815,0.13 -1.207,0 l -6.57,-1.755 c -0.905,-0.302 -1.437,-1.227 -1.277,-2.168 0.458,-2.677 1.895,-4.69 2.678,-5.548 0.283,-0.31 0.473,-0.682 0.647,-1.064 C -11.984,-9.369 -11,-10 -9.82,-10 c 1.463,0 2.625,0.954 2.625,1.909 0,-0.939 1.162,-1.909 2.625,-1.909 1.183,0 2.17,0.624 2.504,1.368 0.17,0.382 0.36,0.754 0.643,1.063 0.783,0.858 2.243,2.723 2.699,5.4 C 1.437,-1.228 0.905,-0.302 0,0 Z"
             style="fill:none;stroke:#000000;stroke-width:3;stroke-linecap:round;stroke-linejoin:round;stroke-miterlimit:10;stroke-dasharray:none;stroke-opacity:1"
             id="path1136" /></g><g
           id="g1138"
           transform="translate(12,3.4092)"><path
             d="M 0,0 V 9.239"
             style="fill:none;stroke:#000000;stroke-width:3;stroke-linecap:round;stroke-linejoin:round;stroke-miterlimit:10;stroke-dasharray:none;stroke-opacity:1"
             id="path1140" /></g><g
           id="g1142"
           transform="translate(5.5,12)"><path
             d="m 0,0 v 3.5 c 0,1.657 1.343,3 3,3 h 7 c 1.657,0 3,-1.343 3,-3 V 0"
             style="fill:none;stroke:#000000;stroke-width:3;stroke-linecap:round;stroke-linejoin:round;stroke-miterlimit:10;stroke-dasharray:none;stroke-opacity:1"
             id="path1144" /></g><g
           id="g1146"
           transform="translate(9,19)"><path
             d="M 0,0 V 2 C 0,3.657 1.343,5 3,5 4.657,5 6,3.657 6,2 V 0"
             style="fill:#000000;fill-opacity:1;fill-rule:nonzero;stroke:none"
             id="path1148" /></g></g></g></g></svg>
