<?xml version="1.0" encoding="UTF-8" standalone="no"?>
<!-- Created with Inkscape (http://www.inkscape.org/) -->

<svg
   width="211.96666mm"
   height="71.737503mm"
   viewBox="0 0 211.96666 71.737503"
   version="1.1"
   id="svg1"
   inkscape:version="1.4 (86a8ad7, 2024-10-11)"
   sodipodi:docname="Fondo firma.svg"
   xml:space="preserve"
   xmlns:inkscape="http://www.inkscape.org/namespaces/inkscape"
   xmlns:sodipodi="http://sodipodi.sourceforge.net/DTD/sodipodi-0.dtd"
   xmlns:xlink="http://www.w3.org/1999/xlink"
   xmlns="http://www.w3.org/2000/svg"
   xmlns:svg="http://www.w3.org/2000/svg"><sodipodi:namedview
     id="namedview1"
     pagecolor="#ffffff"
     bordercolor="#000000"
     borderopacity="0.25"
     inkscape:showpageshadow="2"
     inkscape:pageopacity="0.0"
     inkscape:pagecheckerboard="0"
     inkscape:deskcolor="#d1d1d1"
     inkscape:document-units="mm"
     inkscape:zoom="0.18952224"
     inkscape:cx="131.91064"
     inkscape:cy="-63.317107"
     inkscape:window-width="1500"
     inkscape:window-height="930"
     inkscape:window-x="-6"
     inkscape:window-y="-6"
     inkscape:window-maximized="1"
     inkscape:current-layer="layer1"
     inkscape:pageshadow="2"
     showgrid="false"
     inkscape:snap-bbox="true"
     inkscape:bbox-nodes="true"
     inkscape:object-paths="true"
     inkscape:snap-page="true" /><defs
     id="defs1"><linearGradient
       inkscape:collect="always"
       id="linearGradient22397"><stop
         style="stop-color:#5a73c4;stop-opacity:1"
         offset="0"
         id="stop22393" /><stop
         style="stop-color:#5a73c4;stop-opacity:0"
         offset="1"
         id="stop22395" /></linearGradient><linearGradient
       id="linearGradient5148"
       inkscape:collect="always"><stop
         style="stop-color:#5a73c4;stop-opacity:1"
         offset="0.3716211"
         id="stop5144" /><stop
         style="stop-color:#5a73c4;stop-opacity:0.18763798"
         offset="1"
         id="stop5146" /></linearGradient><linearGradient
       id="linearGradient2"
       inkscape:collect="always"><stop
         style="stop-color:#5a73c4;stop-opacity:1;"
         offset="0.3716211"
         id="stop2" /><stop
         style="stop-color:#5a73c4;stop-opacity:0;"
         offset="1"
         id="stop3" /></linearGradient><clipPath
       clipPathUnits="userSpaceOnUse"
       id="clipPath2"><rect
         style="fill:none;fill-opacity:1;stroke:#ff0000;stroke-width:0.3;stroke-dasharray:none;stroke-opacity:1;paint-order:stroke markers fill"
         id="rect2"
         width="211.66666"
         height="71.4375"
         x="1070.9265"
         y="125.95971" /></clipPath><inkscape:path-effect
       effect="fillet_chamfer"
       id="path-effect1-6-4"
       is_visible="true"
       lpeversion="1"
       nodesatellites_param="F,0,0,1,0,0,0,1 @ F,0,0,1,0,0,0,1 @ F,0,0,1,0,0,0,1 @ F,0,0,1,0,0,0,1 @ F,0,0,1,0,0,0,1 @ F,0,0,1,0,0,0,1 @ F,0,0,1,0,0,0,1 @ F,0,0,1,0,0,0,1 @ F,0,0,1,0,0,0,1 @ F,0,0,1,0,0,0,1 @ F,0,0,1,0,0,0,1 @ F,0,0,1,0,0,0,1 @ F,0,0,1,0,0,0,1 @ F,0,0,1,0,0,0,1 @ F,0,0,1,0,0,0,1 @ F,0,1,1,0,0.41599999,0,1 @ F,0,1,1,0,0.41599999,0,1 @ F,0,0,1,0,0,0,1 @ F,0,0,1,0,0,0,1 @ F,0,0,1,0,0,0,1 @ F,0,0,1,0,0,0,1 @ F,0,0,1,0,0,0,1 @ F,0,0,1,0,0,0,1"
       radius="0.416"
       unit="mm"
       method="auto"
       mode="F"
       chamfer_steps="1"
       flexible="false"
       use_knot_distance="true"
       apply_no_radius="true"
       apply_with_radius="true"
       only_selected="true"
       hide_knots="false" /><inkscape:path-effect
       effect="fillet_chamfer"
       id="path-effect2-0-9"
       is_visible="true"
       lpeversion="1"
       nodesatellites_param="F,0,0,1,0,0,0,1 @ F,0,0,1,0,0,0,1 @ F,0,0,1,0,0,0,1 @ F,0,0,1,0,0,0,1 @ F,0,0,1,0,0,0,1 @ F,0,0,1,0,0,0,1 @ F,0,0,1,0,0,0,1 @ F,0,0,1,0,0,0,1 @ F,0,0,1,0,0,0,1 @ F,0,0,1,0,0,0,1 @ F,0,0,1,0,0,0,1 @ F,0,0,1,0,0,0,1 @ F,0,0,1,0,0,0,1 @ F,0,0,1,0,0,0,1 @ F,0,0,1,0,0,0,1 @ F,0,1,1,0,0.41599999,0,1 @ F,0,1,1,0,0.41599999,0,1 @ F,0,0,1,0,0,0,1 @ F,0,0,1,0,0,0,1 @ F,0,0,1,0,0,0,1 @ F,0,0,1,0,0,0,1 @ F,0,0,1,0,0,0,1 @ F,0,0,1,0,0,0,1"
       radius="0.416"
       unit="mm"
       method="auto"
       mode="F"
       chamfer_steps="1"
       flexible="false"
       use_knot_distance="true"
       apply_no_radius="true"
       apply_with_radius="true"
       only_selected="true"
       hide_knots="false" /><clipPath
       clipPathUnits="userSpaceOnUse"
       id="clipPath1964"><rect
         style="fill:none;fill-opacity:1;stroke:#ff0000;stroke-width:0.2;stroke-linecap:square;stroke-opacity:1;paint-order:stroke markers fill"
         id="rect1966"
         width="248.65199"
         height="84.036751"
         x="701.45801"
         y="123.94984" /></clipPath><clipPath
       clipPathUnits="userSpaceOnUse"
       id="clipPath1964-1"><rect
         style="fill:none;fill-opacity:1;stroke:#ff0000;stroke-width:0.2;stroke-linecap:square;stroke-opacity:1;paint-order:stroke markers fill"
         id="rect1966-5"
         width="248.65199"
         height="84.036751"
         x="701.45801"
         y="123.94984" /></clipPath><clipPath
       clipPathUnits="userSpaceOnUse"
       id="clipPath2-5"><rect
         style="fill:none;fill-opacity:1;stroke:#ff0000;stroke-width:0.3;stroke-dasharray:none;stroke-opacity:1;paint-order:stroke markers fill"
         id="rect2-4"
         width="211.66666"
         height="71.4375"
         x="1070.9265"
         y="125.95971" /></clipPath><clipPath
       clipPathUnits="userSpaceOnUse"
       id="clipPath1964-6"><rect
         style="fill:none;fill-opacity:1;stroke:#ff0000;stroke-width:0.2;stroke-linecap:square;stroke-opacity:1;paint-order:stroke markers fill"
         id="rect1966-1"
         width="248.65199"
         height="84.036751"
         x="701.45801"
         y="123.94984" /></clipPath><radialGradient
       inkscape:collect="always"
       xlink:href="#linearGradient2"
       id="radialGradient4-0"
       cx="1282.5931"
       cy="55.845123"
       fx="1282.5931"
       fy="55.845123"
       r="105.83333"
       gradientTransform="matrix(-1.5265837,0,4.007807e-7,-0.5303859,3240.5788,155.57918)"
       gradientUnits="userSpaceOnUse" /><clipPath
       clipPathUnits="userSpaceOnUse"
       id="clipPath2-0"><rect
         style="fill:none;fill-opacity:1;stroke:#ff0000;stroke-width:0.3;stroke-dasharray:none;stroke-opacity:1;paint-order:stroke markers fill"
         id="rect2-1"
         width="211.66666"
         height="71.4375"
         x="1070.9265"
         y="125.95971" /></clipPath><clipPath
       clipPathUnits="userSpaceOnUse"
       id="clipPath2-1"><rect
         style="fill:none;fill-opacity:1;stroke:#ff0000;stroke-width:0.3;stroke-dasharray:none;stroke-opacity:1;paint-order:stroke markers fill"
         id="rect2-7"
         width="211.66666"
         height="71.4375"
         x="1070.9265"
         y="125.95971" /></clipPath><clipPath
       clipPathUnits="userSpaceOnUse"
       id="clipPath7796"><rect
         style="fill:none;fill-opacity:1;stroke:#ff0000;stroke-width:0.2;stroke-linecap:square;stroke-miterlimit:4;stroke-dasharray:none;stroke-opacity:1;paint-order:stroke markers fill"
         id="rect7798"
         width="211.81657"
         height="71.587509"
         x="1953.7346"
         y="-155.56186" /></clipPath><clipPath
       clipPathUnits="userSpaceOnUse"
       id="clipPath1964-6-3"><rect
         style="fill:none;fill-opacity:1;stroke:#ff0000;stroke-width:0.2;stroke-linecap:square;stroke-opacity:1;paint-order:stroke markers fill"
         id="rect1966-1-2"
         width="248.65199"
         height="84.036751"
         x="701.45801"
         y="123.94984" /></clipPath><radialGradient
       inkscape:collect="always"
       xlink:href="#linearGradient5148"
       id="radialGradient7947"
       gradientUnits="userSpaceOnUse"
       gradientTransform="matrix(-1,0,0,-0.46362715,1900.22,143.25631)"
       cx="950.10999"
       cy="41.642231"
       fx="950.10999"
       fy="41.642231"
       r="124.326" /><radialGradient
       inkscape:collect="always"
       xlink:href="#linearGradient5148"
       id="radialGradient7955"
       gradientUnits="userSpaceOnUse"
       gradientTransform="matrix(-1,0,0,-0.46362715,1900.22,143.25631)"
       cx="950.10999"
       cy="41.642231"
       fx="950.10999"
       fy="41.642231"
       r="124.326" /><radialGradient
       inkscape:collect="always"
       xlink:href="#linearGradient5148"
       id="radialGradient7963"
       gradientUnits="userSpaceOnUse"
       gradientTransform="matrix(-1,0,0,-0.46362715,1900.22,143.25631)"
       cx="950.10999"
       cy="41.642231"
       fx="950.10999"
       fy="41.642231"
       r="124.326" /><radialGradient
       inkscape:collect="always"
       xlink:href="#linearGradient5148"
       id="radialGradient7971"
       gradientUnits="userSpaceOnUse"
       gradientTransform="matrix(-1,0,0,-0.46362715,1900.22,143.25631)"
       cx="950.10999"
       cy="41.642231"
       fx="950.10999"
       fy="41.642231"
       r="124.326" /><radialGradient
       inkscape:collect="always"
       xlink:href="#linearGradient5148"
       id="radialGradient7979"
       gradientUnits="userSpaceOnUse"
       gradientTransform="matrix(-1,0,0,-0.46362715,1900.22,143.25631)"
       cx="950.10999"
       cy="41.642231"
       fx="950.10999"
       fy="41.642231"
       r="124.326" /><radialGradient
       inkscape:collect="always"
       xlink:href="#linearGradient5148"
       id="radialGradient7987"
       gradientUnits="userSpaceOnUse"
       gradientTransform="matrix(-1,0,0,-0.46362715,1900.22,143.25631)"
       cx="950.10999"
       cy="41.642231"
       fx="950.10999"
       fy="41.642231"
       r="124.326" /><radialGradient
       inkscape:collect="always"
       xlink:href="#linearGradient5148"
       id="radialGradient7995"
       gradientUnits="userSpaceOnUse"
       gradientTransform="matrix(-1,0,0,-0.46362715,1900.22,143.25631)"
       cx="950.10999"
       cy="41.642231"
       fx="950.10999"
       fy="41.642231"
       r="124.326" /><radialGradient
       inkscape:collect="always"
       xlink:href="#linearGradient5148"
       id="radialGradient8003"
       gradientUnits="userSpaceOnUse"
       gradientTransform="matrix(-1,0,0,-0.46362715,1900.22,143.25631)"
       cx="950.10999"
       cy="41.642231"
       fx="950.10999"
       fy="41.642231"
       r="124.326" /><radialGradient
       inkscape:collect="always"
       xlink:href="#linearGradient5148"
       id="radialGradient8011"
       gradientUnits="userSpaceOnUse"
       gradientTransform="matrix(-1,0,0,-0.46362715,1900.22,143.25631)"
       cx="950.10999"
       cy="41.642231"
       fx="950.10999"
       fy="41.642231"
       r="124.326" /><radialGradient
       inkscape:collect="always"
       xlink:href="#linearGradient5148"
       id="radialGradient8019"
       gradientUnits="userSpaceOnUse"
       gradientTransform="matrix(-1,0,0,-0.46362715,1900.22,143.25631)"
       cx="950.10999"
       cy="41.642231"
       fx="950.10999"
       fy="41.642231"
       r="124.326" /><radialGradient
       inkscape:collect="always"
       xlink:href="#linearGradient5148"
       id="radialGradient8027"
       gradientUnits="userSpaceOnUse"
       gradientTransform="matrix(-1,0,0,-0.46362715,1900.22,143.25631)"
       cx="950.10999"
       cy="41.642231"
       fx="950.10999"
       fy="41.642231"
       r="124.326" /><radialGradient
       inkscape:collect="always"
       xlink:href="#linearGradient5148"
       id="radialGradient8035"
       gradientUnits="userSpaceOnUse"
       gradientTransform="matrix(-1,0,0,-0.46362715,1900.22,143.25631)"
       cx="950.10999"
       cy="41.642231"
       fx="950.10999"
       fy="41.642231"
       r="124.326" /><radialGradient
       inkscape:collect="always"
       xlink:href="#linearGradient5148"
       id="radialGradient8043"
       gradientUnits="userSpaceOnUse"
       gradientTransform="matrix(-1,0,0,-0.46362715,1900.22,143.25631)"
       cx="950.10999"
       cy="41.642231"
       fx="950.10999"
       fy="41.642231"
       r="124.326" /><radialGradient
       inkscape:collect="always"
       xlink:href="#linearGradient5148"
       id="radialGradient8051"
       gradientUnits="userSpaceOnUse"
       gradientTransform="matrix(-1,0,0,-0.46362715,1900.22,143.25631)"
       cx="950.10999"
       cy="41.642231"
       fx="950.10999"
       fy="41.642231"
       r="124.326" /><radialGradient
       inkscape:collect="always"
       xlink:href="#linearGradient5148"
       id="radialGradient8059"
       gradientUnits="userSpaceOnUse"
       gradientTransform="matrix(-1,0,0,-0.46362715,1900.22,143.25631)"
       cx="950.10999"
       cy="41.642231"
       fx="950.10999"
       fy="41.642231"
       r="124.326" /><radialGradient
       inkscape:collect="always"
       xlink:href="#linearGradient5148"
       id="radialGradient8067"
       gradientUnits="userSpaceOnUse"
       gradientTransform="matrix(-1,0,0,-0.46362715,1900.22,143.25631)"
       cx="950.10999"
       cy="41.642231"
       fx="950.10999"
       fy="41.642231"
       r="124.326" /><radialGradient
       inkscape:collect="always"
       xlink:href="#linearGradient5148"
       id="radialGradient8075"
       gradientUnits="userSpaceOnUse"
       gradientTransform="matrix(-1,0,0,-0.46362715,1900.22,143.25631)"
       cx="950.10999"
       cy="41.642231"
       fx="950.10999"
       fy="41.642231"
       r="124.326" /><radialGradient
       inkscape:collect="always"
       xlink:href="#linearGradient5148"
       id="radialGradient8083"
       gradientUnits="userSpaceOnUse"
       gradientTransform="matrix(-1,0,0,-0.46362715,1900.22,143.25631)"
       cx="950.10999"
       cy="41.642231"
       fx="950.10999"
       fy="41.642231"
       r="124.326" /><radialGradient
       inkscape:collect="always"
       xlink:href="#linearGradient5148"
       id="radialGradient8091"
       gradientUnits="userSpaceOnUse"
       gradientTransform="matrix(-1,0,0,-0.46362715,1900.22,143.25631)"
       cx="950.10999"
       cy="41.642231"
       fx="950.10999"
       fy="41.642231"
       r="124.326" /><radialGradient
       inkscape:collect="always"
       xlink:href="#linearGradient5148"
       id="radialGradient8099"
       gradientUnits="userSpaceOnUse"
       gradientTransform="matrix(-1,0,0,-0.46362715,1900.22,143.25631)"
       cx="950.10999"
       cy="41.642231"
       fx="950.10999"
       fy="41.642231"
       r="124.326" /><radialGradient
       inkscape:collect="always"
       xlink:href="#linearGradient5148"
       id="radialGradient8107"
       gradientUnits="userSpaceOnUse"
       gradientTransform="matrix(-1,0,0,-0.46362715,1900.22,143.25631)"
       cx="950.10999"
       cy="41.642231"
       fx="950.10999"
       fy="41.642231"
       r="124.326" /><radialGradient
       inkscape:collect="always"
       xlink:href="#linearGradient5148"
       id="radialGradient8115"
       gradientUnits="userSpaceOnUse"
       gradientTransform="matrix(-1,0,0,-0.46362715,1900.22,143.25631)"
       cx="950.10999"
       cy="41.642231"
       fx="950.10999"
       fy="41.642231"
       r="124.326" /><radialGradient
       inkscape:collect="always"
       xlink:href="#linearGradient5148"
       id="radialGradient8123"
       gradientUnits="userSpaceOnUse"
       gradientTransform="matrix(-1,0,0,-0.46362715,1900.22,143.25631)"
       cx="950.10999"
       cy="41.642231"
       fx="950.10999"
       fy="41.642231"
       r="124.326" /><radialGradient
       inkscape:collect="always"
       xlink:href="#linearGradient5148"
       id="radialGradient8131"
       gradientUnits="userSpaceOnUse"
       gradientTransform="matrix(-1,0,0,-0.46362715,1900.22,143.25631)"
       cx="950.10999"
       cy="41.642231"
       fx="950.10999"
       fy="41.642231"
       r="124.326" /><radialGradient
       inkscape:collect="always"
       xlink:href="#linearGradient5148"
       id="radialGradient8139"
       gradientUnits="userSpaceOnUse"
       gradientTransform="matrix(-1,0,0,-0.46362715,1900.22,143.25631)"
       cx="950.10999"
       cy="41.642231"
       fx="950.10999"
       fy="41.642231"
       r="124.326" /><radialGradient
       inkscape:collect="always"
       xlink:href="#linearGradient5148"
       id="radialGradient8147"
       gradientUnits="userSpaceOnUse"
       gradientTransform="matrix(-1,0,0,-0.46362715,1900.22,143.25631)"
       cx="950.10999"
       cy="41.642231"
       fx="950.10999"
       fy="41.642231"
       r="124.326" /><radialGradient
       inkscape:collect="always"
       xlink:href="#linearGradient5148"
       id="radialGradient8155"
       gradientUnits="userSpaceOnUse"
       gradientTransform="matrix(-1,0,0,-0.46362715,1900.22,143.25631)"
       cx="950.10999"
       cy="41.642231"
       fx="950.10999"
       fy="41.642231"
       r="124.326" /><radialGradient
       inkscape:collect="always"
       xlink:href="#linearGradient5148"
       id="radialGradient8163"
       gradientUnits="userSpaceOnUse"
       gradientTransform="matrix(-1,0,0,-0.46362715,1900.22,143.25631)"
       cx="950.10999"
       cy="41.642231"
       fx="950.10999"
       fy="41.642231"
       r="124.326" /><radialGradient
       inkscape:collect="always"
       xlink:href="#linearGradient5148"
       id="radialGradient8171"
       gradientUnits="userSpaceOnUse"
       gradientTransform="matrix(-1,0,0,-0.46362715,1900.22,143.25631)"
       cx="950.10999"
       cy="41.642231"
       fx="950.10999"
       fy="41.642231"
       r="124.326" /><radialGradient
       inkscape:collect="always"
       xlink:href="#linearGradient5148"
       id="radialGradient8179"
       gradientUnits="userSpaceOnUse"
       gradientTransform="matrix(-1,0,0,-0.46362715,1900.22,143.25631)"
       cx="950.10999"
       cy="41.642231"
       fx="950.10999"
       fy="41.642231"
       r="124.326" /><radialGradient
       inkscape:collect="always"
       xlink:href="#linearGradient5148"
       id="radialGradient8187"
       gradientUnits="userSpaceOnUse"
       gradientTransform="matrix(-1,0,0,-0.46362715,1900.22,143.25631)"
       cx="950.10999"
       cy="41.642231"
       fx="950.10999"
       fy="41.642231"
       r="124.326" /><radialGradient
       inkscape:collect="always"
       xlink:href="#linearGradient5148"
       id="radialGradient8195"
       gradientUnits="userSpaceOnUse"
       gradientTransform="matrix(-1,0,0,-0.46362715,1900.22,143.25631)"
       cx="950.10999"
       cy="41.642231"
       fx="950.10999"
       fy="41.642231"
       r="124.326" /><radialGradient
       inkscape:collect="always"
       xlink:href="#linearGradient5148"
       id="radialGradient8203"
       gradientUnits="userSpaceOnUse"
       gradientTransform="matrix(-1,0,0,-0.46362715,1900.22,143.25631)"
       cx="950.10999"
       cy="41.642231"
       fx="950.10999"
       fy="41.642231"
       r="124.326" /><radialGradient
       inkscape:collect="always"
       xlink:href="#linearGradient5148"
       id="radialGradient8211"
       gradientUnits="userSpaceOnUse"
       gradientTransform="matrix(-1,0,0,-0.46362715,1900.22,143.25631)"
       cx="950.10999"
       cy="41.642231"
       fx="950.10999"
       fy="41.642231"
       r="124.326" /><radialGradient
       inkscape:collect="always"
       xlink:href="#linearGradient5148"
       id="radialGradient8219"
       gradientUnits="userSpaceOnUse"
       gradientTransform="matrix(-1,0,0,-0.46362715,1900.22,143.25631)"
       cx="950.10999"
       cy="41.642231"
       fx="950.10999"
       fy="41.642231"
       r="124.326" /><radialGradient
       inkscape:collect="always"
       xlink:href="#linearGradient5148"
       id="radialGradient8227"
       gradientUnits="userSpaceOnUse"
       gradientTransform="matrix(-1,0,0,-0.46362715,1900.22,143.25631)"
       cx="950.10999"
       cy="41.642231"
       fx="950.10999"
       fy="41.642231"
       r="124.326" /><radialGradient
       inkscape:collect="always"
       xlink:href="#linearGradient5148"
       id="radialGradient8235"
       gradientUnits="userSpaceOnUse"
       gradientTransform="matrix(-1,0,0,-0.46362715,1900.22,143.25631)"
       cx="950.10999"
       cy="41.642231"
       fx="950.10999"
       fy="41.642231"
       r="124.326" /><radialGradient
       inkscape:collect="always"
       xlink:href="#linearGradient5148"
       id="radialGradient8243"
       gradientUnits="userSpaceOnUse"
       gradientTransform="matrix(-1,0,0,-0.46362715,1900.22,143.25631)"
       cx="950.10999"
       cy="41.642231"
       fx="950.10999"
       fy="41.642231"
       r="124.326" /><clipPath
       clipPathUnits="userSpaceOnUse"
       id="clipPath13604"><rect
         style="fill:none;fill-opacity:1;stroke:#ff0000;stroke-width:0.2;stroke-linecap:square;stroke-miterlimit:4;stroke-dasharray:none;stroke-opacity:1;paint-order:stroke markers fill"
         id="rect13606"
         width="211.81657"
         height="71.587509"
         x="3194.8301"
         y="-235.70001" /></clipPath><clipPath
       clipPathUnits="userSpaceOnUse"
       id="clipPath7796-0"><rect
         style="fill:none;fill-opacity:1;stroke:#ff0000;stroke-width:0.2;stroke-linecap:square;stroke-miterlimit:4;stroke-dasharray:none;stroke-opacity:1;paint-order:stroke markers fill"
         id="rect7798-7"
         width="211.81657"
         height="71.587509"
         x="1953.7346"
         y="-155.56186" /></clipPath><clipPath
       clipPathUnits="userSpaceOnUse"
       id="clipPath18171"><rect
         style="fill:none;fill-opacity:1;stroke:#ff0000;stroke-width:0.2;stroke-linecap:square;stroke-miterlimit:4;stroke-dasharray:none;stroke-opacity:1;paint-order:stroke markers fill"
         id="rect18173"
         width="211.81657"
         height="71.587509"
         x="2932.3196"
         y="-247.0365" /></clipPath><clipPath
       clipPathUnits="userSpaceOnUse"
       id="clipPath13604-3"><rect
         style="fill:none;fill-opacity:1;stroke:#ff0000;stroke-width:0.2;stroke-linecap:square;stroke-miterlimit:4;stroke-dasharray:none;stroke-opacity:1;paint-order:stroke markers fill"
         id="rect13606-0"
         width="211.81657"
         height="71.587509"
         x="3194.8301"
         y="-235.70001" /></clipPath><clipPath
       clipPathUnits="userSpaceOnUse"
       id="clipPath13604-2"><rect
         style="fill:none;fill-opacity:1;stroke:#ff0000;stroke-width:0.2;stroke-linecap:square;stroke-miterlimit:4;stroke-dasharray:none;stroke-opacity:1;paint-order:stroke markers fill"
         id="rect13606-6"
         width="211.81657"
         height="71.587509"
         x="3194.8301"
         y="-235.70001" /></clipPath><clipPath
       clipPathUnits="userSpaceOnUse"
       id="clipPath18171-0"><rect
         style="fill:none;fill-opacity:1;stroke:#ff0000;stroke-width:0.2;stroke-linecap:square;stroke-miterlimit:4;stroke-dasharray:none;stroke-opacity:1;paint-order:stroke markers fill"
         id="rect18173-5"
         width="211.81657"
         height="71.587509"
         x="2932.3196"
         y="-247.0365" /></clipPath><radialGradient
       inkscape:collect="always"
       xlink:href="#linearGradient22397"
       id="radialGradient22399-9"
       cx="3144.1362"
       cy="-317.15103"
       fx="3144.1362"
       fy="-317.15103"
       r="105.90829"
       gradientTransform="matrix(-1.2330214,-4.3640046e-6,1.6409051e-6,-0.46362716,7020.9242,-394.06261)"
       gradientUnits="userSpaceOnUse" /><clipPath
       clipPathUnits="userSpaceOnUse"
       id="clipPath18171-0-8"><rect
         style="fill:none;fill-opacity:1;stroke:#ff0000;stroke-width:0.2;stroke-linecap:square;stroke-miterlimit:4;stroke-dasharray:none;stroke-opacity:1;paint-order:stroke markers fill"
         id="rect18173-5-1"
         width="211.81657"
         height="71.587509"
         x="2932.3196"
         y="-247.0365" /></clipPath></defs><g
     inkscape:label="Capa 1"
     inkscape:groupmode="layer"
     id="layer1"
     transform="translate(-60.462255,-66.956415)"><rect
       style="fill:none;fill-opacity:1;stroke:#ff0000;stroke-width:0.2;stroke-linecap:square;stroke-opacity:1;paint-order:stroke markers fill;stroke-miterlimit:4;stroke-dasharray:none"
       id="rect4-17"
       width="211.81657"
       height="71.587509"
       x="1862.7332"
       y="-658.86182" /><path
       id="text1-5-5-1-7"
       style="font-style:normal;font-variant:normal;font-weight:600;font-stretch:normal;font-size:132.292px;line-height:1.1;font-family:Inter;-inkscape-font-specification:'Inter Semi-Bold';text-align:start;letter-spacing:0px;writing-mode:lr-tb;direction:ltr;text-anchor:start;fill:none;fill-opacity:1;stroke:url(#radialGradient4-0);stroke-width:0.3;stroke-dasharray:none;paint-order:stroke markers fill"
       d="m 1105.0922,102.82517 c -3.8326,0 -7.2562,0.92587 -10.2707,2.77761 -3.0144,1.85174 -5.3829,4.65087 -7.1055,8.39742 -1.6735,3.69032 -2.4264,8.3439 -2.2613,13.95832 h -0.029 c 0.086,3.74655 -0.6245,6.54568 -2.1317,8.39742 -1.5072,1.80868 -3.4451,2.71302 -5.8136,2.71302 -1.6795,0 -3.1652,-0.40911 -4.4571,-1.22732 -1.2919,-0.86128 -2.9283,-2.15318 -4.9092,-3.87573 -3.4451,-3.01447 -6.5027,-5.16764 -9.1726,-6.45956 -2.67,-1.29191 -5.5337,-1.93786 -8.5912,-1.93786 -3.8327,0 -7.2562,0.92586 -10.2707,2.77761 -3.0145,1.85174 -5.383,4.65087 -7.1055,8.39742 -1.6795,3.70348 -2.4331,8.37587 -2.2609,14.01723 h 13.3067 c -0.086,-3.96187 0.6244,-6.80406 2.1317,-8.52661 1.5503,-1.72255 3.4881,-2.58382 5.8136,-2.58382 1.6364,0 3.0575,0.38757 4.2633,1.16272 1.2488,0.77514 2.9283,2.06705 5.0384,3.87573 3.359,2.9714 6.3734,5.12457 9.0434,6.45955 2.713,1.29191 5.6629,1.93787 8.8496,1.93787 3.7465,0 7.1055,-0.92587 10.0769,-2.77761 3.0145,-1.85175 5.383,-4.62934 7.1055,-8.33283 1.7593,-3.73313 2.5553,-8.38668 2.3906,-13.95832 h 0.029 c -0.086,-3.96187 0.6244,-6.80406 2.1316,-8.52661 1.5503,-1.72255 3.4882,-2.58382 5.8136,-2.58382 1.6364,0 3.0575,0.38757 4.2633,1.16272 1.2489,0.77515 2.9283,2.06705 5.0385,3.87573 3.3589,2.97141 6.3734,5.12458 9.0433,6.45956 2.7131,1.29191 5.6629,1.93786 8.8496,1.93786 3.7466,0 7.1055,-0.92586 10.0769,-2.7776 3.0145,-1.85175 5.383,-4.62934 7.1055,-8.33283 1.7657,-3.74655 2.5623,-8.41894 2.3901,-14.01723 h -13.3067 c 0.086,3.74655 -0.6244,6.54567 -2.1317,8.39742 -1.5072,1.80868 -3.445,2.71301 -5.8136,2.71301 -1.6794,0 -3.1651,-0.4091 -4.457,-1.22731 -1.292,-0.86128 -2.9284,-2.15318 -4.9093,-3.87574 -3.4451,-3.01446 -6.5026,-5.16764 -9.1726,-6.45955 -2.6699,-1.29192 -5.5336,-1.93787 -8.5912,-1.93787 z m 195.0088,7.79953 c -3.8327,0 -7.2562,0.92586 -10.2707,2.77761 -3.0145,1.85174 -5.383,4.65086 -7.1055,8.39742 -1.6093,3.54863 -2.359,7.99692 -2.2681,13.32476 h -0.059 c 0.086,3.74655 -0.6244,6.54568 -2.1317,8.39742 -1.5072,1.80868 -3.4451,2.71301 -5.8136,2.71301 -1.6795,0 -3.1652,-0.4091 -4.4571,-1.22731 -1.2919,-0.86128 -2.9283,-2.15318 -4.9092,-3.87573 -3.4451,-3.01447 -6.5032,-5.16764 -9.1731,-6.45956 -2.67,-1.29191 -5.5337,-1.93786 -8.5912,-1.93786 -3.8327,0 -7.2563,0.92586 -10.2707,2.77761 -3.0145,1.85174 -5.383,4.65087 -7.1055,8.39742 -1.6735,3.69031 -2.4265,8.34389 -2.2614,13.95832 h -0.029 c 0.086,3.74655 -0.6244,6.54567 -2.1317,8.39742 -1.5072,1.80868 -3.4451,2.71301 -5.8136,2.71301 -1.6795,0 -3.1652,-0.4091 -4.4571,-1.22732 -1.2919,-0.86127 -2.9283,-2.15318 -4.9092,-3.87573 -3.4451,-3.01446 -6.5026,-5.16764 -9.1726,-6.45955 -2.67,-1.29192 -5.5337,-1.93787 -8.5912,-1.93787 -3.8327,0 -7.2562,0.92587 -10.2707,2.77761 -3.0144,1.85174 -5.3829,4.65087 -7.1055,8.39742 -1.6092,3.54864 -2.3589,7.99693 -2.268,13.32477 h -0.059 c 0.086,3.74655 -0.6245,6.54567 -2.1317,8.39742 -1.5072,1.80868 -3.4451,2.71301 -5.8136,2.71301 -1.6795,0 -3.1652,-0.4091 -4.4571,-1.22731 -1.2919,-0.86128 -2.9283,-2.15318 -4.9092,-3.87574 -3.4452,-3.01446 -6.5027,-5.16764 -9.1726,-6.45955 -2.67,-1.29192 -5.5337,-1.93787 -8.5912,-1.93787 -3.8327,0 -7.2562,0.92587 -10.2707,2.77761 -3.0145,1.85174 -5.383,4.65087 -7.1055,8.39742 -1.6795,3.70349 -2.4331,8.37588 -2.2609,14.01723 h 13.3067 c -0.086,-3.96187 0.6244,-6.80406 2.1317,-8.52661 1.5503,-1.72255 3.4881,-2.58382 5.8136,-2.58382 1.6364,0 3.0575,0.38757 4.2633,1.16272 1.2488,0.77515 2.9283,2.06705 5.0384,3.87573 3.359,2.97141 6.3734,5.12458 9.0434,6.45956 2.713,1.29191 5.6629,1.93786 8.8496,1.93786 3.7465,0 7.1055,-0.92586 10.0769,-2.7776 3.0145,-1.85175 5.383,-4.62934 7.1055,-8.33283 1.6913,-3.5888 2.4831,-8.03689 2.3962,-13.32477 h 0.06 c -0.086,-3.96187 0.6245,-6.80406 2.1317,-8.52661 1.5503,-1.72255 3.4881,-2.58382 5.8136,-2.58382 1.6364,0 3.0575,0.38757 4.2633,1.16272 1.2488,0.77515 2.9283,2.06705 5.0384,3.87573 3.359,2.9714 6.3735,5.12458 9.0434,6.45956 2.713,1.29191 5.6629,1.93786 8.8496,1.93786 3.7466,0 7.1055,-0.92586 10.0769,-2.77761 3.0145,-1.85174 5.383,-4.62933 7.1055,-8.33282 1.7593,-3.73313 2.5553,-8.38669 2.3906,-13.95832 h 0.029 c -0.086,-3.96187 0.6244,-6.80406 2.1317,-8.52661 1.5503,-1.72256 3.4881,-2.58383 5.8136,-2.58383 1.6364,0 3.0575,0.38758 4.2633,1.16272 1.2488,0.77515 2.9283,2.06706 5.0384,3.87574 3.359,2.9714 6.374,5.12457 9.0439,6.45955 2.713,1.29191 5.6629,1.93787 8.8496,1.93787 3.7466,0 7.1055,-0.92587 10.0769,-2.77761 3.0145,-1.85174 5.383,-4.62934 7.1055,-8.33283 1.6913,-3.58879 2.4831,-8.03688 2.3963,-13.32476 h 0.06 c -0.086,-3.96187 0.6244,-6.80406 2.1317,-8.52661 1.5503,-1.72256 3.4881,-2.58383 5.8136,-2.58383 1.6364,0 3.0575,0.38758 4.2633,1.16272 1.2488,0.77515 2.9283,2.06706 5.0384,3.87574 3.359,2.9714 6.3735,5.12457 9.0434,6.45955 2.713,1.29192 5.6634,1.93787 8.8501,1.93787 3.7466,0 7.1055,-0.92587 10.0769,-2.77761 3.0145,-1.85174 5.383,-4.62934 7.1055,-8.33283 1.7656,-3.74655 2.5623,-8.41893 2.3901,-14.01723 h -13.3067 c 0.086,3.74655 -0.6244,6.54568 -2.1317,8.39742 -1.5072,1.80868 -3.4456,2.71302 -5.8141,2.71302 -1.6795,0 -3.1652,-0.40911 -4.4571,-1.22732 -1.2919,-0.86128 -2.9283,-2.15318 -4.9092,-3.87573 -3.4451,-3.01447 -6.5027,-5.16764 -9.1726,-6.45956 -2.67,-1.29191 -5.5337,-1.93786 -8.5912,-1.93786 z m -124.8937,5.95932 c -3.8326,0 -7.2562,0.92587 -10.2707,2.77761 -3.0144,1.85175 -5.3829,4.65087 -7.1055,8.39742 -1.6735,3.69032 -2.4264,8.3439 -2.2613,13.95832 h -0.029 c 0.086,3.74655 -0.6245,6.54568 -2.1317,8.39742 -1.5072,1.80868 -3.4451,2.71301 -5.8136,2.71301 -1.6795,0 -3.1652,-0.4091 -4.4571,-1.22731 -1.2919,-0.86128 -2.9283,-2.15318 -4.9092,-3.87573 -3.4451,-3.01447 -6.5027,-5.16764 -9.1726,-6.45956 -2.67,-1.29191 -5.5337,-1.93786 -8.5912,-1.93786 -3.8327,0 -7.2562,0.92586 -10.2707,2.7776 -3.0145,1.85175 -5.383,4.65087 -7.1055,8.39742 -1.6093,3.54864 -2.359,7.99693 -2.2681,13.32477 h -0.059 c 0.086,3.74655 -0.6244,6.54568 -2.1316,8.39742 -1.5073,1.80868 -3.4451,2.71302 -5.8136,2.71302 -1.6795,0 -3.1652,-0.40911 -4.4571,-1.22732 -1.292,-0.86128 -2.9284,-2.15318 -4.9093,-3.87573 -3.4451,-3.01447 -6.5026,-5.16764 -9.1726,-6.45956 -2.6699,-1.29191 -5.5336,-1.93786 -8.5912,-1.93786 -3.8327,0 -7.2562,0.92586 -10.2707,2.77761 -3.0144,1.85174 -5.3829,4.65086 -7.1055,8.39742 -1.6795,3.70348 -2.4331,8.37587 -2.2608,14.01723 h 13.3067 c -0.086,-3.96187 0.6244,-6.80406 2.1316,-8.52661 1.5503,-1.72256 3.4882,-2.58382 5.8136,-2.58382 1.6364,0 3.0575,0.38757 4.2633,1.16271 1.2489,0.77515 2.9283,2.06706 5.0385,3.87574 3.359,2.9714 6.3734,5.12457 9.0433,6.45955 2.7131,1.29192 5.6629,1.93787 8.8496,1.93787 3.7466,0 7.1055,-0.92587 10.0769,-2.77761 3.0145,-1.85174 5.383,-4.62934 7.1056,-8.33283 1.6912,-3.58879 2.483,-8.03688 2.3962,-13.32476 h 0.061 c -0.086,-3.96187 0.6244,-6.80406 2.1316,-8.52661 1.5503,-1.72256 3.4882,-2.58383 5.8136,-2.58383 1.6365,0 3.0576,0.38757 4.2633,1.16272 1.2489,0.77515 2.9284,2.06706 5.0385,3.87574 3.359,2.9714 6.3734,5.12457 9.0434,6.45955 2.713,1.29191 5.6628,1.93787 8.8496,1.93787 3.7465,0 7.1055,-0.92587 10.0769,-2.77761 3.0144,-1.85175 5.3829,-4.62934 7.1055,-8.33283 1.7593,-3.73313 2.5553,-8.38668 2.3905,-13.95832 h 0.029 c -0.086,-3.96187 0.6244,-6.80406 2.1317,-8.52661 1.5503,-1.72255 3.4881,-2.58382 5.8136,-2.58382 1.6364,0 3.0575,0.38757 4.2633,1.16272 1.2488,0.77515 2.9283,2.06705 5.0384,3.87573 3.359,2.97141 6.3735,5.12458 9.0434,6.45956 2.713,1.29191 5.6629,1.93786 8.8496,1.93786 3.7466,0 7.1055,-0.92586 10.0769,-2.7776 3.0145,-1.85175 5.383,-4.62934 7.1055,-8.33283 1.7656,-3.74655 2.5623,-8.41894 2.3901,-14.01723 h -13.3067 c 0.086,3.74655 -0.6245,6.54567 -2.1317,8.39742 -1.5072,1.80868 -3.4451,2.71301 -5.8136,2.71301 -1.6795,0 -3.1652,-0.4091 -4.4571,-1.22731 -1.2919,-0.86128 -2.9283,-2.15318 -4.9092,-3.87574 -3.4451,-3.01446 -6.5026,-5.16764 -9.1726,-6.45955 -2.67,-1.29191 -5.5337,-1.93787 -8.5912,-1.93787 z m 90.8234,52.01905 c -3.8327,0 -7.2562,0.92586 -10.2707,2.77761 -3.0145,1.85174 -5.383,4.65087 -7.1055,8.39742 -1.6735,3.69031 -2.4265,8.3439 -2.2614,13.95832 h -0.029 c 0.086,3.74655 -0.6244,6.54567 -2.1317,8.39742 -1.5072,1.80868 -3.4451,2.71301 -5.8136,2.71301 -1.6795,0 -3.1651,-0.4091 -4.4571,-1.22731 -1.2919,-0.86128 -2.9283,-2.15318 -4.9092,-3.87574 -3.4451,-3.01446 -6.5026,-5.16764 -9.1726,-6.45955 -2.6699,-1.29192 -5.5337,-1.93787 -8.5912,-1.93787 -3.8327,0 -7.2562,0.92587 -10.2707,2.77761 -3.0144,1.85174 -5.3829,4.65087 -7.1055,8.39742 -1.6795,3.70349 -2.4331,8.37588 -2.2608,14.01723 h 13.3066 c -0.086,-3.96187 0.6245,-6.80406 2.1317,-8.52661 1.5503,-1.72255 3.4882,-2.58382 5.8136,-2.58382 1.6364,0 3.0575,0.38757 4.2633,1.16272 1.2489,0.77515 2.9283,2.06705 5.0385,3.87573 3.3589,2.97141 6.3734,5.12458 9.0433,6.45956 2.7131,1.29191 5.6629,1.93786 8.8496,1.93786 3.7466,0 7.1055,-0.92586 10.0769,-2.77761 3.0145,-1.85174 5.3835,-4.62933 7.1061,-8.33282 1.7592,-3.73313 2.5552,-8.38669 2.3905,-13.95832 h 0.028 c -0.086,-3.96187 0.6244,-6.80406 2.1317,-8.52661 1.5503,-1.72255 3.4881,-2.58382 5.8136,-2.58382 1.6364,0 3.0575,0.38757 4.2633,1.16272 1.2488,0.77514 2.9283,2.06705 5.0385,3.87573 3.3589,2.9714 6.3734,5.12457 9.0433,6.45955 2.7131,1.29192 5.6629,1.93787 8.8496,1.93787 3.7466,0 7.1055,-0.92587 10.0769,-2.77761 3.0145,-1.85174 5.3835,-4.62934 7.1061,-8.33282 1.7656,-3.74656 2.5622,-8.41894 2.39,-14.01724 h -13.3072 c 0.086,3.74655 -0.6244,6.54568 -2.1317,8.39742 -1.5072,1.80868 -3.4451,2.71302 -5.8136,2.71302 -1.6794,0 -3.1651,-0.40911 -4.4571,-1.22732 -1.2919,-0.86128 -2.9283,-2.15318 -4.9092,-3.87573 -3.4451,-3.01447 -6.5026,-5.16764 -9.1726,-6.45956 -2.67,-1.29191 -5.5337,-1.93786 -8.5912,-1.93786 z"
       clip-path="url(#clipPath2-0)"
       transform="translate(-672.35233,-173.59911)" /><path
       id="text9681-5-7-8-5"
       style="font-style:normal;font-variant:normal;font-weight:600;font-stretch:normal;font-size:66.1458px;line-height:1.25;font-family:Inter;-inkscape-font-specification:'Inter Semi-Bold';fill:none;fill-opacity:1;stroke:url(#radialGradient22399-9);stroke-width:0.5;stroke-miterlimit:4;stroke-dasharray:none"
       d="m 3104.933,-325.43952 c -2.7507,-0.0112 -5.1964,0.64985 -7.3366,1.98377 -2.1175,1.3119 -3.7761,3.29743 -4.9753,5.95561 -1.169,2.63963 -1.7097,5.94482 -1.6253,9.91324 l -0.021,1.6e-4 c 0.056,2.61914 -0.4476,4.57589 -1.509,5.86996 -1.0392,1.27226 -2.3952,1.90483 -4.0678,1.89812 -1.1664,-0.004 -2.2,-0.30573 -3.0998,-0.90353 -0.8999,-0.59779 -2.0404,-1.49383 -3.4222,-2.68776 -2.4122,-2.14438 -4.552,-3.66026 -6.419,-4.54807 -1.8672,-0.90975 -3.8674,-1.36919 -6.0019,-1.37775 -2.7511,-0.0112 -5.1964,0.65062 -7.3366,1.98451 -2.1181,1.31191 -3.7774,3.29675 -4.9765,5.95486 -1.177,2.65819 -1.7177,5.99031 -1.6236,9.99596 l 0.016,-6e-5 c 0.053,2.60896 -0.45,4.5596 -1.509,5.8504 -1.0392,1.27234 -2.3952,1.90484 -4.068,1.8981 -1.1661,-0.005 -2.1997,-0.30571 -3.0993,-0.90351 -0.9002,-0.59776 -2.0408,-1.49381 -3.4225,-2.68776 -2.412,-2.14438 -4.5518,-3.66028 -6.4191,-4.54804 -1.8671,-0.90974 -3.8679,-1.36924 -6.0026,-1.3778 -2.7512,-0.0113 -5.1957,0.65061 -7.3358,1.98451 -2.1179,1.31189 -3.7773,3.29676 -4.9762,5.95482 -1.1689,2.63946 -1.7086,5.94513 -1.6243,9.91328 l -0.021,1.7e-4 c 0.056,2.6191 -0.448,4.57584 -1.5097,5.87004 -1.0391,1.27218 -2.3953,1.90473 -4.0679,1.89803 -1.1664,-0.004 -2.1989,-0.30573 -3.099,-0.90354 -0.8998,-0.59777 -2.0412,-1.4938 -3.4227,-2.68775 -2.4126,-2.14437 -4.5515,-3.66028 -6.4187,-4.54804 -1.8672,-0.90976 -3.868,-1.3692 -6.0027,-1.37777 -2.7508,-0.0113 -5.1964,0.65062 -7.3365,1.98445 -2.1178,1.3119 -3.7762,3.29676 -4.9752,5.95488 -1.1725,2.64794 -1.7134,5.96575 -1.6246,9.95103 l -0.018,-1.2e-4 c 0.055,2.61908 -0.4472,4.57584 -1.5089,5.87001 -1.0396,1.2723 -2.3955,1.90477 -4.068,1.89803 -1.1664,-0.004 -2.1997,-0.30568 -3.0999,-0.90344 -0.8996,-0.59784 -2.0402,-1.49386 -3.4219,-2.68779 -2.412,-2.14442 -4.5522,-3.66029 -6.4193,-4.54807 -1.8668,-0.90981 -3.8673,-1.36926 -6.0019,-1.3778 -2.7507,-0.0113 -5.1965,0.65055 -7.3364,1.98443 -2.1181,1.31194 -3.7764,3.29681 -4.9753,5.9549 -1.1689,2.63963 -1.7097,5.94549 -1.6253,9.91399 l -0.021,1.6e-4 c 0.056,2.61913 -0.4479,4.57581 -1.5094,5.87002 -1.0392,1.27224 -2.3953,1.90474 -4.068,1.89803 -1.1662,-0.005 -2.1989,-0.30574 -3.0988,-0.90349 -0.8999,-0.5978 -2.0413,-1.49384 -3.4232,-2.68771 -2.412,-2.14445 -4.5511,-3.66031 -6.4183,-4.54807 -1.867,-0.90985 -3.8677,-1.36935 -6.0025,-1.3779 -2.751,-0.0113 -5.1963,0.65062 -7.3365,1.98449 -2.118,1.312 -3.7767,3.29681 -4.9755,5.95487 -1.1772,2.6582 -1.7186,5.99038 -1.625,9.99608 l 9.5409,0.0383 c -0.034,-2.7951 0.4806,-4.78521 1.5419,-5.96941 1.083,-1.20605 2.4281,-1.80584 4.035,-1.79939 1.144,0.004 2.1442,0.28415 3.0003,0.83774 0.8779,0.55368 2.0406,1.47187 3.4878,2.7541 2.3466,2.0562 4.4645,3.54989 6.3534,4.48178 1.8889,0.93189 3.934,1.4022 6.1346,1.41097 2.685,0.0112 5.0971,-0.63956 7.2371,-1.95147 2.14,-1.33386 3.8098,-3.33006 5.0087,-5.98813 1.2211,-2.65801 1.7848,-5.97874 1.6911,-9.96243 l -0.016,5e-5 c -0.023,-2.75055 0.4913,-4.71446 1.5416,-5.8866 1.0832,-1.20609 2.4279,-1.8059 4.0341,-1.79944 1.1445,0.004 2.1452,0.28343 3.0009,0.8371 0.8787,0.55366 2.0408,1.47184 3.4884,2.75409 2.3463,2.05613 4.4642,3.54986 6.3531,4.48171 1.889,0.93189 3.9338,1.40214 6.1342,1.41095 2.6851,0.0112 5.0975,-0.63954 7.2375,-1.95144 2.1402,-1.33391 3.8093,-3.33002 5.0085,-5.98815 1.2212,-2.65801 1.7847,-5.97867 1.6905,-9.96239 l -0.016,5e-5 c -0.027,-2.77061 0.4865,-4.74609 1.5416,-5.92357 1.0831,-1.20609 2.4285,-1.80587 4.0349,-1.7995 1.1444,0.005 2.1443,0.28341 3.0004,0.83701 0.8782,0.55372 2.0406,1.47193 3.4879,2.75416 2.3466,2.05609 4.4646,3.54983 6.3534,4.48172 1.889,0.93188 3.9341,1.4022 6.1349,1.41098 2.6851,0.0112 5.0969,-0.63966 7.2368,-1.95149 2.1401,-1.33383 3.8102,-3.33002 5.0094,-5.98816 1.2209,-2.65805 1.7836,-5.97864 1.6896,-9.96238 l -0.016,7e-5 c -0.023,-2.7501 0.4909,-4.71453 1.5413,-5.88658 1.0832,-1.20609 2.4277,-1.80591 4.0343,-1.79938 1.1442,0.004 2.1451,0.28406 3.0011,0.83777 0.878,0.55368 2.0407,1.47114 3.4879,2.75338 2.3465,2.05608 4.4644,3.55056 6.3533,4.48245 1.8892,0.93182 3.9334,1.40213 6.1343,1.41096 2.6846,0.0112 5.0976,-0.63955 7.2376,-1.95151 2.1399,-1.33384 3.809,-3.33003 5.008,-5.9881 1.2209,-2.65797 1.7849,-5.97863 1.691,-9.96238 l -0.048,-3.8e-4 c -0.029,-2.78441 0.4839,-4.76774 1.5424,-5.94902 1.0831,-1.20605 2.4276,-1.8059 4.0345,-1.79939 1.1444,0.005 2.1449,0.28337 3.0009,0.83703 0.878,0.55368 2.0408,1.47187 3.4878,2.75408 2.3468,2.05611 4.4646,3.54986 6.3538,4.48169 1.8888,0.9319 3.9331,1.40219 6.134,1.41102 2.6848,0.0113 5.0977,-0.63965 7.2375,-1.95148 2.14,-1.33385 3.809,-3.33004 5.008,-5.98811 1.2211,-2.65796 1.785,-5.97868 1.691,-9.9624 l -0.016,6e-5 c -0.023,-2.75048 0.4902,-4.71446 1.5407,-5.88656 1.0835,-1.20608 2.4287,-1.80597 4.0348,-1.79946 1.1446,0.005 2.1445,0.28413 3.0008,0.83778 0.878,0.55365 2.0408,1.47112 3.488,2.7533 2.3465,2.05615 4.4646,3.55059 6.3535,4.48247 1.8886,0.93184 3.9339,1.40215 6.1346,1.41099 2.6849,0.0113 5.097,-0.6403 7.2369,-1.95214 2.14,-1.3339 3.8097,-3.3293 5.009,-5.98746 1.2209,-2.65797 1.7846,-5.97941 1.6904,-9.96313 l -9.5731,-0.0384 c 0.055,2.61915 -0.4478,4.57584 -1.5095,5.87 -1.0396,1.27232 -2.3955,1.90551 -4.068,1.89878 -1.1662,-0.005 -2.1989,-0.30644 -3.099,-0.90421 -0.8995,-0.59787 -2.0409,-1.49314 -3.4227,-2.68707 -2.412,-2.14444 -4.5516,-3.66096 -6.4182,-4.54875 -1.8673,-0.90976 -3.8686,-1.36848 -6.0031,-1.37704 z m 10.5489,24.73834 c -2.7509,-0.0112 -5.1965,0.65058 -7.3366,1.98451 -2.118,1.31196 -3.7761,3.29674 -4.9753,5.95487 -1.1687,2.63947 -1.7099,5.94516 -1.6254,9.91328 l -0.021,1.7e-4 c 0.056,2.61915 -0.4473,4.57585 -1.5086,5.86998 -1.0396,1.27225 -2.3956,1.90554 -4.0682,1.89883 -1.1663,-0.005 -2.1997,-0.30647 -3.0992,-0.90428 -0.9,-0.59782 -2.0406,-1.49311 -3.4224,-2.68703 -2.4122,-2.14434 -4.5523,-3.66101 -6.4191,-4.54876 -1.867,-0.9098 -3.8684,-1.36854 -6.003,-1.37709 -2.7509,-0.0113 -5.1964,0.64988 -7.3365,1.98375 -2.1178,1.31197 -3.7764,3.29754 -4.9755,5.95567 -1.1771,2.6582 -1.7186,5.98952 -1.6247,9.99529 l 0.018,1.2e-4 c 0.053,2.60902 -0.4502,4.55957 -1.5093,5.85043 -1.0395,1.27221 -2.3947,1.90481 -4.0673,1.89807 -1.1664,-0.005 -2.1997,-0.30573 -3.0998,-0.90348 -0.8997,-0.59781 -2.0402,-1.49385 -3.4219,-2.68776 -2.4121,-2.14441 -4.5522,-3.66031 -6.419,-4.54807 -1.8672,-0.90976 -3.8683,-1.36923 -6.0031,-1.37779 -2.7509,-0.0112 -5.1964,0.65063 -7.3365,1.98443 -2.1177,1.31199 -3.7763,3.29683 -4.9753,5.95486 -1.1688,2.63964 -1.7097,5.94556 -1.6252,9.91396 l -0.021,1.8e-4 c 0.056,2.61911 -0.4474,4.57583 -1.5085,5.87 -1.0396,1.27225 -2.3957,1.90482 -4.0683,1.89813 -1.1663,-0.005 -2.2,-0.30578 -3.0996,-0.90354 -0.9001,-0.59782 -2.0407,-1.49385 -3.4223,-2.68781 -2.4124,-2.14432 -4.5522,-3.66021 -6.4192,-4.54803 -1.867,-0.90979 -3.8672,-1.36918 -6.0019,-1.37775 -2.7508,-0.0112 -5.1965,0.65064 -7.3365,1.98446 -2.1179,1.3119 -3.7764,3.2967 -4.9756,5.95484 -1.1726,2.64797 -1.7132,5.96575 -1.6243,9.95103 l -0.018,-1.1e-4 c 0.056,2.61907 -0.4471,4.57579 -1.5086,5.87001 -1.0396,1.27225 -2.3957,1.90476 -4.0681,1.89807 -1.1663,-0.004 -2.1996,-0.3057 -3.0998,-0.90353 -0.9,-0.59777 -2.0406,-1.4938 -3.4221,-2.68776 -2.4123,-2.14439 -4.5522,-3.66026 -6.4192,-4.54806 -1.8672,-0.90976 -3.8681,-1.36917 -6.0028,-1.37776 -2.7507,-0.0112 -5.1963,0.65053 -7.3361,1.98438 -2.1183,1.312 -3.7764,3.2968 -4.9756,5.95492 -1.1687,2.63948 -1.7098,5.94517 -1.625,9.91324 l -0.021,1.6e-4 c 0.056,2.61904 -0.4477,4.57577 -1.5093,5.86996 -1.0395,1.2723 -2.3956,1.90481 -4.0681,1.89812 -1.1665,-0.005 -2.1997,-0.30576 -3.0996,-0.90358 -0.8999,-0.59775 -2.0403,-1.49379 -3.4223,-2.68771 -2.412,-2.14437 -4.5513,-3.66029 -6.4186,-4.54806 -1.8666,-0.90975 -3.8678,-1.36929 -6.0025,-1.37786 -2.7508,-0.0113 -5.1965,0.65063 -7.3364,1.98448 -2.1181,1.31196 -3.7764,3.29682 -4.9755,5.9549 -1.1771,2.65818 -1.7186,5.99033 -1.6247,9.99605 l 9.5396,0.0383 c -0.033,-2.79511 0.482,-4.78452 1.5427,-5.96868 1.0833,-1.20605 2.4286,-1.80584 4.0349,-1.79943 1.1445,0.005 2.1444,0.28342 3.0007,0.83706 0.8781,0.55368 2.0402,1.47188 3.488,2.75412 2.3466,2.05611 4.4645,3.54989 6.3531,4.4817 1.8888,0.93194 3.9335,1.40219 6.134,1.41101 2.6851,0.0112 5.098,-0.63959 7.2379,-1.95146 2.1401,-1.33391 3.8098,-3.33004 5.0089,-5.98817 1.2209,-2.658 1.784,-5.97866 1.6896,-9.96236 l -0.016,5e-5 c -0.023,-2.75019 0.4912,-4.71462 1.5414,-5.88663 1.0831,-1.20601 2.4281,-1.80587 4.0345,-1.79941 1.1442,0.005 2.1448,0.28425 3.0008,0.83786 0.8782,0.55373 2.0408,1.47115 3.488,2.75334 2.3466,2.05616 4.4638,3.55058 6.3526,4.48247 1.8891,0.93185 3.9342,1.40218 6.1351,1.41097 2.6846,0.0112 5.0975,-0.63958 7.2374,-1.95142 2.1402,-1.33392 3.809,-3.33011 5.008,-5.98814 1.2215,-2.65804 1.7852,-5.97873 1.6911,-9.96247 l -0.016,6e-5 c -0.027,-2.77062 0.4864,-4.74679 1.5413,-5.92426 1.0832,-1.20607 2.4277,-1.80591 4.0343,-1.7994 1.1445,0.005 2.1451,0.28413 3.0011,0.83779 0.878,0.55367 2.0408,1.47113 3.4879,2.75336 2.3467,2.05613 4.4645,3.55058 6.3537,4.48242 1.8889,0.9319 3.9332,1.40217 6.134,1.41103 2.6846,0.0112 5.0976,-0.63962 7.2376,-1.9515 2.1401,-1.33391 3.809,-3.33011 5.008,-5.98812 1.2215,-2.65805 1.7849,-5.97867 1.6909,-9.96239 l -0.016,4e-5 c -0.023,-2.75044 0.4912,-4.71446 1.5415,-5.88657 1.0835,-1.20601 2.4278,-1.80586 4.0346,-1.79948 1.144,0.005 2.144,0.28344 3.0004,0.83705 0.8778,0.55373 2.0413,1.47187 3.4886,2.75409 2.3466,2.05612 4.4638,3.54985 6.3528,4.48174 1.8887,0.93188 3.9339,1.40215 6.1344,1.41098 2.6851,0.0113 5.0972,-0.63961 7.2371,-1.95145 2.1402,-1.3339 3.8098,-3.33008 5.0088,-5.98813 1.221,-2.65798 1.7847,-5.97864 1.6906,-9.96242 l -0.048,-3.7e-4 c -0.03,-2.78437 0.484,-4.76773 1.5426,-5.94905 1.083,-1.20601 2.4274,-1.80586 4.034,-1.7994 1.1441,0.005 2.1441,0.28412 3.0005,0.83771 0.8781,0.55368 2.0414,1.47115 3.4886,2.75346 2.3468,2.05604 4.4639,3.55049 6.3529,4.48239 1.8889,0.93188 3.9339,1.40213 6.1344,1.41097 2.6851,0.0112 5.0971,-0.64029 7.2373,-1.95222 2.1398,-1.3338 3.8096,-3.32927 5.0087,-5.98734 1.2209,-2.65801 1.7847,-5.97943 1.6906,-9.96317 l -0.016,5e-5 c -0.023,-2.75013 0.4911,-4.71383 1.5413,-5.88587 1.0832,-1.206 2.4288,-1.80582 4.0351,-1.79939 1.1444,0.005 2.1444,0.28337 3.0003,0.83705 0.8783,0.55369 2.0407,1.47181 3.488,2.75402 2.3466,2.05616 4.4644,3.54994 6.3534,4.48176 1.8889,0.9319 3.9332,1.40218 6.1343,1.41099 2.6848,0.0113 5.0973,-0.63952 7.2374,-1.95143 2.14,-1.33387 3.8101,-3.33006 5.009,-5.98818 1.2212,-2.65798 1.7838,-5.97859 1.69,-9.96236 l -9.5725,-0.0384 c 0.055,2.61907 -0.4479,4.57581 -1.5094,5.86996 -1.0395,1.27228 -2.3957,1.90476 -4.0683,1.89812 -1.1662,-0.004 -2.1994,-0.30578 -3.0994,-0.9036 -0.8996,-0.59778 -2.0405,-1.49383 -3.4221,-2.68774 -2.4125,-2.14434 -4.5516,-3.66026 -6.4185,-4.54811 -1.8672,-0.90973 -3.8682,-1.36916 -6.0028,-1.37772 z m 11.3222,25.18294 c -2.7509,-0.0113 -5.1963,0.65056 -7.3366,1.98453 -2.1179,1.31192 -3.7766,3.2968 -4.9756,5.95485 -1.1689,2.63963 -1.7093,5.94556 -1.625,9.91402 l -0.021,1.7e-4 c 0.056,2.61913 -0.447,4.57503 -1.5088,5.86927 -1.0393,1.2722 -2.3953,1.90545 -4.0677,1.89876 -1.1668,-0.005 -2.1999,-0.30573 -3.0997,-0.90353 -0.8999,-0.5978 -2.0405,-1.4938 -3.4223,-2.68776 -2.4123,-2.14436 -4.5523,-3.661 -6.4192,-4.5488 -1.8669,-0.90977 -3.8672,-1.36851 -6.002,-1.37706 -2.7509,-0.0113 -5.1964,0.6506 -7.3366,1.98452 -2.118,1.31196 -3.7763,3.29683 -4.9753,5.9549 -1.1772,2.65818 -1.7188,5.98958 -1.6247,9.99531 l 0.016,-5e-5 c 0.053,2.60892 -0.4499,4.55949 -1.5086,5.85034 -1.0395,1.27225 -2.3954,1.90475 -4.0681,1.8981 -1.1663,-0.005 -2.1996,-0.30575 -3.0997,-0.90356 -0.8996,-0.59781 -2.0406,-1.49381 -3.422,-2.68776 -2.4125,-2.14437 -4.5523,-3.66025 -6.4193,-4.54808 -1.8671,-0.90975 -3.8673,-1.3685 -6.002,-1.37701 -2.7509,-0.0112 -5.1965,0.64994 -7.3366,1.98376 -2.118,1.31195 -3.7763,3.29679 -4.9753,5.95486 -1.1687,2.63963 -1.7094,5.9455 -1.625,9.91395 l -0.021,1.7e-4 c 0.056,2.61912 -0.4479,4.57584 -1.5093,5.87001 -1.0396,1.27226 -2.3957,1.90479 -4.0682,1.89809 -1.1666,-0.005 -2.199,-0.30569 -3.0986,-0.90348 -0.9,-0.59783 -2.0415,-1.49383 -3.4232,-2.68779 -2.4121,-2.14438 -4.5516,-3.66024 -6.4184,-4.54802 -1.8669,-0.90985 -3.8682,-1.36927 -6.0029,-1.37784 -2.7508,-0.0112 -5.1965,0.65063 -7.3366,1.9845 -2.1175,1.31194 -3.7761,3.29673 -4.9751,5.95489 -1.1726,2.64795 -1.7131,5.96577 -1.6247,9.95103 l -0.018,-1.2e-4 c 0.056,2.61913 -0.448,4.57581 -1.5097,5.87002 -1.039,1.27226 -2.395,1.90473 -4.0678,1.89804 -1.1663,-0.005 -2.1998,-0.30568 -3.0995,-0.90351 -0.9,-0.59778 -2.0406,-1.49378 -3.4226,-2.68773 -2.4119,-2.1444 -4.551,-3.66029 -6.4181,-4.54804 -1.867,-0.90987 -3.8679,-1.36929 -6.0026,-1.37783 -2.7513,-0.0113 -5.1965,0.65058 -7.3363,1.98446 -2.1182,1.31197 -3.7769,3.29677 -4.9758,5.95487 -1.169,2.63946 -1.7093,5.94517 -1.625,9.91328 l -0.021,1.7e-4 c 0.056,2.61914 -0.4471,4.57582 -1.5087,5.86996 -1.0396,1.27232 -2.3956,1.90554 -4.0682,1.89884 -1.1665,-0.005 -2.1996,-0.30637 -3.0996,-0.90424 -0.8996,-0.59781 -2.0407,-1.49382 -3.4221,-2.68776 -2.4124,-2.14437 -4.5523,-3.66022 -6.4195,-4.54799 -1.867,-0.90987 -3.8677,-1.36863 -6.0024,-1.37717 -2.7509,-0.0113 -5.1965,0.64987 -7.3366,1.98379 -2.118,1.31198 -3.7762,3.29745 -4.9754,5.95565 -1.177,2.65814 -1.7187,5.98953 -1.6248,9.99531 l 9.5406,0.0383 c -0.033,-2.79506 0.4815,-4.78451 1.5424,-5.96861 1.0832,-1.20609 2.4281,-1.80597 4.0343,-1.79955 1.1445,0.005 2.1443,0.28346 3.0004,0.83703 0.8781,0.55375 2.0416,1.4719 3.4886,2.7541 2.3466,2.05612 4.4637,3.54992 6.3526,4.48181 1.8892,0.93183 3.9341,1.40291 6.1352,1.41166 2.6847,0.0112 5.0966,-0.64027 7.2365,-1.95221 2.1401,-1.33384 3.8102,-3.32923 5.0093,-5.9874 1.221,-2.65795 1.7846,-5.97938 1.6904,-9.96312 l -0.016,5e-5 c -0.023,-2.75015 0.4912,-4.71452 1.5415,-5.88655 1.0832,-1.2061 2.4283,-1.8059 4.0348,-1.79946 1.1442,0.005 2.1445,0.28414 3.0002,0.8378 0.8781,0.55369 2.0408,1.47185 3.4882,2.7541 2.3465,2.0561 4.4646,3.54983 6.3535,4.48173 1.8888,0.93187 3.9332,1.40216 6.1339,1.41102 2.6847,0.0112 5.0976,-0.63967 7.2377,-1.95154 2.1401,-1.33388 3.8098,-3.33003 5.0089,-5.98817 1.2209,-2.65799 1.7841,-5.97865 1.69,-9.96234 l -0.016,5e-5 c -0.027,-2.7706 0.4859,-4.7468 1.5411,-5.92431 1.0833,-1.20608 2.4283,-1.80588 4.035,-1.79945 1.1442,0.005 2.1441,0.28419 3.0004,0.83779 0.878,0.55373 2.0407,1.47186 3.488,2.75411 2.3466,2.0561 4.4643,3.54985 6.3534,4.4817 1.889,0.93188 3.9341,1.40216 6.1345,1.41101 2.6851,0.0112 5.0973,-0.63967 7.2371,-1.9515 2.1401,-1.33388 3.81,-3.33006 5.0089,-5.98817 1.221,-2.65798 1.7844,-5.97861 1.6905,-9.96235 l -0.016,4e-5 c -0.023,-2.75048 0.491,-4.71441 1.5414,-5.88653 1.0832,-1.20609 2.4279,-1.80585 4.0343,-1.79938 1.1443,0.004 2.1449,0.28343 3.001,0.83697 0.8783,0.55378 2.0407,1.47192 3.488,2.75417 2.3465,2.05608 4.4645,3.54979 6.3535,4.48167 1.8889,0.9319 3.9334,1.40215 6.134,1.41102 2.6851,0.0113 5.0976,-0.63961 7.2377,-1.95148 2.1398,-1.33385 3.8093,-3.33004 5.0082,-5.9881 1.2211,-2.65802 1.7847,-5.97867 1.6907,-9.96247 l -0.048,-3.7e-4 c -0.029,-2.78442 0.4839,-4.76776 1.5424,-5.94904 1.0831,-1.20608 2.4286,-1.80587 4.0349,-1.79945 1.1446,0.004 2.1446,0.28416 3.0004,0.8378 0.8784,0.55363 2.0407,1.47114 3.4884,2.75333 2.3463,2.05611 4.4643,3.55058 6.3531,4.48247 1.8889,0.93188 3.9332,1.40218 6.1341,1.411 2.685,0.0112 5.0976,-0.64039 7.2375,-1.95215 2.1399,-1.3339 3.8101,-3.32936 5.0092,-5.98749 1.2211,-2.65799 1.7838,-5.97861 1.6898,-9.96234 l -0.016,5e-5 c -0.023,-2.75048 0.4912,-4.71447 1.5415,-5.88664 1.0831,-1.206 2.4276,-1.80588 4.0341,-1.79945 1.1445,0.005 2.1445,0.28342 3.0003,0.83709 0.8779,0.55368 2.0415,1.47185 3.4888,2.75406 2.3467,2.05612 4.4639,3.5498 6.3528,4.48169 1.889,0.93189 3.9341,1.40222 6.1347,1.41105 2.6845,0.0112 5.0966,-0.63954 7.2367,-1.95145 2.1402,-1.33388 3.8098,-3.33006 5.009,-5.98818 1.2208,-2.65795 1.785,-5.97867 1.6908,-9.96237 l -9.5732,-0.0384 c 0.055,2.61909 -0.4475,4.57582 -1.5088,5.86992 -1.0393,1.2723 -2.3954,1.90487 -4.068,1.89818 -1.1662,-0.005 -2.1999,-0.30578 -3.0996,-0.90359 -0.9,-0.59786 -2.0405,-1.49383 -3.4223,-2.68781 -2.4122,-2.14432 -4.5519,-3.66026 -6.419,-4.54801 -1.8673,-0.90978 -3.8682,-1.36922 -6.0028,-1.37778 z m 10.5492,24.73884 c -2.7508,-0.0112 -5.1965,0.64989 -7.3365,1.98374 -2.1178,1.31195 -3.7764,3.2975 -4.9753,5.95563 -1.1689,2.63964 -1.7098,5.94483 -1.6252,9.91325 l -0.021,1.7e-4 c 0.056,2.61908 -0.447,4.57582 -1.5087,5.87003 -1.0393,1.27219 -2.3952,1.90469 -4.0679,1.898 -1.1663,-0.005 -2.1997,-0.30573 -3.0997,-0.90354 -0.9,-0.5978 -2.0405,-1.49384 -3.4219,-2.68779 -2.4127,-2.14434 -4.5524,-3.66023 -6.4196,-4.548 -1.867,-0.90975 -3.8681,-1.3692 -6.0025,-1.37776 -2.7508,-0.0112 -5.1957,0.6506 -7.3359,1.98448 -2.1179,1.31189 -3.7775,3.29676 -4.9764,5.95485 -1.1767,2.65821 -1.7177,5.99037 -1.6235,9.99597 l 0.016,-5e-5 c 0.053,2.60892 -0.45,4.55956 -1.5087,5.85044 -1.0398,1.27229 -2.3956,1.90478 -4.068,1.89806 -1.1666,-0.005 -2.1998,-0.30571 -3.0999,-0.90355 -0.9001,-0.59775 -2.0406,-1.49381 -3.4222,-2.68773 -2.4122,-2.1444 -4.5521,-3.66029 -6.4192,-4.54804 -1.8671,-0.90977 -3.868,-1.36925 -6.0025,-1.37782 -2.7509,-0.0112 -5.1966,0.65063 -7.3367,1.9845 -2.1179,1.31194 -3.7766,3.2968 -4.9755,5.95482 -1.1686,2.63951 -1.7094,5.94518 -1.6249,9.91327 l -0.021,1.7e-4 c 0.055,2.61912 -0.4478,4.57581 -1.5093,5.87003 -1.0397,1.27225 -2.3956,1.90477 -4.0684,1.89812 -1.1663,-0.005 -2.1996,-0.30576 -3.0996,-0.90359 -0.8996,-0.59779 -2.0402,-1.4938 -3.4219,-2.68773 -2.4125,-2.14441 -4.5516,-3.66027 -6.4188,-4.54803 -1.8667,-0.90981 -3.868,-1.36921 -6.0026,-1.37777 -2.7509,-0.0112 -5.1966,0.65062 -7.3366,1.98445 -2.1178,1.31191 -3.776,3.29671 -4.975,5.95483 -1.1728,2.648 -1.7137,5.96579 -1.6248,9.95108 l -0.018,-1.2e-4 c 0.055,2.61912 -0.4473,4.57587 -1.5088,5.87002 -1.0395,1.27229 -2.3957,1.90481 -4.068,1.89807 -1.1665,-0.005 -2.1999,-0.30566 -3.0997,-0.90356 -0.8999,-0.59778 -2.0403,-1.49378 -3.4222,-2.68769 -2.412,-2.1444 -4.5522,-3.66027 -6.4189,-4.5481 -1.8672,-0.90981 -3.8677,-1.36922 -6.0024,-1.37777 -2.7507,-0.0112 -5.1963,0.65059 -7.3363,1.98441 -2.1177,1.31198 -3.7771,3.29684 -4.9762,5.95495 -1.1689,2.63964 -1.709,5.94554 -1.6244,9.91394 l -0.021,1.7e-4 c 0.056,2.61908 -0.4481,4.57576 -1.5093,5.86995 -1.0396,1.27229 -2.3957,1.90477 -4.0681,1.89807 -1.1665,-0.005 -2.1994,-0.30566 -3.0989,-0.90348 -0.9,-0.59786 -2.0413,-1.49385 -3.4233,-2.68779 -2.4119,-2.1444 -4.5511,-3.66023 -6.4182,-4.54808 -1.8671,-0.90975 -3.8681,-1.36916 -6.0025,-1.37781 -2.7507,-0.0112 -5.1965,0.65061 -7.3365,1.98446 -2.1182,1.31202 -3.7768,3.29679 -4.9758,5.95496 -1.1771,2.65818 -1.7184,5.99026 -1.6245,9.99605 l 9.5399,0.0382 c -0.034,-2.79506 0.4814,-4.78522 1.5424,-5.96933 1.0831,-1.20608 2.4283,-1.80592 4.035,-1.79944 1.1445,0.005 2.1445,0.28412 3.0003,0.8378 0.878,0.55368 2.0408,1.47112 3.488,2.75334 2.3465,2.05614 4.4647,3.55055 6.3535,4.48243 1.8888,0.93189 3.9339,1.4022 6.1348,1.41104 2.6846,0.0112 5.0967,-0.63956 7.2368,-1.95147 2.14,-1.33389 3.8098,-3.33008 5.0089,-5.98818 1.2209,-2.65796 1.7849,-5.97861 1.6908,-9.9624 l -0.016,6e-5 c -0.024,-2.75047 0.4911,-4.71447 1.5414,-5.88662 1.0837,-1.20607 2.4279,-1.80585 4.0344,-1.79942 1.1442,0.005 2.1447,0.28348 3.0013,0.83707 0.8778,0.55368 2.0406,1.47182 3.4878,2.75408 2.3468,2.05613 4.4645,3.54987 6.3534,4.48171 1.8886,0.93193 3.9333,1.40221 6.134,1.41101 2.6848,0.0112 5.0977,-0.63955 7.2378,-1.9515 2.14,-1.33385 3.809,-3.33005 5.0082,-5.98815 1.2208,-2.65797 1.7845,-5.97863 1.6905,-9.96238 l -0.016,4e-5 c -0.027,-2.77063 0.4866,-4.7461 1.5415,-5.92356 1.0833,-1.20613 2.4288,-1.80592 4.0351,-1.79945 1.1444,0.005 2.1443,0.2834 3.0003,0.837 0.8781,0.55377 2.0408,1.47186 3.4884,2.75413 2.3461,2.05609 4.4641,3.54982 6.3531,4.4817 1.889,0.93188 3.9336,1.40218 6.1341,1.41102 2.685,0.0113 5.0974,-0.6396 7.2374,-1.95152 2.1401,-1.33383 3.8102,-3.33001 5.0092,-5.98811 1.221,-2.65801 1.7839,-5.97869 1.6898,-9.96236 l -0.016,7e-5 c -0.023,-2.75015 0.4914,-4.71458 1.5416,-5.88659 1.0832,-1.20603 2.4274,-1.80586 4.0343,-1.79949 1.1444,0.005 2.145,0.28419 3.001,0.83781 0.878,0.55369 2.0406,1.47114 3.4881,2.75334 2.3465,2.05609 4.4636,3.55059 6.3527,4.48243 1.8889,0.9319 3.9338,1.40218 6.1349,1.41099 2.6846,0.0112 5.0974,-0.63956 7.2373,-1.95142 2.1402,-1.33393 3.8091,-3.33003 5.0083,-5.98818 1.2211,-2.65792 1.7848,-5.97863 1.6908,-9.96235 l -0.048,-3.9e-4 c -0.029,-2.78442 0.4841,-4.7678 1.5426,-5.94908 1.0831,-1.20604 2.4274,-1.8058 4.034,-1.7994 1.1447,0.005 2.1452,0.28342 3.0014,0.837 0.8781,0.55374 2.0406,1.47186 3.4877,2.7541 2.3469,2.0561 4.4647,3.54985 6.3535,4.48172 1.8892,0.93185 3.9334,1.40212 6.1343,1.41098 2.6845,0.0112 5.0974,-0.63957 7.2373,-1.9514 2.1402,-1.33391 3.809,-3.33005 5.0083,-5.98819 1.2212,-2.65799 1.7849,-5.97863 1.6909,-9.96241 l -0.016,6e-5 c -0.024,-2.75052 0.4912,-4.71453 1.5413,-5.88655 1.0833,-1.20613 2.4285,-1.80596 4.0352,-1.7996 1.1439,0.004 2.1439,0.28416 3.0004,0.83775 0.8777,0.55382 2.0407,1.47114 3.4877,2.75341 2.3467,2.05609 4.4647,3.55057 6.3537,4.48244 1.889,0.9319 3.9339,1.40219 6.1344,1.41097 2.685,0.0112 5.097,-0.64024 7.2371,-1.95213 2.14,-1.3339 3.8098,-3.32935 5.0088,-5.9874 1.221,-2.65797 1.7847,-5.97947 1.6906,-9.96314 l -9.5731,-0.0384 c 0.055,2.61918 -0.448,4.57586 -1.5096,5.87007 -1.0391,1.27224 -2.3955,1.90547 -4.0679,1.89874 -1.1663,-0.004 -2.1989,-0.30648 -3.0987,-0.9043 -0.9,-0.59774 -2.0412,-1.49304 -3.4233,-2.68699 -2.4119,-2.14442 -4.5513,-3.66103 -6.4181,-4.54874 -1.8669,-0.90985 -3.8682,-1.36858 -6.003,-1.3771 z m 10.6982,25.29214 c -2.7508,-0.0113 -5.1964,0.64984 -7.3364,1.98369 -2.1178,1.31198 -3.7764,3.29753 -4.9754,5.95565 -1.1688,2.63963 -1.7098,5.94486 -1.6253,9.91327 l -0.021,1.6e-4 c 0.056,2.61907 -0.4477,4.57577 -1.5093,5.86994 -1.0395,1.27225 -2.3956,1.90476 -4.0681,1.89807 -1.1664,-0.005 -2.1988,-0.30573 -3.0989,-0.90349 -0.9,-0.59789 -2.0412,-1.49388 -3.4228,-2.68778 -2.4123,-2.14444 -4.5514,-3.66031 -6.4186,-4.54808 -1.8671,-0.90974 -3.8681,-1.3692 -6.0026,-1.37775 -2.7509,-0.0113 -5.1966,0.65061 -7.3365,1.98443 -2.1182,1.31201 -3.7768,3.29681 -4.9759,5.95495 -1.1766,2.65814 -1.7183,5.99029 -1.6244,9.99601 l 0.018,1.3e-4 c 0.052,2.60899 -0.4507,4.55883 -1.5093,5.84968 -1.0397,1.27227 -2.3959,1.90558 -4.0682,1.89883 -1.1665,-0.005 -2.1994,-0.30569 -3.0991,-0.90349 -0.9,-0.59784 -2.0412,-1.49388 -3.4228,-2.68777 -2.4123,-2.14437 -4.5514,-3.66103 -6.4187,-4.54879 -1.867,-0.90977 -3.8679,-1.36854 -6.0025,-1.37709 -2.7507,-0.0112 -5.1964,0.65062 -7.3365,1.98448 -2.1181,1.312 -3.7767,3.29681 -4.9756,5.95485 -1.1686,2.63952 -1.7093,5.94517 -1.6249,9.91325 l -0.021,1.5e-4 c 0.056,2.61908 -0.447,4.57585 -1.5085,5.87004 -1.0398,1.27227 -2.3957,1.90477 -4.0683,1.89802 -1.1664,-0.005 -2.1996,-0.30567 -3.0997,-0.9035 -0.8996,-0.59777 -2.0403,-1.49381 -3.422,-2.68771 -2.4125,-2.14442 -4.5522,-3.66034 -6.4192,-4.5481 -1.8669,-0.90977 -3.868,-1.36919 -6.0028,-1.37776 -2.7508,-0.0113 -5.1956,0.6506 -7.3357,1.98449 -2.1179,1.31185 -3.7767,3.29669 -4.9759,5.95481 -1.1727,2.64797 -1.7129,5.96578 -1.624,9.95104 l -0.018,-1.2e-4 c 0.056,2.61914 -0.448,4.57587 -1.5097,5.86998 -1.0395,1.27235 -2.3954,1.90482 -4.068,1.89808 -1.1664,-0.005 -2.1989,-0.30569 -3.099,-0.90347 -0.8997,-0.59785 -2.0409,-1.49381 -3.4227,-2.6878 -2.4121,-2.14438 -4.5514,-3.66027 -6.4182,-4.54805 -1.867,-0.9098 -3.8683,-1.3692 -6.003,-1.37778 -2.7511,-0.0112 -5.1964,0.65056 -7.3365,1.98439 -2.1177,1.312 -3.7764,3.29687 -4.9754,5.95494 -1.1687,2.63962 -1.7096,5.94551 -1.6252,9.91401 l -0.021,1.5e-4 c 0.056,2.61914 -0.4475,4.57584 -1.5089,5.86995 -1.0393,1.27233 -2.3953,1.90478 -4.0677,1.89804 -1.1666,-0.004 -2.2003,-0.30563 -3.0997,-0.90342 -0.9002,-0.59782 -2.0409,-1.49381 -3.4225,-2.68778 -2.4122,-2.14436 -4.552,-3.66031 -6.419,-4.54808 -1.8672,-0.90979 -3.8672,-1.36919 -6.0019,-1.37781 -2.7512,-0.0112 -5.1964,0.65055 -7.3366,1.98449 -2.118,1.31199 -3.7764,3.29678 -4.9754,5.95482 -1.1772,2.65824 -1.7186,5.99037 -1.6247,9.99615 l 9.5398,0.0382 c -0.034,-2.79509 0.4815,-4.78524 1.5426,-5.96939 1.0832,-1.20608 2.4275,-1.80584 4.0341,-1.79945 1.1447,0.005 2.1452,0.28413 3.0012,0.83778 0.8779,0.55366 2.0407,1.47113 3.4879,2.75336 2.3465,2.05615 4.4645,3.55063 6.3535,4.48247 1.8889,0.93188 3.9333,1.40218 6.1339,1.41103 2.6846,0.0113 5.0975,-0.63958 7.2377,-1.95156 2.14,-1.33379 3.8091,-3.33 5.008,-5.98813 1.2211,-2.65796 1.7851,-5.97864 1.6908,-9.96233 l -0.016,4e-5 c -0.023,-2.75052 0.4912,-4.71451 1.5414,-5.88656 1.0833,-1.20615 2.4281,-1.80594 4.0343,-1.79938 1.1446,0.004 2.1443,0.28336 3.0006,0.83706 0.8779,0.55368 2.0407,1.47182 3.4882,2.75407 2.3465,2.05612 4.4644,3.54983 6.3534,4.48171 1.8885,0.93187 3.9339,1.4022 6.1345,1.41098 2.685,0.0113 5.0969,-0.63953 7.237,-1.95148 2.1401,-1.33384 3.8099,-3.33005 5.009,-5.98819 1.2209,-2.65795 1.7846,-5.9786 1.6905,-9.96232 l -0.016,4e-5 c -0.027,-2.77061 0.4864,-4.74609 1.5414,-5.92356 1.0831,-1.20605 2.428,-1.80588 4.0344,-1.79944 1.1443,0.004 2.145,0.28343 3.0008,0.83709 0.8784,0.5537 2.0409,1.47185 3.4884,2.7541 2.3463,2.05603 4.4642,3.54983 6.3533,4.48168 1.8889,0.93183 3.9331,1.40221 6.1341,1.41101 2.685,0.0112 5.0974,-0.6396 7.2375,-1.95147 2.1399,-1.33389 3.8094,-3.33009 5.0083,-5.98815 1.2212,-2.65807 1.7847,-5.97868 1.6905,-9.96237 l -0.016,4e-5 c -0.023,-2.75016 0.4913,-4.71452 1.5417,-5.88658 1.0832,-1.20604 2.4282,-1.80582 4.0348,-1.79946 1.1446,0.005 2.1445,0.28409 3.0004,0.83775 0.8781,0.55366 2.0406,1.47111 3.488,2.75339 2.3466,2.05606 4.4646,3.55054 6.3534,4.48243 1.8889,0.93187 3.9342,1.4021 6.1348,1.41099 2.6847,0.0112 5.097,-0.63963 7.2369,-1.9515 2.1401,-1.33393 3.8097,-3.33 5.0088,-5.98812 1.2209,-2.65796 1.7841,-5.97862 1.6902,-9.96241 l -0.048,-3.8e-4 c -0.029,-2.78442 0.4832,-4.76776 1.5417,-5.94905 1.083,-1.20604 2.4282,-1.80584 4.035,-1.7994 1.1444,0.004 2.1442,0.28348 3.0003,0.83704 0.8783,0.55368 2.0406,1.47184 3.4878,2.75411 2.3467,2.05607 4.4646,3.54982 6.3535,4.48172 1.8892,0.93181 3.9342,1.40215 6.135,1.41094 2.6846,0.0113 5.0969,-0.6396 7.2366,-1.95137 2.1401,-1.33392 3.8097,-3.33008 5.0088,-5.98818 1.2215,-2.65803 1.7851,-5.97868 1.691,-9.96241 l -0.016,5e-5 c -0.023,-2.75052 0.4908,-4.71447 1.5416,-5.88654 1.0831,-1.2061 2.4275,-1.80592 4.0342,-1.79949 1.144,0.004 2.1446,0.28344 3.001,0.83703 0.8779,0.55375 2.0406,1.47193 3.4881,2.75409 2.3467,2.0561 4.4646,3.55057 6.3535,4.48246 1.8887,0.93193 3.9331,1.40221 6.1336,1.41099 2.685,0.0112 5.0978,-0.64029 7.2377,-1.9521 2.1402,-1.33393 3.8093,-3.32937 5.0082,-5.98747 1.2211,-2.65802 1.7847,-5.97943 1.6906,-9.96308 l -9.5733,-0.0384 c 0.056,2.61914 -0.447,4.57578 -1.5085,5.86996 -1.0396,1.27228 -2.3956,1.90549 -4.0683,1.8988 -1.1662,-0.005 -2.1993,-0.30649 -3.099,-0.90428 -0.9002,-0.5978 -2.0406,-1.49309 -3.4225,-2.68703 -2.412,-2.14443 -4.5523,-3.66102 -6.4189,-4.54882 -1.8671,-0.90977 -3.8677,-1.36848 -6.0024,-1.37703 z m 10.5489,24.73803 c -2.7509,-0.0112 -5.1966,0.65063 -7.3365,1.98451 -2.118,1.31194 -3.7764,3.2968 -4.9753,5.95488 -1.169,2.63951 -1.7098,5.94516 -1.6253,9.91329 l -0.021,1.7e-4 c 0.056,2.61912 -0.4469,4.57581 -1.5087,5.87005 -1.039,1.27217 -2.3951,1.90551 -4.0681,1.8988 -1.166,-0.004 -2.1994,-0.30654 -3.0992,-0.90433 -0.9001,-0.59779 -2.0406,-1.49309 -3.4225,-2.68699 -2.4121,-2.14445 -4.5519,-3.66101 -6.4191,-4.54877 -1.8668,-0.90985 -3.8677,-1.36855 -6.0024,-1.37712 -2.7514,-0.0112 -5.1964,0.64988 -7.3367,1.98381 -2.1181,1.3119 -3.7768,3.29749 -4.9756,5.95556 -1.177,2.65818 -1.7186,5.98967 -1.6247,9.99526 l 0.018,1.3e-4 c 0.053,2.60898 -0.4502,4.55952 -1.5094,5.85038 -1.0392,1.27229 -2.3948,1.90483 -4.0672,1.89813 -1.166,-0.005 -2.1996,-0.30572 -3.0994,-0.90353 -0.9,-0.59786 -2.0405,-1.4939 -3.4223,-2.68778 -2.4123,-2.14435 -4.5524,-3.66026 -6.4191,-4.54805 -1.8671,-0.90977 -3.8682,-1.36917 -6.0027,-1.37773 -2.7512,-0.0113 -5.1964,0.65055 -7.3364,1.98441 -2.1183,1.31199 -3.7767,3.2968 -4.9758,5.95484 -1.1686,2.63963 -1.7095,5.94554 -1.6251,9.91401 l -0.021,1.7e-4 c 0.055,2.61912 -0.4471,4.57505 -1.5087,5.86927 -1.0395,1.27229 -2.3957,1.90559 -4.068,1.89884 -1.1667,-0.005 -2.1999,-0.3057 -3.0999,-0.90356 -0.9001,-0.59778 -2.0406,-1.49381 -3.4221,-2.68771 -2.4123,-2.14444 -4.5523,-3.66098 -6.4193,-4.54888 -1.8671,-0.90974 -3.8673,-1.3684 -6.0019,-1.37697 -2.7508,-0.0112 -5.1964,0.65064 -7.3365,1.98446 -2.1179,1.3119 -3.7761,3.29671 -4.9755,5.95485 -1.1723,2.64798 -1.7132,5.96574 -1.6244,9.95102 l -0.018,-1.1e-4 c 0.056,2.61912 -0.4473,4.57518 -1.5089,5.86932 -1.0397,1.27229 -2.3955,1.90554 -4.068,1.89879 -1.1664,-0.004 -2.1997,-0.3057 -3.0998,-0.90351 -0.8995,-0.59782 -2.0405,-1.49385 -3.4221,-2.68776 -2.4125,-2.14435 -4.5522,-3.66097 -6.4194,-4.54873 -1.8667,-0.90981 -3.868,-1.36852 -6.0028,-1.37705 -2.7506,-0.0113 -5.1961,0.65049 -7.3361,1.98438 -2.1183,1.31201 -3.7764,3.2968 -4.9753,5.95491 -1.1689,2.63945 -1.7098,5.94507 -1.6253,9.91326 l -0.021,1.5e-4 c 0.056,2.61914 -0.4479,4.57586 -1.5095,5.87007 -1.0392,1.27223 -2.3955,1.90474 -4.0679,1.89806 -1.1666,-0.004 -2.1999,-0.30572 -3.0996,-0.90353 -0.9,-0.59776 -2.0405,-1.49379 -3.4222,-2.68774 -2.4121,-2.14441 -4.5516,-3.66028 -6.4185,-4.54804 -1.8669,-0.9098 -3.8682,-1.36929 -6.0028,-1.37791 -2.7509,-0.0113 -5.1965,0.65064 -7.3365,1.98454 -2.1177,1.31197 -3.7762,3.29676 -4.9754,5.9549 -1.1772,2.65819 -1.7187,5.9903 -1.6248,9.99603 l 9.5402,0.0383 c -0.034,-2.79509 0.4814,-4.78446 1.5425,-5.96866 1.0832,-1.20602 2.4283,-1.80587 4.0348,-1.79946 1.1443,0.004 2.1441,0.28341 3.0004,0.83706 0.8781,0.55369 2.0409,1.47186 3.4881,2.75407 2.3466,2.05613 4.4644,3.54987 6.3533,4.48177 1.889,0.93184 3.9332,1.40218 6.1337,1.41094 2.6851,0.0112 5.098,-0.63954 7.2379,-1.9514 2.1401,-1.33392 3.8098,-3.33005 5.009,-5.9882 1.2208,-2.65797 1.7839,-5.97867 1.6897,-9.96238 l -0.016,5e-5 c -0.023,-2.75018 0.4913,-4.7146 1.5413,-5.88658 1.0834,-1.20613 2.4281,-1.8059 4.0344,-1.79938 1.1444,0.004 2.1452,0.28416 3.0009,0.83782 0.8786,0.55372 2.0408,1.47114 3.4881,2.75332 2.3468,2.05613 4.4638,3.55056 6.3528,4.48244 1.8888,0.93191 3.9339,1.40223 6.1348,1.41102 2.6851,0.0112 5.0975,-0.6396 7.2375,-1.95147 2.1401,-1.33389 3.8096,-3.33009 5.0085,-5.98813 1.2212,-2.65808 1.7847,-5.97874 1.6905,-9.96242 l -0.016,4e-5 c -0.027,-2.77062 0.4864,-4.74678 1.5413,-5.92426 1.0834,-1.20605 2.4284,-1.80593 4.0352,-1.79943 1.1445,0.005 2.1443,0.28413 3.0003,0.83773 0.8783,0.55369 2.0408,1.47115 3.488,2.75338 2.3467,2.05613 4.4647,3.55055 6.3535,4.48245 1.8888,0.9319 3.9332,1.40214 6.1342,1.41093 2.6846,0.0112 5.0975,-0.63957 7.2374,-1.95139 2.1401,-1.33391 3.809,-3.33012 5.008,-5.98815 1.2214,-2.65803 1.7851,-5.9787 1.691,-9.96242 l -0.016,6e-5 c -0.023,-2.75057 0.4911,-4.71447 1.5415,-5.88656 1.083,-1.20605 2.4275,-1.80595 4.0342,-1.79945 1.1441,0.005 2.1443,0.28344 3.0005,0.837 0.8777,0.55378 2.0412,1.47195 3.4886,2.75414 2.3465,2.05612 4.4638,3.54981 6.3526,4.4817 1.8889,0.93189 3.9341,1.4022 6.1347,1.41097 2.6849,0.0112 5.097,-0.63957 7.237,-1.9514 2.1402,-1.3339 3.8098,-3.3301 5.0088,-5.98812 1.2209,-2.658 1.7846,-5.97872 1.6906,-9.96244 l -0.048,-3.7e-4 c -0.029,-2.78442 0.484,-4.76782 1.5424,-5.949 1.0832,-1.20613 2.4276,-1.80591 4.0345,-1.79948 1.1441,0.005 2.1449,0.28347 3.001,0.83704 0.8778,0.55377 2.0406,1.47192 3.4878,2.75416 2.3468,2.05605 4.4638,3.54982 6.3528,4.48165 1.8889,0.93189 3.9341,1.40287 6.1345,1.41176 2.685,0.0112 5.0971,-0.64035 7.2371,-1.95218 2.1401,-1.33386 3.8097,-3.32932 5.0089,-5.98743 1.2209,-2.65801 1.7849,-5.97938 1.6908,-9.9631 l -0.016,5e-5 c -0.023,-2.75015 0.4914,-4.71388 1.5415,-5.88584 1.0832,-1.20606 2.4287,-1.80591 4.035,-1.79951 1.1445,0.004 2.1444,0.28342 3.0003,0.83709 0.8784,0.55365 2.0407,1.47184 3.4884,2.75405 2.3464,2.0561 4.4642,3.54981 6.3531,4.48169 1.8889,0.93191 3.9337,1.40221 6.1342,1.41098 2.6848,0.0113 5.0973,-0.63946 7.2373,-1.95138 2.1402,-1.33388 3.8101,-3.33005 5.0093,-5.98816 1.221,-2.65801 1.7839,-5.97869 1.6897,-9.96236 l -9.5725,-0.0384 c 0.056,2.61903 -0.4478,4.57576 -1.5094,5.86994 -1.0395,1.27229 -2.3955,1.90477 -4.068,1.89809 -1.1664,-0.005 -2.1988,-0.30574 -3.099,-0.90353 -0.8995,-0.59788 -2.0409,-1.49386 -3.4227,-2.68777 -2.412,-2.14439 -4.5516,-3.66031 -6.4186,-4.54811 -1.8666,-0.90977 -3.8681,-1.36921 -6.0027,-1.37776 z"
       clip-path="url(#clipPath18171-0-8)"
       transform="translate(-2871.7073,313.99291)" /></g></svg>
