<?xml version="1.0" encoding="UTF-8" standalone="no"?>
<!-- Created with Inkscape (http://www.inkscape.org/) -->

<svg
   width="37.211498mm"
   height="26.458576mm"
   viewBox="0 0 37.211499 26.458576"
   version="1.1"
   id="svg1"
   inkscape:version="1.4 (86a8ad7, 2024-10-11)"
   sodipodi:docname="icon-truck-parcel.svg"
   xmlns:inkscape="http://www.inkscape.org/namespaces/inkscape"
   xmlns:sodipodi="http://sodipodi.sourceforge.net/DTD/sodipodi-0.dtd"
   xmlns="http://www.w3.org/2000/svg"
   xmlns:svg="http://www.w3.org/2000/svg">
  <sodipodi:namedview
     id="namedview1"
     pagecolor="#ffffff"
     bordercolor="#000000"
     borderopacity="0.25"
     inkscape:showpageshadow="2"
     inkscape:pageopacity="0.0"
     inkscape:pagecheckerboard="0"
     inkscape:deskcolor="#d1d1d1"
     inkscape:document-units="mm"
     inkscape:zoom="0.61112514"
     inkscape:cx="-133.36057"
     inkscape:cy="-89.997934"
     inkscape:window-width="1059"
     inkscape:window-height="922"
     inkscape:window-x="433"
     inkscape:window-y="0"
     inkscape:window-maximized="0"
     inkscape:current-layer="layer1" />
  <defs
     id="defs1" />
  <g
     inkscape:label="Capa 1"
     inkscape:groupmode="layer"
     id="layer1"
     transform="translate(-140.2292,-172.50833)">
    <path
       style="fill:#ccdaf4;fill-opacity:1;stroke:none;stroke-width:1"
       d="m 150.1149,197.84491 c -0.918,-0.1572 -1.8778,-0.89146 -2.2774,-1.74226 -1.1946,-2.54345 1.1514,-5.25399 3.8381,-4.43461 1.1126,0.33929 2.0163,1.41188 2.1832,2.59112 0.3022,2.13513 -1.5964,3.95349 -3.7439,3.58575 z m 1.2357,-1.67985 c 0.783,-0.35659 1.1671,-1.33528 0.8212,-2.09254 -0.5257,-1.15091 -2.1208,-1.28361 -2.8152,-0.23421 -0.1724,0.26047 -0.1949,0.36039 -0.1949,0.86456 0,0.52753 0.017,0.59455 0.228,0.89842 0.4298,0.61888 1.2942,0.86741 1.9609,0.56377 z m 15.57,1.67516 c -1.4527,-0.23998 -2.6126,-1.6239 -2.6126,-3.11716 0,-2.50583 2.7946,-4.05795 4.8863,-2.71382 0.9629,0.61876 1.4709,1.55086 1.4709,2.69879 0,0.89432 -0.2407,1.50939 -0.8527,2.179 -0.4295,0.47001 -1.1567,0.86009 -1.7974,0.96419 -0.482,0.0783 -0.5584,0.0776 -1.0945,-0.011 z m 1.2397,-1.6766 c 0.5208,-0.23656 0.9493,-0.89361 0.9493,-1.45559 0,-0.35356 -0.1618,-0.74492 -0.4374,-1.05802 -0.3522,-0.40016 -0.7577,-0.55833 -1.3258,-0.51723 -1.2484,0.0903 -1.8736,1.55144 -1.0986,2.56752 0.4036,0.52916 1.2931,0.74464 1.9125,0.46332 z m -27.6264,-2.1269 c -0.2576,-0.10381 -0.3047,-0.29981 -0.3047,-1.2691 0,-0.8888 0.01,-0.93273 0.1733,-1.09912 l 0.1734,-0.17333 h 3.6826 3.6827 l -0.3933,0.42481 c -0.4267,0.46089 -0.8452,1.25215 -0.97,1.83398 l -0.076,0.35386 -2.9069,-0.004 c -1.5988,-0.002 -2.9763,-0.0324 -3.0612,-0.0666 z m 14.3608,0.0181 c -0.017,-0.0291 -0.052,-0.18006 -0.08,-0.33541 -0.081,-0.46671 -0.575,-1.40354 -0.9634,-1.82851 l -0.3617,-0.39577 h 3.9598 3.9598 l 0.019,-7.50254 c 0.019,-7.40119 0.021,-7.50585 0.1629,-7.74719 0.079,-0.13455 0.2539,-0.30932 0.3884,-0.38837 0.2351,-0.13808 0.3555,-0.14372 3.0691,-0.14372 3.1281,0 3.2492,0.0138 4.1964,0.47819 0.8028,0.39364 1.268,0.94116 3.0416,3.58042 1.8531,2.75755 1.9092,2.84991 2.126,3.49828 0.1633,0.48853 0.165,0.52714 0.1883,4.35891 l 0.024,3.86602 h 0.7054 c 0.6549,0 0.7179,0.0124 0.8788,0.17332 0.1668,0.16682 0.1733,0.20891 0.1733,1.12197 0,0.8286 -0.017,0.96975 -0.1349,1.11535 l -0.1349,0.1667 -2.1964,0.0205 c -1.7471,0.0164 -2.2019,0.002 -2.2236,-0.0706 -0.2627,-0.88143 -0.4003,-1.21437 -0.6767,-1.63783 -0.7764,-1.18929 -2.0797,-1.89732 -3.4953,-1.89891 -1.2882,-10e-4 -2.3522,0.48549 -3.2085,1.46844 -0.4055,0.46547 -0.7892,1.20768 -0.9216,1.78295 l -0.085,0.37072 h -4.1902 c -2.3047,0 -4.2038,-0.0238 -4.2205,-0.053 z m 16.192,-11.10376 c 0.288,-0.28801 0.2126,-0.44364 -1.1668,-2.40704 -0.7194,-1.02402 -1.3787,-1.90115 -1.4652,-1.94919 -0.1144,-0.0636 -0.7159,-0.088 -2.213,-0.0898 -1.975,-0.002 -2.0632,0.003 -2.242,0.14385 l -0.186,0.14635 v 2.00732 c 0,1.91317 0.01,2.01395 0.1412,2.14855 0.1373,0.13734 0.2354,0.14122 3.5659,0.14122 3.3306,0 3.4286,-0.004 3.5659,-0.14122 z m -29.4131,6.81728 -0.1734,-0.17332 v -7.92942 c 0,-7.52715 0.01,-7.94376 0.1306,-8.21188 0.071,-0.15534 0.2343,-0.38488 0.363,-0.51008 0.4815,-0.46833 0.05,-0.44755 8.8651,-0.42672 l 7.9751,0.0189 0.2824,0.15201 c 0.3545,0.19079 0.5629,0.41229 0.7028,0.74699 0.097,0.23085 0.1093,1.19874 0.1093,8.24301 0,7.88729 0,7.9831 -0.1413,8.12266 -0.1397,0.13973 -0.2353,0.14123 -9.0415,0.14123 h -8.9004 z"
       id="path10-8" />
    <path
       style="fill:#5a73c4;fill-opacity:1;stroke:none;stroke-width:1"
       d="m 151.1732,198.90343 c -0.918,-0.1572 -1.8778,-0.89146 -2.2774,-1.74226 -1.1946,-2.54345 1.1514,-5.25399 3.8381,-4.43461 1.1126,0.33929 2.0163,1.41188 2.1832,2.59112 0.3022,2.13513 -1.5964,3.95349 -3.7439,3.58575 z m 1.2357,-1.67985 c 0.783,-0.35659 1.1671,-1.33528 0.8212,-2.09254 -0.5257,-1.15091 -2.1208,-1.28361 -2.8152,-0.23421 -0.1724,0.26047 -0.1949,0.36039 -0.1949,0.86456 0,0.52753 0.017,0.59455 0.228,0.89842 0.4298,0.61888 1.2942,0.86741 1.9609,0.56377 z m 15.57,1.67516 c -1.4527,-0.23998 -2.6126,-1.6239 -2.6126,-3.11716 0,-2.50583 2.7946,-4.05795 4.8863,-2.71382 0.9629,0.61876 1.4709,1.55086 1.4709,2.69879 0,0.89432 -0.2407,1.50939 -0.8527,2.179 -0.4295,0.47001 -1.1567,0.86009 -1.7974,0.96419 -0.482,0.0783 -0.5584,0.0776 -1.0945,-0.011 z m 1.2397,-1.6766 c 0.5208,-0.23656 0.9493,-0.89361 0.9493,-1.45559 0,-0.35356 -0.1618,-0.74492 -0.4374,-1.05802 -0.3522,-0.40016 -0.7577,-0.55833 -1.3258,-0.51723 -1.2484,0.0903 -1.8736,1.55144 -1.0986,2.56752 0.4036,0.52916 1.2931,0.74464 1.9125,0.46332 z m -27.6264,-2.1269 c -0.2576,-0.10381 -0.3047,-0.29981 -0.3047,-1.2691 0,-0.8888 0.01,-0.93273 0.1733,-1.09912 l 0.1734,-0.17333 h 3.6826 3.6827 l -0.3933,0.42481 c -0.4267,0.46089 -0.8452,1.25215 -0.97,1.83398 l -0.076,0.35386 -2.9069,-0.004 c -1.5988,-0.002 -2.9763,-0.0324 -3.0612,-0.0666 z m 14.3608,0.0181 c -0.017,-0.0291 -0.052,-0.18006 -0.08,-0.33541 -0.081,-0.46671 -0.575,-1.40354 -0.9634,-1.82851 l -0.3617,-0.39577 h 3.9598 3.9598 l 0.019,-7.50254 c 0.019,-7.40119 0.021,-7.50585 0.1629,-7.74719 0.079,-0.13455 0.2539,-0.30932 0.3884,-0.38837 0.2351,-0.13808 0.3555,-0.14372 3.0691,-0.14372 3.1281,0 3.2492,0.0138 4.1964,0.47819 0.8028,0.39364 1.268,0.94116 3.0416,3.58042 1.8531,2.75755 1.9092,2.84991 2.126,3.49828 0.1633,0.48853 0.165,0.52714 0.1883,4.35891 l 0.024,3.86602 h 0.7054 c 0.6549,0 0.7179,0.0124 0.8788,0.17332 0.1668,0.16682 0.1733,0.20891 0.1733,1.12197 0,0.8286 -0.017,0.96975 -0.1349,1.11535 l -0.1349,0.1667 -2.1964,0.0205 c -1.7471,0.0164 -2.2019,0.002 -2.2236,-0.0706 -0.2627,-0.88143 -0.4003,-1.21437 -0.6767,-1.63783 -0.7764,-1.18929 -2.0797,-1.89732 -3.4953,-1.89891 -1.2882,-0.001 -2.3522,0.48549 -3.2085,1.46844 -0.4055,0.46547 -0.7892,1.20768 -0.9216,1.78295 l -0.085,0.37072 h -4.1902 c -2.3047,0 -4.2038,-0.0238 -4.2205,-0.053 z m 16.192,-11.10376 c 0.288,-0.28801 0.2126,-0.44364 -1.1668,-2.40704 -0.7194,-1.02402 -1.3787,-1.90115 -1.4652,-1.94919 -0.1144,-0.0636 -0.7159,-0.088 -2.213,-0.0898 -1.975,-0.002 -2.0632,0.003 -2.242,0.14385 l -0.186,0.14635 v 2.00732 c 0,1.91317 0.01,2.01395 0.1412,2.14855 0.1373,0.13734 0.2354,0.14122 3.5659,0.14122 3.3306,0 3.4286,-0.004 3.5659,-0.14122 z m -29.4131,6.81728 -0.1734,-0.17332 v -7.92942 c 0,-7.52715 0.01,-7.94376 0.1306,-8.21188 0.071,-0.15534 0.2343,-0.38488 0.363,-0.51008 0.4815,-0.46833 0.05,-0.44755 8.8651,-0.42672 l 7.9751,0.0189 0.2824,0.15201 c 0.3545,0.19079 0.5629,0.41229 0.7028,0.74699 0.097,0.23085 0.1093,1.19874 0.1093,8.24301 0,7.88729 0,7.9831 -0.1413,8.12266 -0.1397,0.13973 -0.2353,0.14123 -9.0415,0.14123 h -8.9004 z"
       id="path10" />
  </g>
</svg>
