<?xml version="1.0" encoding="UTF-8" standalone="no"?>
<!-- Created with Inkscape (http://www.inkscape.org/) -->

<svg
   width="21.681463mm"
   height="26.458559mm"
   viewBox="0 0 21.681463 26.458559"
   version="1.1"
   id="svg1"
   inkscape:version="1.4 (86a8ad7, 2024-10-11)"
   sodipodi:docname="icon-checklist-ok.svg"
   xmlns:inkscape="http://www.inkscape.org/namespaces/inkscape"
   xmlns:sodipodi="http://sodipodi.sourceforge.net/DTD/sodipodi-0.dtd"
   xmlns="http://www.w3.org/2000/svg"
   xmlns:svg="http://www.w3.org/2000/svg">
  <sodipodi:namedview
     id="namedview1"
     pagecolor="#ffffff"
     bordercolor="#000000"
     borderopacity="0.25"
     inkscape:showpageshadow="2"
     inkscape:pageopacity="0.0"
     inkscape:pagecheckerboard="0"
     inkscape:deskcolor="#d1d1d1"
     inkscape:document-units="mm"
     inkscape:zoom="0.61112514"
     inkscape:cx="262.63033"
     inkscape:cy="212.72239"
     inkscape:window-width="1059"
     inkscape:window-height="922"
     inkscape:window-x="433"
     inkscape:window-y="0"
     inkscape:window-maximized="0"
     inkscape:current-layer="layer1" />
  <defs
     id="defs1" />
  <g
     inkscape:label="Capa 1"
     inkscape:groupmode="layer"
     id="layer1"
     transform="translate(-35.71885,-92.604159)">
    <path
       style="fill:#ccdaf4;fill-opacity:1;stroke:none;stroke-width:1"
       d="m 50.98401,117.95657 c -0.3797,-0.0542 -1.0694,-0.26721 -1.3899,-0.42929 -1.27281,-0.64362 -2.24449,-1.89613 -2.53208,-3.26387 -0.10961,-0.52128 -0.10957,-1.41499 9e-5,-1.93594 0.30692,-1.45812 1.29648,-2.69094 2.66894,-3.32505 0.66377,-0.30669 1.10478,-0.39612 1.9479,-0.39505 0.7676,10e-4 1.02578,0.0439 1.66293,0.2762 1.33717,0.4876 2.41893,1.66113 2.8636,3.10652 0.1231,0.40012 0.13452,0.50728 0.13645,1.28053 0.002,0.94319 -0.0643,1.28237 -0.39125,1.98992 -0.87432,1.89236 -2.89865,2.99122 -4.96668,2.69603 z m 0.65715,-2.21639 c 0.17906,-0.0977 3.17691,-3.4481 3.24526,-3.62691 0.16092,-0.42094 -0.10116,-0.90055 -0.53675,-0.98227 -0.39895,-0.0748 -0.45553,-0.0279 -1.82997,1.51978 -0.70283,0.79139 -1.28672,1.43889 -1.29754,1.43889 -0.0108,0 -0.29931,-0.22549 -0.64108,-0.50108 -0.73666,-0.59403 -0.81692,-0.63992 -1.11967,-0.64032 -0.4928,-5.9e-4 -0.83574,0.56066 -0.62506,1.02306 0.0601,0.13187 1.8591,1.61498 2.14985,1.77234 0.19415,0.10507 0.45858,0.10367 0.65496,-0.003 z m -14.79277,-0.31461 c -0.41289,-0.0973 -0.80676,-0.40489 -1.01137,-0.78986 -0.0889,-0.16731 -0.0928,-0.51088 -0.10527,-9.27906 l -0.0129,-9.105319 0.14471,-0.30924 c 0.17315,-0.37002 0.47279,-0.6762 0.74014,-0.7563 0.13036,-0.0391 0.67831,-0.0584 1.65357,-0.0583 l 1.45861,1.3e-4 0.002,0.40939 c 0.002,0.33353 0.0263,0.46161 0.13207,0.69111 0.18093,0.3926 0.48628,0.70528 0.87618,0.89723 l 0.3277,0.16133 h 2.80568 2.80567 l 0.30332,-0.14018 c 0.63424,-0.29311 1.02058,-0.88343 1.05343,-1.60962 l 0.0185,-0.40952 1.1242,4.4e-4 c 0.61832,1.4e-4 1.26941,0.0237 1.44687,0.0522 0.63631,0.10229 1.09335,0.40291 1.29677,0.85294 l 0.11795,0.26097 0.0136,5.589579 0.0136,5.58958 -0.60932,0.0309 c -0.33512,0.017 -0.74892,0.0622 -0.91956,0.1004 l -0.31024,0.0695 v -4.26284 -4.262849 h -6.35386 -6.35386 v 7.247369 7.24737 h 4.18388 4.18387 l 0.0632,0.47081 c 0.0347,0.25895 0.12632,0.6722 0.20349,0.91833 l 0.14031,0.44752 -4.62316,-0.005 c -2.54273,-0.003 -4.70727,-0.0248 -4.81007,-0.049 z m 2.99332,-3.72766 c -0.0652,-0.0241 -0.32689,-0.21138 -0.58142,-0.4161 -0.4966,-0.39943 -0.5548,-0.51344 -0.38551,-0.75514 0.12656,-0.18068 0.31741,-0.14191 0.67389,0.13689 0.17385,0.13597 0.33843,0.24605 0.36573,0.24464 0.0273,-10e-4 0.30364,-0.29161 0.61408,-0.64489 0.67865,-0.77228 0.83897,-0.84506 1.04854,-0.47596 0.0658,0.11585 0.0658,0.14418 0,0.25088 -0.14225,0.23074 -1.43886,1.65707 -1.52742,1.68023 -0.0491,0.0128 -0.14265,0.004 -0.20789,-0.0206 z m 2.50334,-0.34027 c -0.0593,-0.0656 -0.0988,-0.20213 -0.11229,-0.38817 -0.0182,-0.25172 -0.005,-0.30491 0.10436,-0.43248 l 0.12512,-0.14546 h 1.76512 1.76512 l 0.11307,0.11307 c 0.15304,0.15303 0.16469,0.68815 0.0185,0.84969 -0.0928,0.10256 -0.12774,0.10449 -1.89102,0.10449 -1.74443,0 -1.79911,-0.003 -1.88799,-0.10114 z M 39.3322,108.2198 c -0.41862,-0.33623 -0.51248,-0.43618 -0.52447,-0.55845 -0.0293,-0.29862 0.2485,-0.44903 0.511,-0.27669 0.0819,0.0538 0.2509,0.17621 0.37554,0.27207 l 0.22662,0.1743 0.56761,-0.6478 c 0.31219,-0.35629 0.61787,-0.66755 0.6793,-0.69169 0.25343,-0.0996 0.53432,0.17466 0.4228,0.41281 -0.0695,0.14843 -1.37779,1.60861 -1.49976,1.67389 -0.16991,0.0909 -0.24095,0.0574 -0.75864,-0.35844 z m 3.00982,-0.14172 c -0.0719,-0.0794 -0.0946,-0.17934 -0.0946,-0.41673 0,-0.23738 0.0227,-0.33728 0.0946,-0.41672 0.0934,-0.10317 0.12183,-0.10449 2.24619,-0.10449 2.51644,0 2.35018,-0.0369 2.35018,0.52121 0,0.55809 0.16626,0.52122 -2.35018,0.52122 -2.12436,0 -2.15283,-0.001 -2.24619,-0.10449 z m -2.63032,-2.65652 c -0.10672,-0.0724 -0.35607,-0.26408 -0.55411,-0.42591 -0.29843,-0.24385 -0.36008,-0.31918 -0.36008,-0.43995 0,-0.17632 0.15494,-0.34429 0.31758,-0.34429 0.0686,0 0.26414,0.11354 0.46172,0.26814 l 0.34269,0.26814 0.56831,-0.64519 c 0.57031,-0.64748 0.66738,-0.73496 0.81549,-0.73496 0.11322,0 0.32366,0.22435 0.32366,0.34505 0,0.0911 -0.6701,0.89472 -1.29062,1.54785 -0.28768,0.30278 -0.38058,0.32675 -0.62464,0.16112 z m 2.65896,-0.20811 c -0.0808,-0.0654 -0.11792,-0.16022 -0.13586,-0.3469 -0.0298,-0.31018 0.0564,-0.54663 0.2222,-0.60968 0.0676,-0.0257 1.41144,-0.0455 3.08922,-0.0455 3.48511,0 3.20401,-0.0479 3.20401,0.54603 0,0.59439 0.28792,0.54604 -3.25138,0.54604 -2.83967,0 -3.02355,-0.005 -3.12819,-0.09 z m -2.65762,-3.01755 c -0.10746,-0.0729 -0.35741,-0.26499 -0.55545,-0.42681 -0.29843,-0.24386 -0.36008,-0.31918 -0.36008,-0.43996 0,-0.17601 0.15486,-0.34429 0.31681,-0.34429 0.0664,0 0.25677,0.10832 0.43435,0.24721 0.17385,0.13597 0.33843,0.2462 0.36573,0.24496 0.0273,-0.001 0.27302,-0.25938 0.54603,-0.57366 0.5682,-0.65405 0.68855,-0.76238 0.84697,-0.76238 0.12767,0 0.31956,0.21207 0.31956,0.35316 0,0.0907 -1.46126,1.78134 -1.53963,1.78134 -0.0224,0 -0.0718,0.0119 -0.10981,0.0265 -0.038,0.0146 -0.15701,-0.0331 -0.26448,-0.10608 z m 2.65762,-0.25866 c -0.0808,-0.0654 -0.11792,-0.16022 -0.13586,-0.3469 -0.0296,-0.30784 0.048,-0.5221 0.21691,-0.59906 0.17379,-0.0792 5.92048,-0.0792 6.09427,0 0.16891,0.077 0.24649,0.29122 0.21691,0.59906 -0.045,0.46876 0.19276,0.43693 -3.26404,0.43693 -2.83967,0 -3.02355,-0.005 -3.12819,-0.09 z m -1.31455,-5.451979 c -0.8401,-0.44594 -0.81895,-1.61876 0.0356,-1.97574 0.1092,-0.0456 0.33216,-0.0772 0.54604,-0.0774 0.66861,-5.9e-4 0.89957,-0.14195 0.95765,-0.58648 0.0511,-0.39085 0.17592,-0.66775 0.39873,-0.88436 0.50523,-0.49116 1.3029,-0.47355 1.79481,0.0396 0.19794,0.2065 0.29288,0.43094 0.33873,0.80075 0.0273,0.22066 0.0682,0.32018 0.17559,0.42755 0.16396,0.16395 0.32303,0.20318 0.82385,0.20318 0.42687,0 0.62523,0.0698 0.85707,0.30166 0.46994,0.46994 0.40411,1.26068 -0.13753,1.65208 l -0.21582,0.15594 -2.71292,0.0111 c -2.40007,0.01 -2.73009,0.002 -2.86183,-0.0679 z m 3.10546,-2.17694 c 0.1378,-0.0883 0.24521,-0.29101 0.24521,-0.46276 0,-0.25021 -0.26972,-0.50521 -0.53438,-0.50521 -0.24157,0 -0.43048,0.13724 -0.50666,0.36808 -0.0709,0.21478 -0.0276,0.38287 0.13913,0.5406 0.18723,0.17708 0.43763,0.19969 0.6567,0.0593 z"
       id="path14-1" />
    <path
       style="fill:#5a73c4;fill-opacity:1;stroke:none;stroke-width:1"
       d="m 52.04234,119.0151 c -0.3797,-0.0542 -1.0694,-0.26722 -1.3899,-0.4293 -1.27281,-0.64362 -2.24449,-1.89613 -2.53208,-3.26387 -0.10961,-0.52127 -0.10957,-1.41498 9e-5,-1.93593 0.30692,-1.45812 1.29648,-2.69095 2.66894,-3.32505 0.66377,-0.30669 1.10478,-0.39612 1.9479,-0.39505 0.7676,0.001 1.02578,0.0439 1.66293,0.2762 1.33717,0.4876 2.41893,1.66113 2.8636,3.10652 0.1231,0.40012 0.13452,0.50728 0.13645,1.28053 0.002,0.94319 -0.0643,1.28237 -0.39125,1.98992 -0.87432,1.89236 -2.89865,2.99122 -4.96668,2.69603 z m 0.65715,-2.21639 c 0.17906,-0.0977 3.17691,-3.4481 3.24526,-3.62691 0.16092,-0.42094 -0.10116,-0.90056 -0.53675,-0.98227 -0.39895,-0.0748 -0.45553,-0.0279 -1.82997,1.51978 -0.70283,0.79139 -1.28672,1.43889 -1.29754,1.43889 -0.0108,0 -0.29931,-0.22549 -0.64108,-0.50108 -0.73666,-0.59403 -0.81692,-0.63993 -1.11967,-0.64033 -0.4928,-5.9e-4 -0.83574,0.56066 -0.62506,1.02306 0.0601,0.13187 1.8591,1.61499 2.14985,1.77234 0.19415,0.10507 0.45858,0.10368 0.65496,-0.003 z m -14.79277,-0.31462 c -0.41289,-0.0973 -0.80676,-0.40488 -1.01137,-0.78985 -0.0889,-0.16731 -0.0928,-0.51088 -0.10527,-9.27906 l -0.0129,-9.105325 0.14471,-0.30924 c 0.17315,-0.37002 0.47279,-0.6762 0.74014,-0.7563 0.13036,-0.0391 0.67831,-0.0584 1.65357,-0.0583 l 1.45861,1.3e-4 0.002,0.40939 c 0.002,0.33353 0.0263,0.46161 0.13207,0.69111 0.18093,0.3926 0.48628,0.70528 0.87618,0.89723 l 0.3277,0.16133 h 2.80568 2.80567 l 0.30332,-0.14018 c 0.63424,-0.29311 1.02058,-0.88343 1.05343,-1.60962 l 0.0185,-0.40952 1.1242,4.4e-4 c 0.61832,1.4e-4 1.26941,0.0237 1.44687,0.0522 0.63631,0.10229 1.09335,0.40291 1.29677,0.85294 l 0.11795,0.26097 0.0136,5.589575 0.0136,5.58959 -0.60932,0.0309 c -0.33512,0.017 -0.74892,0.0622 -0.91956,0.1004 l -0.31024,0.0695 v -4.26283 -4.26285 h -6.35386 -6.35386 v 7.24737 7.24737 h 4.18388 4.18387 l 0.0632,0.47081 c 0.0347,0.25895 0.12632,0.6722 0.20349,0.91833 l 0.14031,0.44752 -4.62316,-0.005 c -2.54273,-0.003 -4.70727,-0.0248 -4.81007,-0.049 z m 2.99332,-3.72765 c -0.0652,-0.0241 -0.32689,-0.21138 -0.58142,-0.4161 -0.4966,-0.39943 -0.5548,-0.51344 -0.38551,-0.75514 0.12656,-0.18068 0.31741,-0.14191 0.67389,0.13689 0.17385,0.13597 0.33843,0.24605 0.36573,0.24463 0.0273,-9.9e-4 0.30364,-0.2916 0.61408,-0.64488 0.67865,-0.77229 0.83897,-0.84506 1.04854,-0.47596 0.0658,0.11585 0.0658,0.14418 0,0.25088 -0.14225,0.23074 -1.43886,1.65707 -1.52742,1.68023 -0.0491,0.0128 -0.14265,0.004 -0.20789,-0.0206 z m 2.50334,-0.34027 c -0.0593,-0.0656 -0.0988,-0.20213 -0.11229,-0.38817 -0.0182,-0.25173 -0.005,-0.30492 0.10436,-0.43248 l 0.12512,-0.14546 h 1.76512 1.76512 l 0.11307,0.11307 c 0.15304,0.15303 0.16469,0.68815 0.0185,0.84969 -0.0928,0.10256 -0.12774,0.10449 -1.89102,0.10449 -1.74443,0 -1.79911,-0.003 -1.88799,-0.10114 z m -3.01285,-3.13784 c -0.41862,-0.33623 -0.51248,-0.43618 -0.52447,-0.55845 -0.0293,-0.29862 0.2485,-0.44903 0.511,-0.27669 0.0819,0.0538 0.2509,0.1762 0.37554,0.27207 l 0.22662,0.1743 0.56761,-0.6478 c 0.31219,-0.35629 0.61787,-0.66755 0.6793,-0.69169 0.25343,-0.0996 0.53432,0.17466 0.4228,0.41281 -0.0695,0.14843 -1.37779,1.60861 -1.49976,1.67389 -0.16991,0.0909 -0.24095,0.0574 -0.75864,-0.35844 z m 3.00982,-0.14172 c -0.0719,-0.0794 -0.0946,-0.17934 -0.0946,-0.41673 0,-0.23738 0.0227,-0.33728 0.0946,-0.41672 0.0934,-0.10317 0.12183,-0.10449 2.24619,-0.10449 2.51644,0 2.35018,-0.0369 2.35018,0.52121 0,0.55809 0.16626,0.52122 -2.35018,0.52122 -2.12436,0 -2.15283,-0.001 -2.24619,-0.10449 z m -2.63032,-2.65652 c -0.10672,-0.0724 -0.35607,-0.26408 -0.55411,-0.42591 -0.29843,-0.24385 -0.36008,-0.31919 -0.36008,-0.43995 0,-0.17632 0.15494,-0.34429 0.31758,-0.34429 0.0686,0 0.26414,0.11354 0.46172,0.26814 l 0.34269,0.26814 0.56831,-0.64519 c 0.57031,-0.64748 0.66738,-0.73496 0.81549,-0.73496 0.11322,0 0.32366,0.22435 0.32366,0.34505 0,0.0911 -0.6701,0.89472 -1.29062,1.54785 -0.28768,0.30278 -0.38058,0.32674 -0.62464,0.16112 z m 2.65896,-0.20811 c -0.0808,-0.0654 -0.11792,-0.16022 -0.13586,-0.3469 -0.0298,-0.31018 0.0564,-0.54663 0.2222,-0.60968 0.0676,-0.0257 1.41144,-0.0455 3.08922,-0.0455 3.48511,0 3.20401,-0.0479 3.20401,0.54603 0,0.59439 0.28792,0.54604 -3.25138,0.54604 -2.83967,0 -3.02355,-0.005 -3.12819,-0.09 z m -2.65762,-3.01755 c -0.10746,-0.0729 -0.35741,-0.26499 -0.55545,-0.42681 -0.29843,-0.24386 -0.36008,-0.31918 -0.36008,-0.43996 0,-0.17601 0.15486,-0.34429 0.31681,-0.34429 0.0664,0 0.25677,0.10832 0.43435,0.24721 0.17385,0.13597 0.33843,0.2462 0.36573,0.24496 0.0273,-10e-4 0.27302,-0.25938 0.54603,-0.57366 0.5682,-0.65405 0.68855,-0.76238 0.84697,-0.76238 0.12767,0 0.31956,0.21207 0.31956,0.35316 0,0.0907 -1.46126,1.78134 -1.53963,1.78134 -0.0224,0 -0.0718,0.0119 -0.10981,0.0265 -0.038,0.0146 -0.15701,-0.0331 -0.26448,-0.10608 z m 2.65762,-0.25866 c -0.0808,-0.0654 -0.11792,-0.16022 -0.13586,-0.3469 -0.0296,-0.30784 0.048,-0.5221 0.21691,-0.59906 0.17379,-0.0792 5.92048,-0.0792 6.09427,0 0.16891,0.077 0.24649,0.29122 0.21691,0.59906 -0.045,0.46876 0.19276,0.43693 -3.26404,0.43693 -2.83967,0 -3.02355,-0.005 -3.12819,-0.09 z m -1.31455,-5.451985 c -0.8401,-0.44594 -0.81895,-1.61876 0.0356,-1.97574 0.1092,-0.0456 0.33216,-0.0772 0.54604,-0.0774 0.66861,-5.9e-4 0.89957,-0.14195 0.95765,-0.58648 0.0511,-0.39085 0.17592,-0.66775 0.39873,-0.88436 0.50523,-0.49116 1.3029,-0.47355 1.79481,0.0396 0.19794,0.2065 0.29288,0.43094 0.33873,0.80075 0.0273,0.22066 0.0682,0.32018 0.17559,0.42755 0.16396,0.16395 0.32303,0.20318 0.82385,0.20318 0.42687,0 0.62523,0.0698 0.85707,0.30166 0.46994,0.46994 0.40411,1.26068 -0.13753,1.65208 l -0.21582,0.15594 -2.71292,0.0111 c -2.40007,0.01 -2.73009,0.002 -2.86183,-0.0679 z m 3.10546,-2.17694 c 0.1378,-0.0883 0.24521,-0.29101 0.24521,-0.46276 0,-0.25021 -0.26972,-0.50521 -0.53438,-0.50521 -0.24157,0 -0.43048,0.13724 -0.50666,0.36808 -0.0709,0.21478 -0.0276,0.38287 0.13913,0.5406 0.18723,0.17708 0.43763,0.19969 0.6567,0.0593 z"
       id="path14" />
  </g>
</svg>
