<?xml version="1.0" encoding="UTF-8" standalone="no"?>
<!-- Created with Inkscape (http://www.inkscape.org/) -->

<svg
   width="46.530605mm"
   height="26.458923mm"
   viewBox="0 0 46.530606 26.458923"
   version="1.1"
   id="svg1"
   inkscape:version="1.4 (86a8ad7, 2024-10-11)"
   sodipodi:docname="icon-truck-container.svg"
   xmlns:inkscape="http://www.inkscape.org/namespaces/inkscape"
   xmlns:sodipodi="http://sodipodi.sourceforge.net/DTD/sodipodi-0.dtd"
   xmlns="http://www.w3.org/2000/svg"
   xmlns:svg="http://www.w3.org/2000/svg">
  <sodipodi:namedview
     id="namedview1"
     pagecolor="#ffffff"
     bordercolor="#000000"
     borderopacity="0.25"
     inkscape:showpageshadow="2"
     inkscape:pageopacity="0.0"
     inkscape:pagecheckerboard="0"
     inkscape:deskcolor="#d1d1d1"
     inkscape:document-units="mm"
     inkscape:zoom="0.61112514"
     inkscape:cx="-138.26955"
     inkscape:cy="-114.54283"
     inkscape:window-width="1059"
     inkscape:window-height="922"
     inkscape:window-x="433"
     inkscape:window-y="0"
     inkscape:window-maximized="0"
     inkscape:current-layer="layer1" />
  <defs
     id="defs1" />
  <g
     inkscape:label="Capa 1"
     inkscape:groupmode="layer"
     id="layer1"
     transform="translate(-141.55211,-179.12291)">
    <path
       style="fill:#ccdaf4;fill-opacity:1;stroke:none;stroke-width:1"
       d="m 146.03701,204.39714 c -0.95395,-0.30249 -1.6497,-0.90523 -2.06032,-1.78489 -0.21131,-0.45269 -0.24867,-0.64644 -0.24832,-1.28774 5.2e-4,-1.00243 0.28982,-1.66236 1.02841,-2.34617 2.33673,-2.1634 6.02343,0.10061 5.19982,3.19322 -0.44272,1.66238 -2.32505,2.73119 -3.91959,2.22558 z m 1.44276,-1.61066 c 0.42188,-0.17627 0.62362,-0.36317 0.83134,-0.77016 0.58075,-1.13787 -0.4597,-2.49226 -1.73131,-2.25371 -0.45712,0.0858 -0.87599,0.40959 -1.09785,0.84875 -0.23396,0.46312 -0.25299,0.85804 -0.0632,1.31222 0.18401,0.44039 0.37336,0.63845 0.7959,0.83248 0.4362,0.2003 0.83558,0.20991 1.26514,0.0304 z m 6.44232,1.60634 c -0.86766,-0.27116 -1.65829,-0.94556 -1.99142,-1.69866 -0.74356,-1.68095 -0.0633,-3.50864 1.59522,-4.28614 0.42879,-0.201 0.62331,-0.23626 1.3033,-0.23621 0.68049,5e-5 0.87448,0.0353 1.3052,0.23714 0.6465,0.30297 1.26452,0.92169 1.56418,1.56596 0.34407,0.73976 0.37959,1.75053 0.087,2.47499 -0.27028,0.66915 -0.61537,1.10576 -1.18653,1.50121 -0.76001,0.52619 -1.83763,0.70401 -2.67692,0.44171 z m 1.81828,-1.79426 c 0.41853,-0.33437 0.64268,-0.76884 0.64286,-1.24607 2.5e-4,-0.68738 -0.28439,-1.13853 -0.92583,-1.46738 -1.04742,-0.537 -2.39748,0.42774 -2.237,1.59854 0.16915,1.23408 1.5861,1.86098 2.51997,1.11491 z m 21.47993,1.78307 c -1.36399,-0.4356 -2.27754,-1.66887 -2.2747,-3.07079 0.004,-1.81798 1.55423,-3.27496 3.37023,-3.16685 1.15337,0.0687 2.2386,0.81849 2.72521,1.88297 0.20953,0.45837 0.24807,0.65993 0.24807,1.29755 0,0.63762 -0.0385,0.83918 -0.24807,1.29754 -0.65236,1.42706 -2.37613,2.22091 -3.82074,1.75958 z m 1.63464,-1.65837 c 1.55591,-0.78602 0.8776,-3.1059 -0.86943,-2.97355 -0.87165,0.066 -1.47866,0.78272 -1.42047,1.67713 0.0399,0.61338 0.35612,1.07919 0.90037,1.32634 0.48712,0.22121 0.91048,0.21209 1.38953,-0.0299 z m -37.12521,-2.19804 c -0.15458,-0.15458 -0.17762,-0.29604 -0.17762,-1.09037 0,-1.3179 -0.011,-1.3075 1.38914,-1.3075 h 1.11263 l -0.36163,0.41084 c -0.4026,0.45737 -0.74285,1.1168 -0.90165,1.74747 l -0.10505,0.41718 h -0.3891 c -0.27069,0 -0.44316,-0.0541 -0.56672,-0.17762 z m 17.28921,0.11101 c -0.0215,-0.0366 -0.0688,-0.20648 -0.10507,-0.37744 -0.10303,-0.48618 -0.55159,-1.30889 -0.94828,-1.73925 l -0.36151,-0.39219 h 7.24932 7.24932 v -7.50885 c 0,-8.32773 -0.0291,-7.91849 0.58031,-8.1731 0.4545,-0.1899 5.56308,-0.18185 6.29936,0.01 0.72785,0.18958 1.34732,0.54201 1.86811,1.06279 0.41523,0.41524 3.20684,4.45003 3.8365,5.54502 0.53604,0.93218 0.55959,1.15556 0.55959,5.30845 v 3.75576 h 0.74985 c 0.98473,0 1.02635,0.053 1.02635,1.30751 0,1.34457 0.15225,1.26798 -2.52054,1.26798 h -2.1653 l -0.10337,-0.41053 c -0.23079,-0.91654 -0.83634,-1.81404 -1.60647,-2.38097 -1.24559,-0.91696 -2.94529,-1.06848 -4.35032,-0.38782 -1.06848,0.51763 -2.0693,1.774 -2.26732,2.84628 l -0.0615,0.33304 h -7.44491 c -4.0947,0 -7.46254,-0.03 -7.48411,-0.0666 z m 22.69046,-11.0928 c 0.0893,-0.0808 0.16241,-0.23386 0.16241,-0.34005 0,-0.2572 -2.55849,-3.87275 -2.84199,-4.01618 -0.15845,-0.0802 -0.77622,-0.11266 -2.1594,-0.1136 -1.89601,-0.001 -2.21595,0.0389 -2.39067,0.30062 -0.0359,0.0537 -0.0659,0.97379 -0.0666,2.04454 -0.001,1.68816 0.0182,1.96841 0.14562,2.10924 0.13754,0.15198 0.36655,0.16241 3.5676,0.16241 3.05831,0 3.43783,-0.0156 3.58304,-0.14698 z m -31.09099,9.77904 c -0.11773,-0.22191 -0.37083,-0.58159 -0.56246,-0.79929 l -0.34842,-0.39583 h 1.11973 1.11974 l -0.36369,0.4601 c -0.20003,0.25306 -0.44156,0.61274 -0.53673,0.79929 -0.0952,0.18655 -0.18229,0.33919 -0.19359,0.33919 -0.0113,0 -0.11686,-0.18156 -0.23458,-0.40346 z m -7.65667,-2.94054 c -0.10075,-0.12137 -0.12651,-1.46523 -0.14853,-7.74866 -0.0147,-4.18101 -0.002,-7.80963 0.028,-8.0636 0.0669,-0.56515 0.33426,-0.98092 0.80053,-1.24501 l 0.35261,-0.19971 12.68047,-0.002 c 10.57223,-0.001 12.72798,0.0189 12.96625,0.12081 0.3456,0.14787 0.72885,0.5424 0.85739,0.88262 0.0642,0.16983 0.0945,2.79273 0.0945,8.17895 0,7.56864 -0.007,7.93562 -0.16241,8.07592 -0.14963,0.13542 -1.23155,0.14698 -13.75466,0.14698 -12.53407,0 -13.60174,-0.0114 -13.71414,-0.14684 z m 3.77941,-1.76891 c 0.12434,-0.12435 0.13956,-0.85219 0.13956,-6.67596 0,-5.95755 -0.013,-6.55078 -0.14698,-6.6988 -0.18238,-0.20153 -0.36762,-0.20647 -0.57871,-0.0154 -0.15455,0.13986 -0.16241,0.46429 -0.16241,6.6988 0,5.8378 0.0152,6.56704 0.13955,6.69139 0.0768,0.0768 0.21378,0.13956 0.3045,0.13956 0.0907,0 0.22773,-0.0628 0.30449,-0.13956 z m 4.17406,0 c 0.12435,-0.12435 0.13956,-0.85219 0.13956,-6.67596 0,-5.95755 -0.013,-6.55078 -0.14698,-6.6988 -0.18238,-0.20153 -0.36762,-0.20647 -0.57871,-0.0154 -0.15454,0.13986 -0.16241,0.46429 -0.16241,6.6988 0,5.8378 0.0152,6.56704 0.13956,6.69139 0.0768,0.0768 0.21378,0.13956 0.30449,0.13956 0.0907,0 0.22774,-0.0628 0.30449,-0.13956 z m 4.17407,0 c 0.12434,-0.12435 0.13956,-0.85219 0.13956,-6.67596 0,-5.95755 -0.013,-6.55078 -0.14698,-6.6988 -0.18238,-0.20153 -0.36762,-0.20647 -0.57871,-0.0154 -0.15455,0.13986 -0.16241,0.46429 -0.16241,6.6988 0,5.8378 0.0152,6.56704 0.13956,6.69139 0.0768,0.0768 0.21377,0.13956 0.30449,0.13956 0.0907,0 0.22773,-0.0628 0.30449,-0.13956 z m 4.17406,0 c 0.12435,-0.12435 0.13956,-0.85219 0.13956,-6.67596 0,-5.95755 -0.013,-6.55078 -0.14698,-6.6988 -0.18238,-0.20153 -0.36761,-0.20647 -0.57871,-0.0154 -0.15454,0.13986 -0.1624,0.46429 -0.1624,6.6988 0,5.8378 0.0152,6.56704 0.13955,6.69139 0.0768,0.0768 0.21378,0.13956 0.30449,0.13956 0.0907,0 0.22774,-0.0628 0.30449,-0.13956 z m 4.17407,0 c 0.12434,-0.12435 0.13956,-0.85219 0.13956,-6.67596 0,-5.95755 -0.013,-6.55078 -0.14698,-6.6988 -0.18238,-0.20153 -0.36762,-0.20647 -0.57871,-0.0154 -0.15454,0.13986 -0.16241,0.46429 -0.16241,6.6988 0,5.8378 0.0152,6.56704 0.13956,6.69139 0.0768,0.0768 0.21378,0.13956 0.30449,0.13956 0.0907,0 0.22773,-0.0628 0.30449,-0.13956 z m 4.17407,0 c 0.12434,-0.12435 0.13956,-0.85219 0.13956,-6.67596 0,-5.95755 -0.013,-6.55078 -0.14698,-6.6988 -0.18238,-0.20153 -0.36762,-0.20647 -0.57871,-0.0154 -0.15455,0.13986 -0.16241,0.46429 -0.16241,6.6988 0,5.8378 0.0152,6.56704 0.13955,6.69139 0.0768,0.0768 0.21378,0.13956 0.30449,0.13956 0.0907,0 0.22774,-0.0628 0.3045,-0.13956 z"
       id="path15-6" />
    <path
       style="fill:#5a73c4;fill-opacity:1;stroke:none;stroke-width:1"
       d="m 147.09534,205.45566 c -0.95395,-0.30249 -1.6497,-0.90523 -2.06032,-1.78489 -0.21131,-0.45269 -0.24867,-0.64644 -0.24832,-1.28774 5.2e-4,-1.00243 0.28982,-1.66236 1.02841,-2.34617 2.33673,-2.1634 6.02343,0.10061 5.19982,3.19322 -0.44272,1.66238 -2.32505,2.73119 -3.91959,2.22558 z m 1.44276,-1.61066 c 0.42188,-0.17627 0.62362,-0.36317 0.83134,-0.77016 0.58075,-1.13787 -0.4597,-2.49226 -1.73131,-2.25371 -0.45712,0.0858 -0.87599,0.40959 -1.09785,0.84875 -0.23396,0.46312 -0.25299,0.85804 -0.0632,1.31222 0.18401,0.44039 0.37336,0.63845 0.7959,0.83248 0.4362,0.2003 0.83558,0.20991 1.26514,0.0304 z m 6.44232,1.60634 c -0.86766,-0.27116 -1.65829,-0.94556 -1.99142,-1.69866 -0.74356,-1.68095 -0.0633,-3.50864 1.59522,-4.28614 0.42879,-0.201 0.62331,-0.23626 1.3033,-0.23621 0.68049,5e-5 0.87448,0.0353 1.3052,0.23714 0.6465,0.30297 1.26452,0.92169 1.56418,1.56596 0.34407,0.73976 0.37959,1.75053 0.087,2.47499 -0.27028,0.66915 -0.61537,1.10576 -1.18653,1.50121 -0.76001,0.52619 -1.83763,0.70401 -2.67692,0.44171 z m 1.81828,-1.79426 c 0.41853,-0.33437 0.64268,-0.76884 0.64286,-1.24607 2.5e-4,-0.68738 -0.28439,-1.13853 -0.92583,-1.46738 -1.04742,-0.537 -2.39748,0.42774 -2.237,1.59854 0.16915,1.23408 1.5861,1.86098 2.51997,1.11491 z m 21.47993,1.78307 c -1.36399,-0.4356 -2.27754,-1.66887 -2.2747,-3.07079 0.004,-1.81798 1.55423,-3.27496 3.37023,-3.16685 1.15337,0.0687 2.2386,0.81849 2.72521,1.88297 0.20953,0.45837 0.24807,0.65993 0.24807,1.29755 0,0.63762 -0.0385,0.83918 -0.24807,1.29754 -0.65236,1.42706 -2.37613,2.22091 -3.82074,1.75958 z m 1.63464,-1.65837 c 1.55591,-0.78602 0.8776,-3.1059 -0.86943,-2.97355 -0.87165,0.066 -1.47866,0.78272 -1.42047,1.67713 0.0399,0.61338 0.35612,1.07919 0.90037,1.32634 0.48712,0.22121 0.91048,0.21209 1.38953,-0.0299 z m -37.12521,-2.19804 c -0.15458,-0.15458 -0.17762,-0.29604 -0.17762,-1.09037 0,-1.3179 -0.011,-1.3075 1.38914,-1.3075 h 1.11263 l -0.36163,0.41084 c -0.4026,0.45737 -0.74285,1.1168 -0.90165,1.74747 l -0.10505,0.41718 h -0.3891 c -0.27069,0 -0.44316,-0.0541 -0.56672,-0.17762 z m 17.28921,0.11101 c -0.0215,-0.0366 -0.0688,-0.20648 -0.10507,-0.37744 -0.10303,-0.48618 -0.55159,-1.30889 -0.94828,-1.73925 l -0.36151,-0.39219 h 7.24932 7.24932 v -7.50885 c 0,-8.32773 -0.0291,-7.91849 0.58031,-8.1731 0.4545,-0.1899 5.56308,-0.18185 6.29936,0.01 0.72785,0.18958 1.34732,0.54201 1.86811,1.06279 0.41523,0.41524 3.20684,4.45003 3.8365,5.54502 0.53604,0.93218 0.55959,1.15556 0.55959,5.30845 v 3.75576 h 0.74985 c 0.98473,0 1.02635,0.053 1.02635,1.30751 0,1.34457 0.15225,1.26798 -2.52054,1.26798 h -2.1653 l -0.10337,-0.41053 c -0.23079,-0.91654 -0.83634,-1.81404 -1.60647,-2.38097 -1.24559,-0.91696 -2.94529,-1.06848 -4.35032,-0.38782 -1.06848,0.51763 -2.0693,1.774 -2.26732,2.84628 l -0.0615,0.33304 h -7.44491 c -4.0947,0 -7.46254,-0.03 -7.48411,-0.0666 z m 22.69046,-11.0928 c 0.0893,-0.0808 0.16241,-0.23386 0.16241,-0.34005 0,-0.2572 -2.55849,-3.87275 -2.84199,-4.01618 -0.15845,-0.0802 -0.77622,-0.11266 -2.1594,-0.1136 -1.89601,-10e-4 -2.21595,0.0389 -2.39067,0.30062 -0.0359,0.0537 -0.0659,0.97379 -0.0666,2.04454 -0.001,1.68816 0.0182,1.96841 0.14562,2.10924 0.13754,0.15198 0.36655,0.16241 3.5676,0.16241 3.05831,0 3.43783,-0.0156 3.58304,-0.14698 z m -31.09099,9.77904 c -0.11773,-0.22191 -0.37083,-0.58159 -0.56246,-0.79929 l -0.34842,-0.39583 h 1.11973 1.11974 l -0.36369,0.4601 c -0.20003,0.25306 -0.44156,0.61274 -0.53673,0.79929 -0.0952,0.18655 -0.18229,0.33919 -0.19359,0.33919 -0.0113,0 -0.11686,-0.18156 -0.23458,-0.40346 z m -7.65667,-2.94054 c -0.10075,-0.12137 -0.12651,-1.46523 -0.14853,-7.74866 -0.0147,-4.18101 -0.002,-7.80963 0.028,-8.0636 0.0669,-0.56515 0.33426,-0.98092 0.80053,-1.24501 l 0.35261,-0.19971 12.68047,-0.002 c 10.57223,-10e-4 12.72798,0.0189 12.96625,0.12081 0.3456,0.14787 0.72885,0.5424 0.85739,0.88262 0.0642,0.16983 0.0945,2.79273 0.0945,8.17895 0,7.56864 -0.007,7.93562 -0.16241,8.07592 -0.14963,0.13542 -1.23155,0.14698 -13.75466,0.14698 -12.53407,0 -13.60174,-0.0114 -13.71414,-0.14684 z m 3.77941,-1.76891 c 0.12434,-0.12435 0.13956,-0.85219 0.13956,-6.67596 0,-5.95755 -0.013,-6.55078 -0.14698,-6.6988 -0.18238,-0.20153 -0.36762,-0.20647 -0.57871,-0.0154 -0.15455,0.13986 -0.16241,0.46429 -0.16241,6.6988 0,5.8378 0.0152,6.56704 0.13955,6.69139 0.0768,0.0768 0.21378,0.13956 0.3045,0.13956 0.0907,0 0.22773,-0.0628 0.30449,-0.13956 z m 4.17406,0 c 0.12435,-0.12435 0.13956,-0.85219 0.13956,-6.67596 0,-5.95755 -0.013,-6.55078 -0.14698,-6.6988 -0.18238,-0.20153 -0.36762,-0.20647 -0.57871,-0.0154 -0.15454,0.13986 -0.16241,0.46429 -0.16241,6.6988 0,5.8378 0.0152,6.56704 0.13956,6.69139 0.0768,0.0768 0.21378,0.13956 0.30449,0.13956 0.0907,0 0.22774,-0.0628 0.30449,-0.13956 z m 4.17407,0 c 0.12434,-0.12435 0.13956,-0.85219 0.13956,-6.67596 0,-5.95755 -0.013,-6.55078 -0.14698,-6.6988 -0.18238,-0.20153 -0.36762,-0.20647 -0.57871,-0.0154 -0.15455,0.13986 -0.16241,0.46429 -0.16241,6.6988 0,5.8378 0.0152,6.56704 0.13956,6.69139 0.0768,0.0768 0.21377,0.13956 0.30449,0.13956 0.0907,0 0.22773,-0.0628 0.30449,-0.13956 z m 4.17406,0 c 0.12435,-0.12435 0.13956,-0.85219 0.13956,-6.67596 0,-5.95755 -0.013,-6.55078 -0.14698,-6.6988 -0.18238,-0.20153 -0.36761,-0.20647 -0.57871,-0.0154 -0.15454,0.13986 -0.1624,0.46429 -0.1624,6.6988 0,5.8378 0.0152,6.56704 0.13955,6.69139 0.0768,0.0768 0.21378,0.13956 0.30449,0.13956 0.0907,0 0.22774,-0.0628 0.30449,-0.13956 z m 4.17407,0 c 0.12434,-0.12435 0.13956,-0.85219 0.13956,-6.67596 0,-5.95755 -0.013,-6.55078 -0.14698,-6.6988 -0.18238,-0.20153 -0.36762,-0.20647 -0.57871,-0.0154 -0.15454,0.13986 -0.16241,0.46429 -0.16241,6.6988 0,5.8378 0.0152,6.56704 0.13956,6.69139 0.0768,0.0768 0.21378,0.13956 0.30449,0.13956 0.0907,0 0.22773,-0.0628 0.30449,-0.13956 z m 4.17407,0 c 0.12434,-0.12435 0.13956,-0.85219 0.13956,-6.67596 0,-5.95755 -0.013,-6.55078 -0.14698,-6.6988 -0.18238,-0.20153 -0.36762,-0.20647 -0.57871,-0.0154 -0.15455,0.13986 -0.16241,0.46429 -0.16241,6.6988 0,5.8378 0.0152,6.56704 0.13955,6.69139 0.0768,0.0768 0.21378,0.13956 0.30449,0.13956 0.0907,0 0.22774,-0.0628 0.3045,-0.13956 z"
       id="path15" />
  </g>
</svg>
