<?xml version="1.0" encoding="UTF-8" standalone="no"?>
<!-- Created with Inkscape (http://www.inkscape.org/) -->

<svg
   width="28.276396mm"
   height="26.458118mm"
   viewBox="0 0 28.276395 26.458118"
   version="1.1"
   id="svg1"
   inkscape:version="1.4 (86a8ad7, 2024-10-11)"
   sodipodi:docname="icon-parcel-ok.svg"
   xmlns:inkscape="http://www.inkscape.org/namespaces/inkscape"
   xmlns:sodipodi="http://sodipodi.sourceforge.net/DTD/sodipodi-0.dtd"
   xmlns="http://www.w3.org/2000/svg"
   xmlns:svg="http://www.w3.org/2000/svg">
  <sodipodi:namedview
     id="namedview1"
     pagecolor="#ffffff"
     bordercolor="#000000"
     borderopacity="0.25"
     inkscape:showpageshadow="2"
     inkscape:pageopacity="0.0"
     inkscape:pagecheckerboard="0"
     inkscape:deskcolor="#d1d1d1"
     inkscape:document-units="mm"
     inkscape:zoom="0.61112514"
     inkscape:cx="278.9936"
     inkscape:cy="224.17667"
     inkscape:window-width="1059"
     inkscape:window-height="922"
     inkscape:window-x="433"
     inkscape:window-y="0"
     inkscape:window-maximized="0"
     inkscape:current-layer="layer1" />
  <defs
     id="defs1" />
  <g
     inkscape:label="Capa 1"
     inkscape:groupmode="layer"
     id="layer1"
     transform="translate(-31.220924,-89.693742)">
    <path
       style="fill:#ccdaf4;fill-opacity:1;stroke:none;stroke-width:1"
       d="m 35.40197,115.01998 c -0.33082,-0.12259 -0.59006,-0.33435 -0.75151,-0.61387 -0.0886,-0.15334 -0.65064,-2.22752 -1.75918,-6.49176 -0.89596,-3.44654 -1.64339,-6.37134 -1.66097,-6.49958 -0.0707,-0.51547 0.26589,-1.13179 0.74453,-1.3635 0.18288,-0.0885 1.76258,-0.532756 1.90389,-0.535396 0.0182,-3.1e-4 0.048,0.0922 0.0661,0.20564 0.0469,0.293086 0.33682,0.695716 0.63171,0.877176 0.19235,0.11837 0.33696,0.16103 0.61218,0.18058 0.32639,0.0232 0.53331,-0.0196 2.19684,-0.45476 1.01009,-0.2642 1.90114,-0.505386 1.98013,-0.535966 0.2137,-0.0827 0.56742,-0.42293 0.69553,-0.6689 0.12037,-0.23112 0.15639,-0.75801 0.0732,-1.07117 l -0.0432,-0.1626 0.8778,-0.22334 c 0.48279,-0.12284 0.99388,-0.22281 1.13576,-0.22217 0.46136,0.002 0.97031,0.32105 1.18904,0.74517 0.10177,0.19734 3.33116,12.539006 3.38631,12.941396 0.0634,0.46236 -0.1817,0.9683 -0.60995,1.25921 -0.21579,0.14659 -0.86167,0.32782 -5.06487,1.4212 -2.64964,0.68926 -4.9373,1.26521 -5.08369,1.27989 -0.1804,0.0181 -0.34785,-0.004 -0.5197,-0.0673 z m 5.80302,-2.70422 c 3.21255,-0.83488 4.05892,-1.07232 4.05877,-1.13865 -1.6e-4,-0.0802 -2.75718,-10.71465 -2.78232,-10.73215 -0.0266,-0.0185 -9.38327,2.43431 -9.41393,2.46785 -0.0181,0.0198 0.5855,2.40743 1.34127,5.30594 0.75577,2.8985 1.38708,5.32087 1.40291,5.38304 0.0288,0.11299 0.0291,0.11296 0.68156,-0.0591 0.35902,-0.0947 2.4793,-0.64679 4.71174,-1.22695 z m -4.92067,-0.54565 c -0.16367,-0.10407 -0.2326,-0.59047 -0.0993,-0.70106 0.095,-0.0789 5.10058,-1.38641 5.30745,-1.38641 0.16118,0 0.27345,0.13047 0.333,0.38702 0.0462,0.19922 -0.0387,0.33843 -0.2474,0.40517 -0.30249,0.0968 -5.09696,1.33714 -5.16518,1.33629 -0.0359,-4.8e-4 -0.0937,-0.0189 -0.12852,-0.041 z m -0.73799,-2.59147 c -0.11152,-0.26691 -0.0993,-0.49179 0.0304,-0.56124 0.0592,-0.0317 1.39462,-0.39289 2.9677,-0.80273 2.25866,-0.58846 2.88477,-0.73397 2.97723,-0.69193 0.0741,0.0337 0.13927,0.13563 0.17747,0.27749 0.0816,0.30302 0.01,0.4513 -0.25226,0.52042 -2.75305,0.72642 -5.57419,1.44259 -5.68264,1.44259 -0.11035,0 -0.15748,-0.0399 -0.21793,-0.1846 z m -0.46149,-2.00131 c -0.11021,-0.0642 -0.22016,-0.43856 -0.17272,-0.58803 0.0187,-0.0589 0.0858,-0.12986 0.14914,-0.15768 0.16516,-0.0725 7.05197,-1.85929 7.16645,-1.85929 0.12582,0 0.18965,0.085 0.27187,0.36193 0.062,0.20883 0.0587,0.23813 -0.0379,0.33473 -0.0778,0.0778 -1.05041,0.35202 -3.66893,1.0344 -1.95969,0.51068 -3.57505,0.92825 -3.58968,0.92792 -0.0146,-3.1e-4 -0.0678,-0.0246 -0.1182,-0.054 z m -0.63669,-2.45861 c -0.0799,-0.0639 -0.2033,-0.36147 -0.2033,-0.49017 0,-0.19146 0.21524,-0.25906 3.73814,-1.17396 2.87502,-0.74665 3.62653,-0.92474 3.71115,-0.87946 0.0584,0.0312 0.13287,0.15623 0.1656,0.27777 0.0832,0.30902 0.009,0.44752 -0.27976,0.52541 -1.02673,0.27653 -6.94821,1.80659 -6.99225,1.80675 -0.031,1.1e-4 -0.0938,-0.0298 -0.13958,-0.0663 z m 10.92227,9.11095 c 0.97423,-0.2661 1.27707,-0.41314 1.68132,-0.81634 0.5717,-0.57023 0.84827,-1.38513 0.72003,-2.12153 -0.13208,-0.7585 -3.31203,-12.845286 -3.46681,-13.177146 -0.19191,-0.41147 -0.71054,-0.94604 -1.09045,-1.12396 -0.74377,-0.34834 -1.17064,-0.35245 -2.46111,-0.0237 l -0.97061,0.24727 -0.27555,-0.11854 c -0.19544,-0.0841 -0.38489,-0.11922 -0.65159,-0.12089 l -0.37603,-0.002 -0.23111,-0.25704 c -0.14413,-0.16031 -0.3647,-0.32276 -0.58612,-0.43167 -0.33295,-0.16378 -0.38981,-0.17464 -0.91479,-0.17464 -0.49591,0 -0.59449,0.0163 -0.86415,0.14267 -0.58796,0.27558 -1.1161,0.93646 -1.19223,1.4919 -0.0298,0.21737 -0.0506,0.24298 -0.28406,0.3501 -0.13855,0.0636 -0.36536,0.23685 -0.50402,0.38508 l -0.2521,0.26952 0.0221,-1.61241 c 0.0226,-1.64678 0.0331,-1.73927 0.25756,-2.2512 0.12576,-0.28686 0.37098,-0.61524 1.76892,-2.36884 1.56014,-1.95708 1.72171,-2.13796 2.05752,-2.30348 l 0.24062,-0.11859 h 8.0647 c 8.92152,0 8.20027,-0.0276 8.62828,0.33073 0.22964,0.19228 3.1502,3.84547 3.35293,4.19402 0.0851,0.14638 0.20892,0.42186 0.27506,0.61217 l 0.12026,0.34601 v 8.731226 8.73123 l -0.17352,0.35247 c -0.20195,0.41021 -0.49053,0.69173 -0.91136,0.88905 l -0.29916,0.14028 -6.22819,0.01 -6.22819,0.01 z m 11.06321,-20.515986 -0.49,-0.61217 h -3.5722 -3.57219 l -0.15689,-0.46578 c -0.0863,-0.25618 -0.16484,-0.49573 -0.17457,-0.53233 -0.014,-0.0527 0.66391,-0.0665 3.26001,-0.0665 2.20628,0 3.27769,-0.0179 3.27769,-0.0546 0,-0.1144 -0.76843,-1.00886 -0.93435,-1.0876 -0.15345,-0.0728 -1.05867,-0.0821 -8.00869,-0.0821 -7.07345,0 -7.85315,0.008 -8.01523,0.0852 -0.15017,0.0713 -0.98104,1.01171 -0.98104,1.11043 0,0.0158 1.46055,0.0287 3.24568,0.0287 h 3.24568 l -0.32158,0.53233 -0.32158,0.53232 h -3.36656 -3.36655 l -0.49,0.61217 -0.49,0.61217 h 10.86118 10.86119 z m -21.47278,6.871946 c -0.3715,-0.16182 -0.5728,-0.600336 -0.45542,-0.992106 0.0916,-0.3057 0.3165,-0.49883 0.70685,-0.60698 0.50554,-0.14006 0.57612,-0.2278 0.57719,-0.71746 10e-4,-0.49097 0.13229,-0.76549 0.45268,-0.94694 0.24828,-0.14062 0.69643,-0.16334 0.91982,-0.0466 0.20553,0.10737 0.41307,0.34445 0.51198,0.58485 0.14903,0.3622 0.3019,0.41269 0.8266,0.27306 0.38415,-0.10224 0.65349,-0.0411 0.89856,0.20398 0.15919,0.15919 0.18988,0.23052 0.21154,0.49166 0.03,0.3617 -0.0762,0.60671 -0.33109,0.76405 -0.17514,0.10811 -3.80519,1.068816 -4.0253,1.065316 -0.0721,-0.001 -0.20412,-0.0339 -0.29341,-0.0728 z m 1.99037,-2.086406 c 0.36054,-0.25253 0.18446,-0.76649 -0.2626,-0.76649 -0.15139,0 -0.3677,0.23585 -0.3677,0.40091 0,0.16278 0.2619,0.4508 0.40992,0.4508 0.0543,0 0.15346,-0.0384 0.22038,-0.0852 z"
       id="path13-3" />
    <path
       style="fill:#5a73c4;fill-opacity:1;stroke:none;stroke-width:1"
       d="m 36.4603,116.07851 c -0.33082,-0.12259 -0.59006,-0.33435 -0.75151,-0.61387 -0.0886,-0.15334 -0.65064,-2.22752 -1.75918,-6.49176 -0.89596,-3.44654 -1.64339,-6.37134 -1.66097,-6.49958 -0.0707,-0.51547 0.26589,-1.13179 0.74453,-1.3635 0.18288,-0.0885 1.76258,-0.53276 1.90389,-0.5354 0.0182,-3.1e-4 0.048,0.0922 0.0661,0.20564 0.0469,0.29309 0.33682,0.69572 0.63171,0.87718 0.19235,0.11837 0.33696,0.16103 0.61218,0.18058 0.32639,0.0232 0.53331,-0.0196 2.19684,-0.45476 1.01009,-0.2642 1.90114,-0.50539 1.98013,-0.53597 0.2137,-0.0827 0.56742,-0.42293 0.69553,-0.6689 0.12037,-0.231122 0.15639,-0.758012 0.0732,-1.071172 l -0.0432,-0.1626 0.8778,-0.22334 c 0.48279,-0.12284 0.99388,-0.22281 1.13576,-0.22217 0.46136,0.002 0.97031,0.32105 1.18904,0.74517 0.10177,0.19734 3.33116,12.539012 3.38631,12.941402 0.0634,0.46236 -0.1817,0.9683 -0.60995,1.25921 -0.21579,0.14659 -0.86167,0.32782 -5.06487,1.4212 -2.64964,0.68926 -4.9373,1.26521 -5.08369,1.27989 -0.1804,0.0181 -0.34785,-0.004 -0.5197,-0.0673 z m 5.80302,-2.70422 c 3.21255,-0.83488 4.05892,-1.07232 4.05877,-1.13865 -1.6e-4,-0.0802 -2.75718,-10.71465 -2.78232,-10.73215 -0.0266,-0.0185 -9.38327,2.43431 -9.41393,2.46785 -0.0181,0.0198 0.5855,2.40743 1.34127,5.30594 0.75577,2.8985 1.38708,5.32087 1.40291,5.38304 0.0288,0.11299 0.0291,0.11296 0.68156,-0.0591 0.35902,-0.0947 2.4793,-0.64679 4.71174,-1.22695 z m -4.92067,-0.54565 c -0.16367,-0.10407 -0.2326,-0.59047 -0.0993,-0.70106 0.095,-0.0789 5.10058,-1.38641 5.30745,-1.38641 0.16118,0 0.27345,0.13047 0.333,0.38702 0.0462,0.19922 -0.0387,0.33843 -0.2474,0.40517 -0.30249,0.0968 -5.09696,1.33714 -5.16518,1.33629 -0.0359,-4.8e-4 -0.0937,-0.0189 -0.12852,-0.041 z m -0.73799,-2.59147 c -0.11152,-0.26691 -0.0993,-0.49179 0.0304,-0.56124 0.0592,-0.0317 1.39462,-0.39289 2.9677,-0.80273 2.25866,-0.58846 2.88477,-0.73397 2.97723,-0.69193 0.0741,0.0337 0.13927,0.13563 0.17747,0.27749 0.0816,0.30302 0.01,0.4513 -0.25226,0.52042 -2.75305,0.72642 -5.57419,1.44259 -5.68264,1.44259 -0.11035,0 -0.15748,-0.0399 -0.21793,-0.1846 z m -0.46149,-2.00131 c -0.11021,-0.0642 -0.22016,-0.43856 -0.17272,-0.58803 0.0187,-0.0589 0.0858,-0.12986 0.14914,-0.15768 0.16516,-0.0725 7.05197,-1.85929 7.16645,-1.85929 0.12582,0 0.18965,0.085 0.27187,0.36193 0.062,0.20883 0.0587,0.23813 -0.0379,0.33473 -0.0778,0.0778 -1.05041,0.35202 -3.66893,1.0344 -1.95969,0.51068 -3.57505,0.92825 -3.58968,0.92792 -0.0146,-3.1e-4 -0.0678,-0.0246 -0.1182,-0.054 z m -0.63669,-2.45861 c -0.0799,-0.0639 -0.2033,-0.36147 -0.2033,-0.49017 0,-0.19146 0.21524,-0.25906 3.73814,-1.17396 2.87502,-0.74665 3.62653,-0.92474 3.71115,-0.87946 0.0584,0.0312 0.13287,0.15623 0.1656,0.27777 0.0832,0.30902 0.009,0.44752 -0.27976,0.52541 -1.02673,0.27653 -6.94821,1.80659 -6.99225,1.80675 -0.031,1.1e-4 -0.0938,-0.0298 -0.13958,-0.0663 z m 10.92227,9.11095 c 0.97423,-0.2661 1.27707,-0.41314 1.68132,-0.81634 0.5717,-0.57023 0.84827,-1.38513 0.72003,-2.12153 -0.13208,-0.7585 -3.31203,-12.845292 -3.46681,-13.177152 -0.19191,-0.41147 -0.71054,-0.94604 -1.09045,-1.12396 -0.74377,-0.34834 -1.17064,-0.35245 -2.46111,-0.0237 l -0.97061,0.24727 -0.27555,-0.11854 c -0.19544,-0.0841 -0.38489,-0.11922 -0.65159,-0.12089 l -0.37603,-0.002 -0.23111,-0.25704 c -0.14413,-0.16031 -0.3647,-0.32276 -0.58612,-0.43167 -0.33295,-0.16378 -0.38981,-0.17464 -0.91479,-0.17464 -0.49591,0 -0.59449,0.0163 -0.86415,0.14267 -0.58796,0.27558 -1.1161,0.93646 -1.19223,1.4919 -0.0298,0.21737 -0.0506,0.24298 -0.28406,0.3501 -0.13855,0.0636 -0.36536,0.23685 -0.50402,0.38508 l -0.2521,0.26952 0.0221,-1.61241 c 0.0226,-1.64678 0.0331,-1.73927 0.25756,-2.2512 0.12576,-0.28686 0.37098,-0.61524 1.76892,-2.36884 1.56014,-1.95708 1.72171,-2.13796 2.05752,-2.30348 l 0.24062,-0.11859 h 8.0647 c 8.92152,0 8.20027,-0.0276 8.62828,0.33073 0.22964,0.19228 3.1502,3.84547 3.35293,4.19402 0.0851,0.14638 0.20892,0.42186 0.27506,0.61217 l 0.12026,0.34601 v 8.731232 8.73123 l -0.17352,0.35247 c -0.20195,0.41021 -0.49053,0.69173 -0.91136,0.88905 l -0.29916,0.14028 -6.22819,0.01 -6.22819,0.01 z m 11.06321,-20.515992 -0.49,-0.61217 h -3.5722 -3.57219 l -0.15689,-0.46578 c -0.0863,-0.25618 -0.16484,-0.49573 -0.17457,-0.53233 -0.014,-0.0527 0.66391,-0.0665 3.26001,-0.0665 2.20628,0 3.27769,-0.0179 3.27769,-0.0546 0,-0.1144 -0.76843,-1.00886 -0.93435,-1.0876 -0.15345,-0.0728 -1.05867,-0.0821 -8.00869,-0.0821 -7.07345,0 -7.85315,0.008 -8.01523,0.0852 -0.15017,0.0713 -0.98104,1.01171 -0.98104,1.11043 0,0.0158 1.46055,0.0287 3.24568,0.0287 h 3.24568 l -0.32158,0.53233 -0.32158,0.53232 h -3.36656 -3.36655 l -0.49,0.61217 -0.49,0.61217 h 10.86118 10.86119 z m -21.47278,6.871952 c -0.3715,-0.16182 -0.5728,-0.60034 -0.45542,-0.99211 0.0916,-0.305702 0.3165,-0.498832 0.70685,-0.606982 0.50554,-0.14006 0.57612,-0.2278 0.57719,-0.71746 10e-4,-0.49097 0.13229,-0.76549 0.45268,-0.94694 0.24828,-0.14062 0.69643,-0.16334 0.91982,-0.0466 0.20553,0.10737 0.41307,0.34445 0.51198,0.58485 0.14903,0.3622 0.3019,0.41269 0.8266,0.27306 0.38415,-0.10224 0.65349,-0.0411 0.89856,0.20398 0.15919,0.15919 0.18988,0.23052 0.21154,0.49166 0.03,0.3617 -0.0762,0.606712 -0.33109,0.764052 -0.17514,0.10811 -3.80519,1.06882 -4.0253,1.06532 -0.0721,-0.001 -0.20412,-0.0339 -0.29341,-0.0728 z m 1.99037,-2.086412 c 0.36054,-0.25253 0.18446,-0.76649 -0.2626,-0.76649 -0.15139,0 -0.3677,0.23585 -0.3677,0.40091 0,0.16278 0.2619,0.4508 0.40992,0.4508 0.0543,0 0.15346,-0.0384 0.22038,-0.0852 z"
       id="path13" />
  </g>
</svg>
