<?xml version="1.0" encoding="UTF-8" standalone="no"?>
<!-- Created with Inkscape (http://www.inkscape.org/) -->

<svg
   width="19.321524mm"
   height="26.458542mm"
   viewBox="0 0 19.321524 26.458542"
   version="1.1"
   id="svg1"
   inkscape:version="1.4 (86a8ad7, 2024-10-11)"
   sodipodi:docname="icon-glass-broken.svg"
   xmlns:inkscape="http://www.inkscape.org/namespaces/inkscape"
   xmlns:sodipodi="http://sodipodi.sourceforge.net/DTD/sodipodi-0.dtd"
   xmlns="http://www.w3.org/2000/svg"
   xmlns:svg="http://www.w3.org/2000/svg">
  <sodipodi:namedview
     id="namedview1"
     pagecolor="#ffffff"
     bordercolor="#000000"
     borderopacity="0.25"
     inkscape:showpageshadow="2"
     inkscape:pageopacity="0.0"
     inkscape:pagecheckerboard="0"
     inkscape:deskcolor="#d1d1d1"
     inkscape:document-units="mm"
     inkscape:zoom="0.61112514"
     inkscape:cx="51.544271"
     inkscape:cy="-75.270999"
     inkscape:window-width="1059"
     inkscape:window-height="922"
     inkscape:window-x="433"
     inkscape:window-y="0"
     inkscape:window-maximized="0"
     inkscape:current-layer="layer1" />
  <defs
     id="defs1" />
  <g
     inkscape:label="Capa 1"
     inkscape:groupmode="layer"
     id="layer1"
     transform="translate(-91.281323,-168.53958)">
    <path
       style="fill:#ccdaf4;fill-opacity:1;stroke:none;stroke-width:0.999998"
       d="m 99.0243,193.89396 c -2.0086,-0.13756 -3.6516,-0.59182 -4.0716,-1.12578 -0.056,-0.0708 -0.098,-0.20075 -0.098,-0.29976 0,-0.61565 1.554,-1.15972 3.9352,-1.37777 0.3296,-0.0302 0.3376,-0.0343 0.4136,-0.21287 0.2974,-0.69834 0.446,-2.14602 0.2962,-2.88525 -0.047,-0.23049 -0.1044,-0.45545 -0.1282,-0.49991 -0.033,-0.062 -0.1802,-0.0945 -0.6295,-0.1392 -1.6697,-0.16623 -3.278,-0.69985 -4.4312,-1.47026 -1.6305,-1.08926 -2.6618,-2.63786 -2.9593,-4.44387 -0.331,-2.0096 0.5349,-6.03664 2.0491,-9.52924 l 0.095,-0.21948 0.1083,0.17512 c 0.6358,1.02873 2.9643,1.94563 5.3466,2.10534 0.2728,0.0183 0.5202,0.047 0.5498,0.0639 0.036,0.0207 -0.091,0.73479 -0.3935,2.20192 -0.2461,1.1942 -0.4308,2.18787 -0.4106,2.20817 0.02,0.0203 0.6072,0.0524 1.3041,0.0713 0.697,0.0189 1.2788,0.046 1.293,0.0602 0.014,0.0142 -0.2343,1.01299 -0.5521,2.21959 -0.3179,1.2066 -0.5716,2.19957 -0.564,2.20661 0.01,0.007 0.9,-1.39219 1.9829,-3.10941 l 1.969,-3.1222 h -1.1087 -1.1088 l 0.4841,-1.45203 0.484,-1.45203 0.5268,-0.10789 c 1.9115,-0.39148 3.1914,-1.04434 3.8216,-1.94927 0.046,-0.0666 0.093,-0.11128 0.1048,-0.0993 0.084,0.09 0.7443,1.79287 1.0432,2.69039 0.9033,2.71274 1.347,5.54782 1.1015,7.03833 -0.2975,1.80601 -1.3288,3.35461 -2.9593,4.44387 -1.1532,0.77041 -2.7615,1.30403 -4.4313,1.47026 -0.4492,0.0447 -0.5962,0.0772 -0.6294,0.1392 -0.024,0.0445 -0.082,0.26942 -0.1282,0.49991 -0.1481,0.73091 -0.035,1.90916 0.2657,2.77762 0.108,0.31138 0.01,0.27687 1.1278,0.3971 1.8651,0.20062 3.2515,0.75541 3.2515,1.30117 0,0.099 -0.043,0.22892 -0.098,0.29976 -0.6376,0.81053 -3.8199,1.33342 -6.8516,1.12578 z m 0.1351,-20.74858 c -2.843,-0.23794 -5.0497,-1.23831 -5.0497,-2.28927 0,-0.75515 1.3141,-1.57965 3.183,-1.99714 3.265,-0.72938 7.4856,-0.16026 8.9468,1.20642 0.2922,0.27327 0.4297,0.52873 0.4297,0.79827 0,0.95183 -1.846,1.88108 -4.3933,2.21155 -0.724,0.0939 -2.3856,0.13133 -3.1165,0.0702 z"
       id="path9-0" />
    <path
       style="fill:#5a73c4;fill-opacity:1;stroke:none;stroke-width:0.999998"
       d="m 100.0826,194.95248 c -2.0086,-0.13756 -3.6516,-0.59182 -4.0716,-1.12578 -0.056,-0.0708 -0.098,-0.20075 -0.098,-0.29976 0,-0.61565 1.554,-1.15972 3.9352,-1.37777 0.3296,-0.0302 0.3376,-0.0343 0.4136,-0.21287 0.2974,-0.69834 0.446,-2.14602 0.2962,-2.88525 -0.047,-0.23049 -0.1044,-0.45545 -0.1282,-0.49991 -0.033,-0.062 -0.1802,-0.0945 -0.6295,-0.1392 -1.6697,-0.16623 -3.278,-0.69985 -4.4312,-1.47026 -1.6305,-1.08926 -2.6618,-2.63786 -2.9593,-4.44387 -0.331,-2.0096 0.5349,-6.03664 2.0491,-9.52924 l 0.095,-0.21948 0.1083,0.17512 c 0.6358,1.02873 2.9643,1.94563 5.3466,2.10534 0.2728,0.0183 0.5202,0.047 0.5498,0.0639 0.036,0.0207 -0.091,0.73479 -0.3935,2.20192 -0.2461,1.1942 -0.4308,2.18787 -0.4106,2.20817 0.02,0.0203 0.6072,0.0524 1.3041,0.0713 0.697,0.0189 1.2788,0.046 1.293,0.0602 0.014,0.0142 -0.2343,1.01299 -0.5521,2.21959 -0.3179,1.2066 -0.5716,2.19957 -0.564,2.20661 0.01,0.007 0.9,-1.39219 1.9829,-3.10941 l 1.969,-3.1222 h -1.1087 -1.1088 l 0.4841,-1.45203 0.484,-1.45203 0.5268,-0.10789 c 1.9115,-0.39148 3.1914,-1.04434 3.8216,-1.94927 0.046,-0.0666 0.093,-0.11128 0.1048,-0.0993 0.084,0.09 0.7443,1.79287 1.0432,2.69039 0.9033,2.71274 1.347,5.54782 1.1015,7.03833 -0.2975,1.80601 -1.3288,3.35461 -2.9593,4.44387 -1.1532,0.77041 -2.7615,1.30403 -4.4313,1.47026 -0.4492,0.0447 -0.5962,0.0772 -0.6294,0.1392 -0.024,0.0445 -0.082,0.26942 -0.1282,0.49991 -0.1481,0.73091 -0.035,1.90916 0.2657,2.77762 0.108,0.31138 0.01,0.27687 1.1278,0.3971 1.8651,0.20062 3.2515,0.75541 3.2515,1.30117 0,0.099 -0.043,0.22892 -0.098,0.29976 -0.6376,0.81053 -3.8199,1.33342 -6.8516,1.12578 z m 0.1351,-20.74858 c -2.843,-0.23794 -5.0497,-1.23831 -5.0497,-2.28927 0,-0.75515 1.3141,-1.57965 3.183,-1.99714 3.265,-0.72938 7.4856,-0.16026 8.9468,1.20642 0.2922,0.27327 0.4297,0.52873 0.4297,0.79827 0,0.95183 -1.846,1.88108 -4.3933,2.21155 -0.724,0.0939 -2.3856,0.13133 -3.1165,0.0702 z"
       id="path9" />
  </g>
</svg>
