<?xml version="1.0" encoding="UTF-8" standalone="no"?>
<!-- Created with Inkscape (http://www.inkscape.org/) -->

<svg
   width="21.681473mm"
   height="26.458557mm"
   viewBox="0 0 21.681473 26.458557"
   version="1.1"
   id="svg1"
   inkscape:version="1.4 (86a8ad7, 2024-10-11)"
   sodipodi:docname="icon-document-ok.svg"
   xmlns:inkscape="http://www.inkscape.org/namespaces/inkscape"
   xmlns:sodipodi="http://sodipodi.sourceforge.net/DTD/sodipodi-0.dtd"
   xmlns="http://www.w3.org/2000/svg"
   xmlns:svg="http://www.w3.org/2000/svg">
  <sodipodi:namedview
     id="namedview1"
     pagecolor="#ffffff"
     bordercolor="#000000"
     borderopacity="0.25"
     inkscape:showpageshadow="2"
     inkscape:pageopacity="0.0"
     inkscape:pagecheckerboard="0"
     inkscape:deskcolor="#d1d1d1"
     inkscape:document-units="mm"
     inkscape:zoom="0.61112514"
     inkscape:cx="59.725902"
     inkscape:cy="65.453043"
     inkscape:window-width="1059"
     inkscape:window-height="922"
     inkscape:window-x="433"
     inkscape:window-y="0"
     inkscape:window-maximized="0"
     inkscape:current-layer="layer1" />
  <defs
     id="defs1" />
  <g
     inkscape:label="Capa 1"
     inkscape:groupmode="layer"
     id="layer1"
     transform="translate(-89.16467,-131.7625)">
    <path
       style="fill:#ccdaf4;fill-opacity:1;stroke:none;stroke-width:1"
       d="m 104.42984,157.11492 c -0.3797,-0.0542 -1.0694,-0.26722 -1.38991,-0.4293 -1.2728,-0.64362 -2.24448,-1.89613 -2.53207,-3.26387 -0.10961,-0.52128 -0.10957,-1.41499 9e-5,-1.93594 0.30692,-1.45811 1.29648,-2.69094 2.66894,-3.32505 0.66377,-0.30668 1.10478,-0.39612 1.9479,-0.39505 0.7676,10e-4 1.02578,0.0439 1.66293,0.2762 1.33716,0.48761 2.41893,1.66114 2.8636,3.10652 0.1231,0.40012 0.13452,0.50728 0.13645,1.28053 0.002,0.94319 -0.0643,1.28237 -0.39125,1.98992 -0.87432,1.89236 -2.89865,2.99122 -4.96668,2.69604 z m 0.65715,-2.21639 c 0.17906,-0.0977 3.17691,-3.44811 3.24526,-3.62692 0.16092,-0.42094 -0.10116,-0.90055 -0.53675,-0.98227 -0.39895,-0.0748 -0.45553,-0.0279 -1.82997,1.51978 -0.70283,0.79139 -1.28672,1.43889 -1.29754,1.43889 -0.0108,0 -0.29931,-0.22548 -0.64108,-0.50108 -0.73666,-0.59402 -0.81692,-0.63992 -1.11968,-0.64032 -0.49279,-5.9e-4 -0.83573,0.56067 -0.62505,1.02306 0.0601,0.13187 1.8591,1.61498 2.14985,1.77234 0.19415,0.10508 0.45858,0.10367 0.65496,-0.003 z m -14.79277,-0.31462 c -0.41289,-0.0973 -0.80677,-0.40489 -1.01137,-0.78986 -0.0889,-0.16731 -0.0928,-0.51087 -0.10528,-9.27906 l -0.0129,-9.10532 0.14471,-0.30924 c 0.17315,-0.37002 0.47279,-0.6762 0.74014,-0.7563 0.13036,-0.0391 0.67831,-0.0584 1.65357,-0.0583 l 1.45861,1.3e-4 0.002,0.4094 c 0.002,0.33352 0.0263,0.4616 0.13206,0.6911 0.18094,0.3926 0.48628,0.70528 0.87619,0.89723 l 0.3277,0.16133 h 2.80568 2.80567 l 0.30332,-0.14018 c 0.63424,-0.29311 1.02057,-0.88343 1.05343,-1.60962 l 0.0185,-0.40952 1.1242,4.4e-4 c 0.61832,1.4e-4 1.2694,0.0237 1.44687,0.0522 0.6363,0.10229 1.09335,0.40291 1.29677,0.85294 l 0.11795,0.26097 0.0136,5.58958 0.0136,5.58958 -0.60931,0.0309 c -0.33512,0.017 -0.74892,0.0622 -0.91956,0.1004 l -0.31024,0.0695 v -4.26284 -4.26285 h -6.35386 -6.35386 v 7.24737 7.24737 h 4.18388 4.18387 l 0.0632,0.47081 c 0.0347,0.25895 0.12632,0.6722 0.20349,0.91834 l 0.14031,0.44751 -4.62316,-0.005 c -2.54273,-0.003 -4.70727,-0.0248 -4.81007,-0.049 z m 1.85344,-4.09758 c -0.0718,-0.0912 -0.10288,-0.20317 -0.10288,-0.36997 0,-0.33449 0.0798,-0.48254 0.2936,-0.54463 0.11805,-0.0343 1.34336,-0.0467 3.63897,-0.0368 l 3.461,0.0149 0.11305,0.11307 c 0.15302,0.15304 0.16466,0.68817 0.0185,0.84969 -0.0945,0.1044 -0.0975,0.10449 -3.70695,0.10449 h -3.61239 z m 0.0659,-3.18341 c -0.19314,-0.12896 -0.23324,-0.66087 -0.0659,-0.87365 l 0.10288,-0.13079 h 3.96756 c 4.59352,0 4.16612,-0.0535 4.16612,0.52122 0,0.57469 0.4262,0.52133 -4.15731,0.52045 -2.17731,-4.4e-4 -3.98333,-0.0172 -4.01337,-0.0372 z m -0.0469,-2.96294 c -0.10269,-0.1027 -0.12184,-0.16937 -0.12184,-0.4242 0,-0.25482 0.0192,-0.3215 0.12184,-0.42419 l 0.12185,-0.12184 h 4.83661 c 5.62177,0 5.07098,-0.0593 5.07098,0.54603 0,0.60535 0.55079,0.54604 -5.07098,0.54604 h -4.83661 z m 0,-3.27621 c -0.0958,-0.0958 -0.12169,-0.17278 -0.12116,-0.35989 4.4e-4,-0.13092 0.0144,-0.2892 0.0311,-0.35172 0.0713,-0.26602 -0.0733,-0.25862 5.05144,-0.25862 3.41765,0 4.77505,0.0156 4.86378,0.0561 0.16891,0.077 0.24649,0.29122 0.21691,0.59906 -0.046,0.47823 0.43451,0.43693 -5.08364,0.43693 h -4.83661 z m 2.33532,-5.42017 c -0.8401,-0.44594 -0.81895,-1.61876 0.0356,-1.97574 0.1092,-0.0456 0.33216,-0.0772 0.54604,-0.0774 0.66861,-5.9e-4 0.89956,-0.14195 0.95765,-0.58648 0.0511,-0.39085 0.17592,-0.66775 0.39873,-0.88436 0.50523,-0.49116 1.30289,-0.47355 1.7948,0.0396 0.19795,0.2065 0.29289,0.43094 0.33874,0.80075 0.0274,0.22066 0.0682,0.32018 0.17559,0.42755 0.16396,0.16395 0.32303,0.20318 0.82385,0.20318 0.42687,0 0.62523,0.0698 0.85707,0.30166 0.46994,0.46994 0.40411,1.26068 -0.13754,1.65208 l -0.21581,0.15594 -2.71292,0.0111 c -2.40007,0.01 -2.73009,0.002 -2.86183,-0.0679 z m 3.10546,-2.17693 c 0.1378,-0.0883 0.2452,-0.29101 0.2452,-0.46277 0,-0.25021 -0.26971,-0.50521 -0.53437,-0.50521 -0.24157,0 -0.43048,0.13724 -0.50666,0.36808 -0.0709,0.21478 -0.0276,0.38287 0.13913,0.5406 0.18723,0.17708 0.43763,0.1997 0.6567,0.0593 z"
       id="path11-6" />
    <path
       style="fill:#5a73c4;fill-opacity:1;stroke:none;stroke-width:1"
       d="m 105.48817,158.17344 c -0.3797,-0.0542 -1.0694,-0.26722 -1.38991,-0.4293 -1.2728,-0.64362 -2.24448,-1.89613 -2.53207,-3.26387 -0.10961,-0.52128 -0.10957,-1.41499 9e-5,-1.93594 0.30692,-1.45811 1.29648,-2.69094 2.66894,-3.32505 0.66377,-0.30668 1.10478,-0.39612 1.9479,-0.39505 0.7676,0.001 1.02578,0.0439 1.66293,0.2762 1.33716,0.48761 2.41893,1.66114 2.8636,3.10652 0.1231,0.40012 0.13452,0.50728 0.13645,1.28053 0.002,0.94319 -0.0643,1.28237 -0.39125,1.98992 -0.87432,1.89236 -2.89865,2.99122 -4.96668,2.69604 z m 0.65715,-2.21639 c 0.17906,-0.0977 3.17691,-3.44811 3.24526,-3.62692 0.16092,-0.42094 -0.10116,-0.90055 -0.53675,-0.98227 -0.39895,-0.0748 -0.45553,-0.0279 -1.82997,1.51978 -0.70283,0.79139 -1.28672,1.43889 -1.29754,1.43889 -0.0108,0 -0.29931,-0.22548 -0.64108,-0.50108 -0.73666,-0.59402 -0.81692,-0.63992 -1.11968,-0.64032 -0.49279,-5.9e-4 -0.83573,0.56067 -0.62505,1.02306 0.0601,0.13187 1.8591,1.61498 2.14985,1.77234 0.19415,0.10508 0.45858,0.10367 0.65496,-0.003 z m -14.79277,-0.31462 c -0.41289,-0.0973 -0.80677,-0.40489 -1.01137,-0.78986 -0.0889,-0.16731 -0.0928,-0.51087 -0.10528,-9.27906 l -0.0129,-9.10532 0.14471,-0.30924 c 0.17315,-0.37002 0.47279,-0.6762 0.74014,-0.7563 0.13036,-0.0391 0.67831,-0.0584 1.65357,-0.0583 l 1.45861,1.3e-4 0.002,0.4094 c 0.002,0.33352 0.0263,0.4616 0.13206,0.6911 0.18094,0.3926 0.48628,0.70528 0.87619,0.89723 l 0.3277,0.16133 h 2.80568 2.80567 l 0.30332,-0.14018 c 0.63424,-0.29311 1.02057,-0.88343 1.05343,-1.60962 l 0.0185,-0.40952 1.1242,4.4e-4 c 0.61832,1.4e-4 1.2694,0.0237 1.44687,0.0522 0.6363,0.10229 1.09335,0.40291 1.29677,0.85294 l 0.11795,0.26097 0.0136,5.58958 0.0136,5.58958 -0.60931,0.0309 c -0.33512,0.017 -0.74892,0.0622 -0.91956,0.1004 l -0.31024,0.0695 v -4.26284 -4.26285 H 98.3646 92.01074 v 7.24737 7.24737 h 4.18388 4.18387 l 0.0632,0.47081 c 0.0347,0.25895 0.12632,0.6722 0.20349,0.91834 l 0.14031,0.44751 -4.62316,-0.005 c -2.54273,-0.003 -4.70727,-0.0248 -4.81007,-0.049 z m 1.85344,-4.09758 c -0.0718,-0.0912 -0.10288,-0.20317 -0.10288,-0.36997 0,-0.33449 0.0798,-0.48254 0.2936,-0.54463 0.11805,-0.0343 1.34336,-0.0467 3.63897,-0.0368 l 3.461,0.0149 0.11305,0.11307 c 0.15302,0.15304 0.16466,0.68817 0.0185,0.84969 -0.0945,0.1044 -0.0975,0.10449 -3.70695,0.10449 h -3.61239 z m 0.0659,-3.18341 c -0.19314,-0.12896 -0.23324,-0.66087 -0.0659,-0.87365 l 0.10288,-0.13079 h 3.96756 c 4.59352,0 4.16612,-0.0535 4.16612,0.52122 0,0.57469 0.4262,0.52133 -4.15731,0.52045 -2.17731,-4.4e-4 -3.98333,-0.0172 -4.01337,-0.0372 z m -0.0469,-2.96294 c -0.10269,-0.1027 -0.12184,-0.16937 -0.12184,-0.4242 0,-0.25482 0.0192,-0.3215 0.12184,-0.42419 l 0.12185,-0.12184 h 4.83661 c 5.62177,0 5.07098,-0.0593 5.07098,0.54603 0,0.60535 0.55079,0.54604 -5.07098,0.54604 h -4.83661 z m 0,-3.27621 c -0.0958,-0.0958 -0.12169,-0.17278 -0.12116,-0.35989 4.4e-4,-0.13092 0.0144,-0.2892 0.0311,-0.35172 0.0713,-0.26602 -0.0733,-0.25862 5.05144,-0.25862 3.41765,0 4.77505,0.0156 4.86378,0.0561 0.16891,0.077 0.24649,0.29122 0.21691,0.59906 -0.046,0.47823 0.43451,0.43693 -5.08364,0.43693 h -4.83661 z m 2.33532,-5.42017 c -0.8401,-0.44594 -0.81895,-1.61876 0.0356,-1.97574 0.1092,-0.0456 0.33216,-0.0772 0.54604,-0.0774 0.66861,-5.9e-4 0.89956,-0.14195 0.95765,-0.58648 0.0511,-0.39085 0.17592,-0.66775 0.39873,-0.88436 0.50523,-0.49116 1.30289,-0.47355 1.7948,0.0396 0.19795,0.2065 0.29289,0.43094 0.33874,0.80075 0.0274,0.22066 0.0682,0.32018 0.17559,0.42755 0.16396,0.16395 0.32303,0.20318 0.82385,0.20318 0.42687,0 0.62523,0.0698 0.85707,0.30166 0.46994,0.46994 0.40411,1.26068 -0.13754,1.65208 l -0.21581,0.15594 -2.71292,0.0111 c -2.40007,0.01 -2.73009,0.002 -2.86183,-0.0679 z m 3.10546,-2.17693 c 0.1378,-0.0883 0.2452,-0.29101 0.2452,-0.46277 0,-0.25021 -0.26971,-0.50521 -0.53437,-0.50521 -0.24157,0 -0.43048,0.13724 -0.50666,0.36808 -0.0709,0.21478 -0.0276,0.38287 0.13913,0.5406 0.18723,0.17708 0.43763,0.1997 0.6567,0.0593 z"
       id="path11" />
  </g>
</svg>
