<?xml version="1.0" encoding="UTF-8" standalone="no"?>
<!-- Created with Inkscape (http://www.inkscape.org/) -->

<svg
   width="24.6656mm"
   height="26.458523mm"
   viewBox="0 0 24.6656 26.458523"
   version="1.1"
   id="svg1"
   inkscape:version="1.4 (86a8ad7, 2024-10-11)"
   sodipodi:docname="icon-storage.svg"
   xmlns:inkscape="http://www.inkscape.org/namespaces/inkscape"
   xmlns:sodipodi="http://sodipodi.sourceforge.net/DTD/sodipodi-0.dtd"
   xmlns="http://www.w3.org/2000/svg"
   xmlns:svg="http://www.w3.org/2000/svg">
  <sodipodi:namedview
     id="namedview1"
     pagecolor="#ffffff"
     bordercolor="#000000"
     borderopacity="0.25"
     inkscape:showpageshadow="2"
     inkscape:pageopacity="0.0"
     inkscape:pagecheckerboard="0"
     inkscape:deskcolor="#d1d1d1"
     inkscape:document-units="mm"
     inkscape:zoom="0.61112514"
     inkscape:cx="28.635706"
     inkscape:cy="21.272239"
     inkscape:window-width="1059"
     inkscape:window-height="922"
     inkscape:window-x="433"
     inkscape:window-y="0"
     inkscape:window-maximized="0"
     inkscape:current-layer="layer1" />
  <defs
     id="defs1" />
  <g
     inkscape:label="Capa 1"
     inkscape:groupmode="layer"
     id="layer1"
     transform="translate(-97.63134,-143.40416)">
    <path
       style="fill:#ccdaf4;fill-opacity:1;stroke:none;stroke-width:1"
       d="m 97.6322,160.75426 c 9.4e-4,-8.71396 -0.008,-8.41176 0.26736,-8.95532 0.23504,-0.46383 0.78078,-0.91458 1.30741,-1.07986 0.12903,-0.0405 0.5303,-0.0873 0.89173,-0.10394 l 0.65713,-0.0303 v -0.7117 -0.7117 H 99.7955 c -0.52819,0 -1.07986,-0.0227 -1.22593,-0.0504 -0.33821,-0.0641 -0.61088,-0.25332 -0.78018,-0.54129 l -0.13325,-0.22666 v -2.0582 c 0,-2.03156 0.001,-2.06086 0.11015,-2.26417 0.13524,-0.25291 0.40324,-0.48038 0.65472,-0.55573 0.27065,-0.0811 21.75727,-0.0811 22.02792,0 0.25148,0.0754 0.51947,0.30282 0.65472,0.55573 0.10872,0.20331 0.11015,0.23261 0.11015,2.26417 v 2.0582 l -0.13325,0.22666 c -0.1693,0.28797 -0.44197,0.47715 -0.78018,0.54129 -0.14608,0.0277 -0.69775,0.0504 -1.22593,0.0504 h -0.96034 v 0.7117 0.7117 l 0.65714,0.0303 c 0.36142,0.0167 0.7627,0.0634 0.89172,0.10394 0.52664,0.16528 1.07238,0.61603 1.30742,1.07986 0.27544,0.54356 0.26642,0.24136 0.26735,8.95532 l 8.8e-4,8.0468 h -2.15738 -2.15739 v -6.54655 -6.54655 h -7.63766 -7.63764 v 6.54655 6.54655 h -2.0086 -2.0086 z m 17.85337,-10.87372 v -0.71913 h -6.0506 -6.0506 v 0.71913 0.71913 h 6.0506 6.0506 z m -15.04177,-2.0516 c 0.37827,-0.19453 0.56001,-0.48098 0.56001,-0.88264 0,-0.46656 -0.1929,-0.67278 -0.96409,-1.03072 -0.40913,-0.18989 -0.47417,-0.23664 -0.47417,-0.34086 0,-0.0664 0.0359,-0.1506 0.0798,-0.18702 0.1236,-0.10257 0.49785,-0.0634 0.75222,0.0788 0.12351,0.069 0.22969,0.11961 0.23595,0.11239 0.006,-0.007 0.0829,-0.15571 0.17023,-0.32998 0.17889,-0.35683 0.19006,-0.33173 -0.23842,-0.53562 -0.20582,-0.0979 -0.34409,-0.12634 -0.61994,-0.12735 -0.53081,-0.002 -0.90922,0.19632 -1.11041,0.58178 -0.11241,0.21538 -0.10506,0.61405 0.0152,0.82158 0.11174,0.1929 0.49801,0.47114 0.85186,0.6136 0.51344,0.20671 0.63817,0.41047 0.34998,0.5717 -0.11351,0.0635 -0.16928,0.0652 -0.37197,0.0116 -0.13114,-0.0347 -0.31898,-0.11604 -0.41742,-0.18071 l -0.17899,-0.11758 -0.20773,0.29456 c -0.11425,0.16202 -0.19436,0.31621 -0.17801,0.34266 0.0534,0.0864 0.48354,0.31561 0.71542,0.38128 0.29416,0.0833 0.79051,0.046 1.03054,-0.0774 z m 5.92359,0.0747 c 0.15404,-0.0363 0.37974,-0.12433 0.50154,-0.19571 0.7557,-0.44287 1.02546,-1.48349 0.59201,-2.28379 -0.59172,-1.09253 -2.33671,-1.12596 -2.96329,-0.0568 -0.17472,0.29813 -0.22488,0.49217 -0.22726,0.87915 -0.005,0.81237 0.49642,1.46792 1.26559,1.65459 0.33483,0.0813 0.4949,0.0817 0.83141,0.003 z m -0.70165,-0.73203 c -0.0682,-0.0271 -0.18735,-0.10939 -0.2648,-0.18284 -0.40659,-0.3856 -0.424,-1.01865 -0.0386,-1.40405 0.35657,-0.35657 0.84511,-0.35685 1.20127,-7.3e-4 0.36753,0.36752 0.38029,0.9307 0.0301,1.32952 -0.25047,0.28527 -0.60884,0.38493 -0.92797,0.25805 z m 10.92332,0.63146 0.23557,-0.11436 v 0.11641 c 0,0.1102 0.0172,0.1164 0.32237,0.1164 h 0.32237 v -0.94388 -0.94388 l -0.58274,0.014 -0.58274,0.014 -0.0147,0.33477 -0.0147,0.33477 h 0.25024 c 0.23425,0 0.25024,0.008 0.25024,0.12471 0,0.24725 -0.55921,0.44228 -0.94053,0.32804 -0.42146,-0.12628 -0.64651,-0.4578 -0.64651,-0.95237 0,-0.21897 0.0297,-0.358 0.10503,-0.49208 0.23647,-0.42073 0.85706,-0.54805 1.37728,-0.28257 0.14699,0.075 0.27205,0.13017 0.27792,0.12258 0.006,-0.008 0.0912,-0.14122 0.18961,-0.29695 l 0.17893,-0.28315 -0.144,-0.10254 c -0.50467,-0.35936 -1.35872,-0.41895 -1.92912,-0.1346 -0.29387,0.14649 -0.56953,0.4238 -0.73535,0.73975 -0.12354,0.23537 -0.13761,0.3126 -0.13809,0.75802 -4.4e-4,0.43216 0.0162,0.53159 0.1294,0.77302 0.37521,0.80009 1.31441,1.14619 2.08945,0.76996 z m -13.50226,-1.19582 v -1.31427 h 0.49822 0.49821 l -0.0147,-0.33476 -0.0147,-0.33477 h -1.38866 -1.38866 l -0.0146,0.33301 -0.0146,0.333 0.51057,0.0142 0.51058,0.0142 0.0132,1.30187 0.0132,1.30187 h 0.39594 0.39593 z m 5.96218,0.75633 0.014,-0.55795 0.18056,-0.0151 0.18056,-0.0151 0.29393,0.56062 0.29393,0.56061 0.43062,0.0143 c 0.27524,0.009 0.43062,-0.004 0.43062,-0.0374 0,-0.0285 -0.15726,-0.33237 -0.34946,-0.67532 l -0.34946,-0.62354 0.16989,-0.18805 c 0.21864,-0.24201 0.29736,-0.48755 0.2714,-0.84652 -0.027,-0.37372 -0.19911,-0.64172 -0.50805,-0.79128 -0.20274,-0.0981 -0.31174,-0.11056 -1.03237,-0.11759 l -0.80569,-0.008 -0.0131,1.64904 -0.0131,1.64903 h 0.39581 0.3958 z m -4.4e-4,-1.66144 0.0145,-0.38436 0.22318,0.0104 c 0.34571,0.0161 0.42904,0.0513 0.49418,0.20851 0.0654,0.158 0.0342,0.32598 -0.0862,0.46304 -0.0564,0.0642 -0.15222,0.0868 -0.36819,0.0868 h -0.29197 z m 3.03284,1.85982 0.0956,-0.33477 h 0.51152 0.51152 l 0.10339,0.34717 0.10339,0.34716 h 0.39466 c 0.29537,0 0.39466,-0.0166 0.39466,-0.066 0,-0.0363 -0.24291,-0.77836 -0.5398,-1.64904 l -0.5398,-1.58306 -0.39487,-0.0143 c -0.27796,-0.0101 -0.40939,0.005 -0.44389,0.0496 -0.0457,0.0596 -1.10694,3.15909 -1.10694,3.23304 0,0.0186 0.18337,0.0272 0.40748,0.0193 l 0.40748,-0.0144 z m 0.33591,-1.14069 c 0.0271,-0.0887 0.10013,-0.35706 0.16229,-0.59647 l 0.11303,-0.4353 0.1386,0.53449 c 0.0762,0.29396 0.1491,0.56238 0.16193,0.59647 0.0172,0.0457 -0.0622,0.062 -0.3009,0.062 h -0.32422 z m 7.86889,1.14069 0.0147,-0.33477 h -0.6718 -0.6718 v -0.32237 -0.32237 h 0.49595 0.49595 v -0.34716 -0.34717 h -0.49595 -0.49595 v -0.29757 -0.29757 h 0.61994 0.61994 v -0.34716 -0.34717 h -1.0167 -1.0167 v 1.66242 1.66242 l 1.05389,-0.0134 1.0539,-0.0134 z m -17.31668,21.1363 c -0.12549,-0.0987 -0.13068,-0.12232 -0.13068,-0.59514 0,-0.78271 -0.87828,-0.69074 6.59615,-0.69074 7.47443,0 6.59614,-0.092 6.59614,0.69074 0,0.78799 0.85122,0.69793 -6.59614,0.69793 -6.33364,0 -6.33482,-2e-5 -6.46547,-0.10279 z m 0.13013,-2.46113 c -0.20137,-0.0395 -0.26081,-0.19678 -0.26081,-0.6901 0,-0.37373 0.0169,-0.47546 0.0948,-0.57171 l 0.0948,-0.11708 h 6.40653 6.40653 l 0.0948,0.11708 c 0.13875,0.17135 0.13875,0.98314 1e-5,1.1545 l -0.0948,0.11708 -6.31536,0.006 c -3.47345,0.003 -6.36538,-0.004 -6.42652,-0.0158 z m -0.15297,-2.65916 c -0.0951,-0.10124 -0.10784,-0.17044 -0.10784,-0.5865 0,-0.42895 0.0104,-0.48148 0.11479,-0.57954 l 0.11479,-0.10784 h 6.37352 6.37352 l 0.10784,0.11479 c 0.0951,0.10124 0.10783,0.17043 0.10783,0.58649 0,0.42895 -0.0104,0.48149 -0.11478,0.57955 l -0.11479,0.10783 h -6.37352 -6.37353 z m 0.0228,-2.51735 c -0.12549,-0.0987 -0.13068,-0.12232 -0.13068,-0.59514 0,-0.78271 -0.87828,-0.69074 6.59615,-0.69074 7.47443,0 6.59614,-0.092 6.59614,0.69074 0,0.78799 0.85122,0.69793 -6.59614,0.69793 -6.33364,0 -6.33482,-2e-5 -6.46547,-0.10279 z m 0.0875,-2.49738 c -0.19967,-0.0869 -0.2182,-0.14588 -0.2182,-0.69428 0,-0.73189 -0.84982,-0.64836 6.59614,-0.64836 7.44967,0 6.59615,-0.0849 6.59615,0.65568 0,0.53164 -0.0342,0.62624 -0.25433,0.70297 -0.11168,0.0389 -1.95497,0.0542 -6.36162,0.0529 -5.09558,-0.002 -6.23186,-0.0139 -6.35814,-0.0689 z"
       id="path12-8" />
    <path
       style="fill:#5a73c4;fill-opacity:1;stroke:none;stroke-width:1"
       d="m 98.69053,161.81278 c 9.4e-4,-8.71396 -0.008,-8.41176 0.26736,-8.95532 0.23504,-0.46383 0.78078,-0.91458 1.30741,-1.07986 0.12903,-0.0405 0.5303,-0.0873 0.89173,-0.10394 l 0.65713,-0.0303 v -0.7117 -0.7117 h -0.96033 c -0.52819,0 -1.07986,-0.0227 -1.22593,-0.0504 -0.33821,-0.0641 -0.61088,-0.25332 -0.78018,-0.54129 l -0.13325,-0.22666 v -2.0582 c 0,-2.03156 10e-4,-2.06086 0.11015,-2.26417 0.13524,-0.25291 0.40324,-0.48038 0.65472,-0.55573 0.27065,-0.0811 21.75727,-0.0811 22.02792,0 0.25148,0.0754 0.51947,0.30282 0.65472,0.55573 0.10872,0.20331 0.11015,0.23261 0.11015,2.26417 v 2.0582 l -0.13325,0.22666 c -0.1693,0.28797 -0.44197,0.47715 -0.78018,0.54129 -0.14608,0.0277 -0.69775,0.0504 -1.22593,0.0504 h -0.96034 v 0.7117 0.7117 l 0.65714,0.0303 c 0.36142,0.0167 0.7627,0.0634 0.89172,0.10394 0.52664,0.16528 1.07238,0.61603 1.30742,1.07986 0.27544,0.54356 0.26642,0.24136 0.26735,8.95532 l 8.8e-4,8.0468 h -2.15738 -2.15739 v -6.54655 -6.54655 h -7.63766 -7.63764 v 6.54655 6.54655 h -2.0086 -2.0086 z m 17.85337,-10.87372 v -0.71913 h -6.0506 -6.0506 v 0.71913 0.71913 h 6.0506 6.0506 z m -15.04177,-2.0516 c 0.37827,-0.19453 0.56001,-0.48098 0.56001,-0.88264 0,-0.46656 -0.1929,-0.67278 -0.96409,-1.03072 -0.40913,-0.18989 -0.47417,-0.23664 -0.47417,-0.34086 0,-0.0664 0.0359,-0.1506 0.0798,-0.18702 0.1236,-0.10257 0.49785,-0.0634 0.75222,0.0788 0.12351,0.069 0.22969,0.11961 0.23595,0.11239 0.006,-0.007 0.0829,-0.15571 0.17023,-0.32998 0.17889,-0.35683 0.19006,-0.33173 -0.23842,-0.53562 -0.20582,-0.0979 -0.34409,-0.12634 -0.61994,-0.12735 -0.53081,-0.002 -0.90922,0.19632 -1.11041,0.58178 -0.11241,0.21538 -0.10506,0.61405 0.0152,0.82158 0.11174,0.1929 0.49801,0.47114 0.85186,0.6136 0.51344,0.20671 0.63817,0.41047 0.34998,0.5717 -0.11351,0.0635 -0.16928,0.0652 -0.37197,0.0116 -0.13114,-0.0347 -0.31898,-0.11604 -0.41742,-0.18071 l -0.17899,-0.11758 -0.20773,0.29456 c -0.11425,0.16202 -0.19436,0.31621 -0.17801,0.34266 0.0534,0.0864 0.48354,0.31561 0.71542,0.38128 0.29416,0.0833 0.79051,0.046 1.03054,-0.0774 z m 5.92359,0.0747 c 0.15404,-0.0363 0.37974,-0.12433 0.50154,-0.19571 0.7557,-0.44287 1.02546,-1.48349 0.59201,-2.28379 -0.59172,-1.09253 -2.33671,-1.12596 -2.96329,-0.0568 -0.17472,0.29813 -0.22488,0.49217 -0.22726,0.87915 -0.005,0.81237 0.49642,1.46792 1.26559,1.65459 0.33483,0.0813 0.4949,0.0817 0.83141,0.003 z m -0.70165,-0.73203 c -0.0682,-0.0271 -0.18735,-0.10939 -0.2648,-0.18284 -0.40659,-0.3856 -0.424,-1.01865 -0.0386,-1.40405 0.35657,-0.35657 0.84511,-0.35685 1.20127,-7.3e-4 0.36753,0.36752 0.38029,0.9307 0.0301,1.32952 -0.25047,0.28527 -0.60884,0.38493 -0.92797,0.25805 z m 10.92332,0.63146 0.23557,-0.11436 v 0.11641 c 0,0.1102 0.0172,0.1164 0.32237,0.1164 h 0.32237 v -0.94388 -0.94388 l -0.58274,0.014 -0.58274,0.014 -0.0147,0.33477 -0.0147,0.33477 h 0.25024 c 0.23425,0 0.25024,0.008 0.25024,0.12471 0,0.24725 -0.55921,0.44228 -0.94053,0.32804 -0.42146,-0.12628 -0.64651,-0.4578 -0.64651,-0.95237 0,-0.21897 0.0297,-0.358 0.10503,-0.49208 0.23647,-0.42073 0.85706,-0.54805 1.37728,-0.28257 0.14699,0.075 0.27205,0.13017 0.27792,0.12258 0.006,-0.008 0.0912,-0.14122 0.18961,-0.29695 l 0.17893,-0.28315 -0.144,-0.10254 c -0.50467,-0.35936 -1.35872,-0.41895 -1.92912,-0.1346 -0.29387,0.14649 -0.56953,0.4238 -0.73535,0.73975 -0.12354,0.23537 -0.13761,0.3126 -0.13809,0.75802 -4.4e-4,0.43216 0.0162,0.53159 0.1294,0.77302 0.37521,0.80009 1.31441,1.14619 2.08945,0.76996 z m -13.50226,-1.19582 v -1.31427 h 0.49822 0.49821 l -0.0147,-0.33476 -0.0147,-0.33477 h -1.38866 -1.38866 l -0.0146,0.33301 -0.0146,0.333 0.51057,0.0142 0.51058,0.0142 0.0132,1.30187 0.0132,1.30187 h 0.39594 0.39593 z m 5.96218,0.75633 0.014,-0.55795 0.18056,-0.0151 0.18056,-0.0151 0.29393,0.56062 0.29393,0.56061 0.43062,0.0143 c 0.27524,0.009 0.43062,-0.004 0.43062,-0.0374 0,-0.0285 -0.15726,-0.33237 -0.34946,-0.67532 l -0.34946,-0.62354 0.16989,-0.18805 c 0.21864,-0.24201 0.29736,-0.48755 0.2714,-0.84652 -0.027,-0.37372 -0.19911,-0.64172 -0.50805,-0.79128 -0.20274,-0.0981 -0.31174,-0.11056 -1.03237,-0.11759 l -0.80569,-0.008 -0.0131,1.64904 -0.0131,1.64903 h 0.39581 0.3958 z m -4.4e-4,-1.66144 0.0145,-0.38436 0.22318,0.0104 c 0.34571,0.0161 0.42904,0.0513 0.49418,0.20851 0.0654,0.158 0.0342,0.32598 -0.0862,0.46304 -0.0564,0.0642 -0.15222,0.0868 -0.36819,0.0868 h -0.29197 z m 3.03284,1.85982 0.0956,-0.33477 h 0.51152 0.51152 l 0.10339,0.34717 0.10339,0.34716 h 0.39466 c 0.29537,0 0.39466,-0.0166 0.39466,-0.066 0,-0.0363 -0.24291,-0.77836 -0.5398,-1.64904 l -0.5398,-1.58306 -0.39487,-0.0143 c -0.27796,-0.0101 -0.40939,0.005 -0.44389,0.0496 -0.0457,0.0596 -1.10694,3.15909 -1.10694,3.23304 0,0.0186 0.18337,0.0272 0.40748,0.0193 l 0.40748,-0.0144 z m 0.33591,-1.14069 c 0.0271,-0.0887 0.10013,-0.35706 0.16229,-0.59647 l 0.11303,-0.4353 0.1386,0.53449 c 0.0762,0.29396 0.1491,0.56238 0.16193,0.59647 0.0172,0.0457 -0.0622,0.062 -0.3009,0.062 h -0.32422 z m 7.86889,1.14069 0.0147,-0.33477 h -0.6718 -0.6718 v -0.32237 -0.32237 h 0.49595 0.49595 v -0.34716 -0.34717 h -0.49595 -0.49595 v -0.29757 -0.29757 h 0.61994 0.61994 v -0.34716 -0.34717 h -1.0167 -1.0167 v 1.66242 1.66242 l 1.05389,-0.0134 1.0539,-0.0134 z m -17.31668,21.1363 c -0.12549,-0.0987 -0.13068,-0.12232 -0.13068,-0.59514 0,-0.78271 -0.87828,-0.69074 6.59615,-0.69074 7.47443,0 6.59614,-0.092 6.59614,0.69074 0,0.78799 0.85122,0.69793 -6.59614,0.69793 -6.33364,0 -6.33482,-2e-5 -6.46547,-0.10279 z m 0.13013,-2.46113 c -0.20137,-0.0395 -0.26081,-0.19678 -0.26081,-0.6901 0,-0.37373 0.0169,-0.47546 0.0948,-0.57171 l 0.0948,-0.11708 h 6.40653 6.40653 l 0.0948,0.11708 c 0.13875,0.17135 0.13875,0.98314 1e-5,1.1545 l -0.0948,0.11708 -6.31536,0.006 c -3.47345,0.003 -6.36538,-0.004 -6.42652,-0.0158 z m -0.15297,-2.65916 c -0.0951,-0.10124 -0.10784,-0.17044 -0.10784,-0.5865 0,-0.42895 0.0104,-0.48148 0.11479,-0.57954 l 0.11479,-0.10784 h 6.37352 6.37352 l 0.10784,0.11479 c 0.0951,0.10124 0.10783,0.17043 0.10783,0.58649 0,0.42895 -0.0104,0.48149 -0.11478,0.57955 l -0.11479,0.10783 h -6.37352 -6.37353 z m 0.0228,-2.51735 c -0.12549,-0.0987 -0.13068,-0.12232 -0.13068,-0.59514 0,-0.78271 -0.87828,-0.69074 6.59615,-0.69074 7.47443,0 6.59614,-0.092 6.59614,0.69074 0,0.78799 0.85122,0.69793 -6.59614,0.69793 -6.33364,0 -6.33482,-2e-5 -6.46547,-0.10279 z m 0.0875,-2.49738 c -0.19967,-0.0869 -0.2182,-0.14588 -0.2182,-0.69428 0,-0.73189 -0.84982,-0.64836 6.59614,-0.64836 7.44967,0 6.59615,-0.0849 6.59615,0.65568 0,0.53164 -0.0342,0.62624 -0.25433,0.70297 -0.11168,0.0389 -1.95497,0.0542 -6.36162,0.0529 -5.09558,-0.002 -6.23186,-0.0139 -6.35814,-0.0689 z"
       id="path12" />
  </g>
</svg>
