<?xml version="1.0" encoding="UTF-8" standalone="no"?>
<!-- Created with Inkscape (http://www.inkscape.org/) -->

<svg
   width="36.435181mm"
   height="25.929171mm"
   viewBox="0 0 36.435181 25.929171"
   version="1.1"
   id="svg1"
   xml:space="preserve"
   inkscape:version="1.4 (86a8ad7, 2024-10-11)"
   sodipodi:docname="icon-boat.svg"
   xmlns:inkscape="http://www.inkscape.org/namespaces/inkscape"
   xmlns:sodipodi="http://sodipodi.sourceforge.net/DTD/sodipodi-0.dtd"
   xmlns="http://www.w3.org/2000/svg"
   xmlns:svg="http://www.w3.org/2000/svg"><sodipodi:namedview
     id="namedview1"
     pagecolor="#ffffff"
     bordercolor="#000000"
     borderopacity="0.25"
     inkscape:showpageshadow="2"
     inkscape:pageopacity="0.0"
     inkscape:pagecheckerboard="0"
     inkscape:deskcolor="#d1d1d1"
     inkscape:document-units="mm"
     inkscape:zoom="1.2222503"
     inkscape:cx="-8.1816304"
     inkscape:cy="58.907739"
     inkscape:window-width="1500"
     inkscape:window-height="930"
     inkscape:window-x="-6"
     inkscape:window-y="-6"
     inkscape:window-maximized="1"
     inkscape:current-layer="layer1" /><defs
     id="defs1" /><g
     inkscape:label="Capa 1"
     inkscape:groupmode="layer"
     id="layer1"
     transform="translate(-120.00613,-25.92237)"><path
       style="fill:#ccdaf4;fill-opacity:1;stroke-width:0.999997"
       d="m 123.68487,51.226915 c -0.12437,-0.05416 -0.25356,-0.184605 -0.30442,-0.307387 -0.0764,-0.184452 -0.0671,-0.276176 0.0687,-0.678139 0.14283,-0.422836 0.1491,-0.500221 0.0694,-0.856483 -0.0921,-0.411739 -0.12459,-0.451454 -1.22292,-1.497089 -0.52832,-0.502964 -0.82774,-0.914799 -1.12815,-1.551724 -0.42294,-0.896692 -0.47938,-1.207085 -0.51224,-2.816798 l -0.0297,-1.456173 h 11.11463 11.11464 l 0.0834,-0.311845 c 0.10689,-0.39964 0.44908,-0.788749 0.7768,-0.883303 0.17363,-0.0501 2.18765,-0.0674 6.22689,-0.0535 l 5.97024,0.02055 -1.59868,3.333408 c -2.89574,6.037875 -2.77111,5.794976 -3.18692,6.210798 -0.4586,0.458595 -1.10517,0.780079 -1.75896,0.874587 -0.307,0.04438 -5.04412,0.0694 -12.97504,0.06854 -10.28711,-10e-4 -12.52964,-0.01796 -12.70758,-0.09544 z m -1.80664,-9.841442 c -0.0262,-0.02613 -0.0475,-1.842289 -0.0475,-4.035907 v -3.988393 h -0.9123 -0.9123 v -0.59549 -0.595492 l 2.15794,-0.01857 2.15795,-0.01857 0.0196,-0.894757 0.0196,-0.894757 h -0.80914 -0.80913 v -0.348586 -0.348587 l 0.78949,-0.01985 0.78949,-0.01985 0.0187,-1.842147 0.0187,-1.842147 h 0.27838 0.27838 l 0.0187,1.842147 0.0187,1.842147 0.7895,0.01985 0.78949,0.01985 v 0.348587 0.348586 h -0.80914 -0.80913 l 0.0196,0.894757 0.0196,0.894757 2.27052,0.03509 2.27052,0.03509 -0.69153,0.549809 -0.69155,0.549811 -0.0351,4.046785 -0.0351,4.046784 -3.05782,0.01828 c -1.6818,0.01005 -3.07919,-0.0031 -3.10533,-0.02924 z m 5.07541,-3.252263 v -0.912302 h -1.01757 -1.01756 v 0.912302 0.912302 h 1.01756 1.01757 z m 0,-2.947435 v -0.912302 h -1.01757 -1.01756 v 0.912302 0.912303 h 1.01756 1.01757 z m 2.68865,6.144664 c -0.36354,-0.160861 -0.38364,-0.338385 -0.35941,-3.174112 l 0.0217,-2.538344 0.17013,-0.181015 0.17013,-0.181015 h 2.72786 2.72787 l 0.17225,0.172252 0.17225,0.172252 v 2.701093 2.701091 l -0.16929,0.196901 -0.1693,0.196897 -2.62024,0.01649 c -2.1298,0.01341 -2.66211,-0.0021 -2.84394,-0.08249 z m 7.45023,0.0031 c -0.38394,-0.167283 -0.38428,-0.170743 -0.38428,-4.006781 v -3.536723 l 0.16937,-0.1969 0.16937,-0.196901 h 2.43326 2.43326 l 0.16937,0.196901 0.16936,0.1969 v 3.579729 c 0,2.430063 -0.0243,3.625229 -0.0758,3.721408 -0.16559,0.309426 -0.41521,0.340502 -2.71145,0.337583 -1.62811,-0.0021 -2.21247,-0.02553 -2.37243,-0.09522 z m 6.69752,-1.886768 c -0.0613,-0.04702 -0.14808,-0.154469 -0.19298,-0.238775 -0.10783,-0.202461 -0.11288,-2.850273 -0.006,-3.050324 0.16824,-0.314362 0.39711,-0.34033 2.99924,-0.34033 1.61062,0 2.52431,0.0266 2.67111,0.07778 0.38773,0.135161 0.42941,0.315121 0.42941,1.853996 v 1.377335 l -0.20514,0.205133 -0.20513,0.205134 -2.68967,-0.0022 c -2.00364,-0.0017 -2.71807,-0.02403 -2.80102,-0.08772 z"
       id="path8-6" /><path
       style="fill:#5a73c4;fill-opacity:1;stroke-width:0.999997"
       d="m 124.21404,51.756085 c -0.12437,-0.05412 -0.25356,-0.184605 -0.30442,-0.30739 -0.0764,-0.18445 -0.0671,-0.276176 0.0687,-0.678136 0.14282,-0.422841 0.14909,-0.500224 0.0694,-0.856486 -0.0921,-0.41174 -0.12459,-0.451453 -1.22292,-1.497087 -0.52832,-0.502968 -0.82773,-0.914802 -1.12815,-1.551723 -0.42294,-0.896698 -0.47938,-1.207087 -0.51224,-2.816801 l -0.0297,-1.456173 h 11.11463 11.11464 l 0.0834,-0.311845 c 0.10689,-0.39964 0.44908,-0.788749 0.7768,-0.883303 0.17364,-0.0501 2.18765,-0.06741 6.22689,-0.0535 l 5.97024,0.02055 -1.59868,3.333409 c -2.89574,6.037873 -2.77111,5.79498 -3.18692,6.210797 -0.4586,0.458598 -1.10517,0.780081 -1.75896,0.874591 -0.307,0.04435 -5.04412,0.0694 -12.97504,0.06853 -10.28711,-0.0013 -12.52964,-0.018 -12.70758,-0.09544 z M 122.4074,41.91464 c -0.0262,-0.02613 -0.0475,-1.842289 -0.0475,-4.035907 V 33.89034 h -0.9123 -0.9123 v -0.59549 -0.595492 l 2.15794,-0.01857 2.15795,-0.01857 0.0196,-0.894758 0.0196,-0.894756 h -0.80914 -0.80913 v -0.348586 -0.348587 l 0.78949,-0.01985 0.78949,-0.01985 0.0187,-1.842147 0.0187,-1.842147 h 0.27838 0.27838 l 0.0187,1.842147 0.0187,1.842147 0.7895,0.01985 0.78949,0.01985 v 0.348587 0.348586 h -0.80914 -0.80913 l 0.0196,0.894756 0.0196,0.894758 2.27052,0.03509 2.27052,0.03509 -0.69153,0.549809 -0.69155,0.549811 -0.0351,4.046785 -0.0351,4.046784 -3.05782,0.01828 c -1.6818,0.01005 -3.07919,-0.0031 -3.10533,-0.02924 z m 5.07541,-3.252263 v -0.912302 h -1.01756 -1.01757 v 0.912302 0.912302 h 1.01757 1.01756 z m 0,-2.947435 V 34.80264 h -1.01756 -1.01757 v 0.912302 0.912302 h 1.01757 1.01756 z m 2.68866,6.144664 c -0.36355,-0.160861 -0.38365,-0.338385 -0.35942,-3.174112 l 0.0217,-2.538344 0.17013,-0.181015 0.17013,-0.181015 h 2.72786 2.72787 l 0.17225,0.172252 0.17225,0.172252 v 2.701093 2.701091 l -0.16929,0.196901 -0.1693,0.196897 -2.62024,0.01649 c -2.1298,0.01341 -2.66211,-0.0021 -2.84394,-0.08249 z m 7.45022,0.0031 c -0.38394,-0.167283 -0.38427,-0.170743 -0.38427,-4.006781 v -3.536723 l 0.16936,-0.196901 0.16937,-0.1969 h 2.43326 2.43326 l 0.16937,0.1969 0.16936,0.196901 v 3.579728 c 0,2.430064 -0.0243,3.62523 -0.0758,3.721409 -0.1656,0.309426 -0.41522,0.340502 -2.71146,0.337583 -1.62811,-0.0021 -2.21247,-0.02553 -2.37243,-0.09522 z m 6.69752,-1.886769 c -0.0613,-0.04702 -0.14808,-0.154468 -0.19298,-0.238774 -0.10783,-0.202462 -0.11288,-2.850273 -0.006,-3.050324 0.16824,-0.314362 0.39711,-0.340331 2.99924,-0.340331 1.61062,0 2.52431,0.0266 2.67111,0.07779 0.38773,0.135161 0.42941,0.315121 0.42941,1.853995 v 1.377336 l -0.20514,0.205133 -0.20513,0.205133 -2.68967,-0.0022 c -2.00363,-0.0017 -2.71807,-0.02403 -2.80102,-0.08772 z"
       id="path8" /></g></svg>
