<?xml version="1.0" encoding="UTF-8" standalone="no"?>
<!-- Created with Inkscape (http://www.inkscape.org/) -->

<svg
   width="36.964329mm"
   height="26.458603mm"
   viewBox="0 0 36.964329 26.458603"
   version="1.1"
   id="svg1"
   inkscape:version="1.4 (86a8ad7, 2024-10-11)"
   sodipodi:docname="icon-boat.svg"
   xmlns:inkscape="http://www.inkscape.org/namespaces/inkscape"
   xmlns:sodipodi="http://sodipodi.sourceforge.net/DTD/sodipodi-0.dtd"
   xmlns="http://www.w3.org/2000/svg"
   xmlns:svg="http://www.w3.org/2000/svg">
  <sodipodi:namedview
     id="namedview1"
     pagecolor="#ffffff"
     bordercolor="#000000"
     borderopacity="0.25"
     inkscape:showpageshadow="2"
     inkscape:pageopacity="0.0"
     inkscape:pagecheckerboard="0"
     inkscape:deskcolor="#d1d1d1"
     inkscape:document-units="mm"
     inkscape:zoom="0.61112514"
     inkscape:cx="112.08834"
     inkscape:cy="94.906912"
     inkscape:window-width="1059"
     inkscape:window-height="922"
     inkscape:window-x="433"
     inkscape:window-y="0"
     inkscape:window-maximized="0"
     inkscape:current-layer="layer1" />
  <defs
     id="defs1" />
  <g
     inkscape:label="Capa 1"
     inkscape:groupmode="layer"
     id="layer1"
     transform="translate(-75.4063,-123.825)">
    <path
       style="fill:#ccdaf4;fill-opacity:1;stroke:none;stroke-width:0.999995"
       d="m 79.08504,149.12961 c -0.12436,-0.0541 -0.25356,-0.18461 -0.30442,-0.30739 -0.0764,-0.18445 -0.0671,-0.27618 0.0687,-0.67814 0.14282,-0.42284 0.1491,-0.50022 0.0694,-0.85648 -0.0921,-0.41174 -0.12459,-0.45146 -1.22292,-1.49709 -0.52832,-0.50297 -0.82773,-0.9148 -1.12815,-1.55172 -0.42294,-0.8967 -0.47938,-1.20709 -0.51224,-2.8168 l -0.0297,-1.45618 h 11.11462 11.11464 l 0.0834,-0.31184 c 0.10689,-0.39964 0.44908,-0.78875 0.7768,-0.8833 0.17364,-0.0501 2.18765,-0.0674 6.22689,-0.0535 l 5.97024,0.0206 -1.59868,3.3334 c -2.89574,6.03788 -2.77111,5.79498 -3.18692,6.2108 -0.4586,0.4586 -1.10517,0.78008 -1.75896,0.87459 -0.307,0.0443 -5.04412,0.0694 -12.97504,0.0685 -10.28711,-0.001 -12.52964,-0.018 -12.70758,-0.0954 z m -1.80664,-9.84144 c -0.0262,-0.0261 -0.0475,-1.84229 -0.0475,-4.03591 v -3.98839 h -0.9123 -0.9123 v -0.59549 -0.5955 l 2.15794,-0.0186 2.15795,-0.0186 0.0196,-0.89475 0.0196,-0.89476 h -0.80914 -0.80913 v -0.34858 -0.34859 l 0.78949,-0.0199 0.78949,-0.0198 0.0187,-1.84215 0.0187,-1.84215 h 0.27838 0.27838 l 0.0187,1.84215 0.0187,1.84215 0.7895,0.0198 0.78949,0.0199 v 0.34859 0.34858 h -0.80914 -0.80913 l 0.0196,0.89476 0.0196,0.89475 2.27052,0.0351 2.27052,0.0351 -0.69153,0.54981 -0.69155,0.54981 -0.0351,4.04679 -0.0351,4.04678 -3.05782,0.0183 c -1.6818,0.0101 -3.07919,-0.003 -3.10533,-0.0292 z m 5.07541,-3.25227 v -0.9123 h -1.01756 -1.01757 v 0.9123 0.9123 h 1.01757 1.01756 z m 0,-2.94743 v -0.9123 h -1.01756 -1.01757 v 0.9123 0.9123 h 1.01757 1.01756 z m 2.68866,6.14466 c -0.36355,-0.16086 -0.38365,-0.33838 -0.35942,-3.17411 l 0.0217,-2.53834 0.17013,-0.18102 0.17013,-0.18101 h 2.72786 2.72787 l 0.17225,0.17225 0.17225,0.17225 v 2.70109 2.70109 l -0.16929,0.1969 -0.1693,0.1969 -2.62024,0.0165 c -2.1298,0.0134 -2.66211,-0.002 -2.84394,-0.0825 z m 7.45022,0.003 c -0.38394,-0.16728 -0.38427,-0.17074 -0.38427,-4.00678 v -3.53672 l 0.16936,-0.1969 0.16937,-0.1969 h 2.43326 2.43326 l 0.16937,0.1969 0.16936,0.1969 v 3.57973 c 0,2.43006 -0.0243,3.62523 -0.0758,3.7214 -0.1656,0.30943 -0.41522,0.34051 -2.71146,0.33759 -1.62811,-0.002 -2.21247,-0.0255 -2.37243,-0.0952 z m 6.69752,-1.88677 c -0.0613,-0.047 -0.14808,-0.15447 -0.19298,-0.23877 -0.10783,-0.20246 -0.11288,-2.85027 -0.006,-3.05033 0.16824,-0.31436 0.39711,-0.34033 2.99924,-0.34033 1.61062,0 2.52431,0.0266 2.67111,0.0778 0.38773,0.13517 0.42941,0.31512 0.42941,1.854 v 1.37733 l -0.20514,0.20514 -0.20513,0.20513 -2.68967,-0.002 c -2.00363,-0.002 -2.71807,-0.024 -2.80102,-0.0877 z"
       id="path8-9" />
    <path
       style="fill:#5a73c4;fill-opacity:1;stroke:none;stroke-width:0.999995"
       d="m 80.14337,150.18813 c -0.12436,-0.0541 -0.25356,-0.18461 -0.30442,-0.30739 -0.0764,-0.18445 -0.0671,-0.27618 0.0687,-0.67814 0.14282,-0.42284 0.1491,-0.50022 0.0694,-0.85648 -0.0921,-0.41174 -0.12459,-0.45146 -1.22292,-1.49709 -0.52832,-0.50297 -0.82773,-0.9148 -1.12815,-1.55172 -0.42294,-0.8967 -0.47938,-1.20709 -0.51224,-2.8168 l -0.0297,-1.45618 H 88.19866 99.3133 l 0.0834,-0.31184 c 0.10689,-0.39964 0.44908,-0.78875 0.7768,-0.8833 0.17364,-0.0501 2.18765,-0.0674 6.22689,-0.0535 l 5.97024,0.0206 -1.59868,3.3334 c -2.89574,6.03788 -2.77111,5.79498 -3.18692,6.2108 -0.4586,0.4586 -1.10517,0.78008 -1.75896,0.87459 -0.307,0.0443 -5.04412,0.0694 -12.97504,0.0685 -10.28711,-0.001 -12.52964,-0.018 -12.70758,-0.0954 z m -1.80664,-9.84144 c -0.0262,-0.0261 -0.0475,-1.84229 -0.0475,-4.03591 v -3.98839 h -0.9123 -0.9123 v -0.59549 -0.5955 l 2.15794,-0.0186 2.15795,-0.0186 0.0196,-0.89475 0.0196,-0.89476 h -0.80914 -0.80913 v -0.34858 -0.34859 l 0.78949,-0.0199 0.78949,-0.0198 0.0187,-1.84215 0.0187,-1.84215 h 0.27838 0.27838 l 0.0187,1.84215 0.0187,1.84215 0.7895,0.0198 0.78949,0.0199 v 0.34859 0.34858 h -0.80914 -0.80913 l 0.0196,0.89476 0.0196,0.89475 2.27052,0.0351 2.27052,0.0351 -0.69153,0.54981 -0.69155,0.54981 -0.0351,4.04679 -0.0351,4.04678 -3.05782,0.0183 c -1.6818,0.0101 -3.07919,-0.003 -3.10533,-0.0292 z m 5.07541,-3.25227 v -0.9123 h -1.01756 -1.01757 v 0.9123 0.9123 h 1.01757 1.01756 z m 0,-2.94743 v -0.9123 h -1.01756 -1.01757 v 0.9123 0.9123 h 1.01757 1.01756 z m 2.68866,6.14466 c -0.36355,-0.16086 -0.38365,-0.33838 -0.35942,-3.17411 l 0.0217,-2.53834 0.17013,-0.18102 0.17013,-0.18101 h 2.72786 2.72787 l 0.17225,0.17225 0.17225,0.17225 v 2.70109 2.70109 l -0.16929,0.1969 -0.1693,0.1969 -2.62024,0.0165 c -2.1298,0.0134 -2.66211,-0.002 -2.84394,-0.0825 z m 7.45022,0.003 c -0.38394,-0.16728 -0.38427,-0.17074 -0.38427,-4.00678 v -3.53672 l 0.16936,-0.1969 0.16937,-0.1969 h 2.43326 2.43326 l 0.16937,0.1969 0.16936,0.1969 v 3.57973 c 0,2.43006 -0.0243,3.62523 -0.0758,3.7214 -0.1656,0.30943 -0.41522,0.34051 -2.71146,0.33759 -1.62811,-0.002 -2.21247,-0.0255 -2.37243,-0.0952 z m 6.69752,-1.88677 c -0.0613,-0.047 -0.14808,-0.15447 -0.19298,-0.23877 -0.10783,-0.20246 -0.11288,-2.85027 -0.006,-3.05033 0.16824,-0.31436 0.39711,-0.34033 2.99924,-0.34033 1.61062,0 2.52431,0.0266 2.67111,0.0778 0.38773,0.13517 0.42941,0.31512 0.42941,1.854 v 1.37733 l -0.20514,0.20514 -0.20513,0.20513 -2.68967,-0.002 c -2.00363,-0.002 -2.71807,-0.024 -2.80102,-0.0877 z"
       id="path8" />
  </g>
</svg>
