<?xml version="1.0" encoding="UTF-8" standalone="no"?>
<!-- Created with Inkscape (http://www.inkscape.org/) -->

<svg
   width="31.720364mm"
   height="26.458496mm"
   viewBox="0 0 31.720364 26.458496"
   version="1.1"
   id="svg1"
   inkscape:version="1.4 (86a8ad7, 2024-10-11)"
   sodipodi:docname="icon-warehouse.svg"
   xmlns:inkscape="http://www.inkscape.org/namespaces/inkscape"
   xmlns:sodipodi="http://sodipodi.sourceforge.net/DTD/sodipodi-0.dtd"
   xmlns="http://www.w3.org/2000/svg"
   xmlns:svg="http://www.w3.org/2000/svg">
  <sodipodi:namedview
     id="namedview1"
     pagecolor="#ffffff"
     bordercolor="#000000"
     borderopacity="0.25"
     inkscape:showpageshadow="2"
     inkscape:pageopacity="0.0"
     inkscape:pagecheckerboard="0"
     inkscape:deskcolor="#d1d1d1"
     inkscape:document-units="mm"
     inkscape:zoom="0.61112514"
     inkscape:cx="67.907532"
     inkscape:cy="50.726108"
     inkscape:window-width="1059"
     inkscape:window-height="922"
     inkscape:window-x="433"
     inkscape:window-y="0"
     inkscape:window-maximized="0"
     inkscape:current-layer="layer1" />
  <defs
     id="defs1" />
  <g
     inkscape:label="Capa 1"
     inkscape:groupmode="layer"
     id="layer1"
     transform="translate(-87.048,-135.73124)">
    <path
       style="fill:#ccdaf4;fill-opacity:1;stroke:none;stroke-width:0.999999"
       d="m 90.4499,160.97761 c -0.44902,-0.18468 -0.8004,-0.47028 -1.03585,-0.84191 -0.38551,-0.60849 -0.35938,-0.0838 -0.37737,-7.57835 -0.011,-4.56979 -0.0369,-6.87654 -0.0777,-6.91747 -0.0337,-0.0338 -0.33622,-0.075 -0.67231,-0.0916 -0.51997,-0.0257 -0.64113,-0.0516 -0.81269,-0.17375 -0.37476,-0.26685 -0.42442,-0.4808 -0.42591,-1.83466 -10e-4,-1.12688 0.007,-1.21642 0.13344,-1.46735 0.0904,-0.17926 0.21362,-0.31002 0.37432,-0.39723 0.27238,-0.14782 13.5421,-5.66488 14.03898,-5.83689 0.41214,-0.14268 0.91563,-0.14289 1.32881,-5.3e-4 0.53997,0.18602 14.02152,5.70047 14.27433,5.83873 0.15089,0.0825 0.28524,0.22345 0.37432,0.39267 0.13214,0.251 0.1389,0.32304 0.13765,1.46734 -10e-4,1.35746 -0.051,1.57094 -0.42591,1.83793 -0.17066,0.12152 -0.29358,0.1482 -0.80054,0.17375 -0.32941,0.0166 -0.63262,0.052 -0.67379,0.0786 -0.0592,0.0383 -0.0749,1.44747 -0.0749,6.71466 0,4.19907 -0.0222,6.78322 -0.06,6.98239 -0.13078,0.68959 -0.61053,1.3089 -1.24353,1.60525 -0.28761,0.13465 -0.44344,0.16418 -0.95741,0.18142 l -0.61389,0.0206 v -5.93473 -5.93472 H 102.37893 91.8979 v 5.92927 5.92926 l -0.55399,-0.001 c -0.44126,-0.001 -0.62321,-0.0299 -0.89409,-0.1413 z m 6.47898,-16.53708 v -1.108 h -2.45556 -2.45555 v 1.108 1.10799 h 2.45555 2.45556 z m 7.90568,0 v -1.108 h -2.45555 -2.45556 v 1.108 1.10799 h 2.45556 2.45555 z m 7.90569,0 v -1.108 h -2.45555 -2.45556 v 1.108 1.10799 h 2.45556 2.45555 z m -18.44604,16.56868 c -0.12342,-0.0662 -0.26328,-0.21718 -0.34591,-0.37342 -0.13728,-0.25961 -0.13852,-0.28051 -0.12127,-2.0407 0.0166,-1.69621 0.0232,-1.78622 0.14272,-1.94738 0.0689,-0.0929 0.21439,-0.22962 0.32329,-0.30373 0.1818,-0.12374 0.26586,-0.13476 1.02762,-0.13476 h 0.82963 v 0.95826 0.95827 h 0.3294 0.3294 v -0.95827 -0.95826 h 0.81536 c 0.94152,0 1.16832,0.0786 1.39607,0.48381 0.12579,0.22383 0.12886,0.27982 0.11187,2.04423 -0.0174,1.80556 -0.0182,1.81505 -0.16113,2.01552 -0.2539,0.35599 -0.3327,0.36755 -2.50555,0.36755 -1.79888,0 -1.98176,-0.009 -2.1715,-0.11112 z m 5.88324,-0.008 c -0.10736,-0.0655 -0.24875,-0.20685 -0.31421,-0.31421 -0.1119,-0.18352 -0.11903,-0.30479 -0.11924,-2.028 -2.1e-4,-1.80595 0.002,-1.83579 0.13573,-2.03631 0.23419,-0.35057 0.442,-0.41293 1.37631,-0.41304 l 0.82351,-9e-5 v 0.95826 0.95827 h 0.3294 0.32941 v -0.96268 -0.96269 l 0.86427,0.0194 c 0.96203,0.0216 1.07969,0.0639 1.32177,0.47484 0.11248,0.19096 0.11978,0.31108 0.11978,1.97016 0,1.67441 -0.006,1.77776 -0.12302,1.97622 -0.0677,0.11518 -0.21314,0.27015 -0.32329,0.34438 -0.19792,0.13338 -0.22382,0.13496 -2.21275,0.13473 -1.9025,-1.7e-4 -2.02315,-0.007 -2.20767,-0.11923 z m 5.97183,-0.0143 c -0.40196,-0.26857 -0.41615,-0.34737 -0.41625,-2.31273 -1e-4,-1.94508 0.0156,-2.04003 0.38161,-2.30108 0.16971,-0.12105 0.27008,-0.13538 1.07067,-0.15286 l 0.8834,-0.0193 v 0.96258 0.96258 h 0.3294 0.3294 v -0.96274 -0.96268 l 0.86428,0.0194 c 0.93984,0.0211 1.03448,0.0521 1.31807,0.43163 0.11717,0.15682 0.12438,0.25569 0.14103,1.93351 0.0167,1.6834 0.0116,1.78017 -0.10568,2.01707 -0.2473,0.49936 -0.18154,0.48617 -2.52005,0.50555 l -2.06915,0.0171 z M 97.24276,155.431 c -0.10736,-0.0655 -0.24875,-0.20684 -0.31421,-0.3142 -0.11188,-0.18351 -0.11901,-0.30456 -0.11901,-2.02189 0,-1.71733 0.007,-1.83838 0.11901,-2.02189 0.22987,-0.37702 0.40649,-0.43319 1.36286,-0.43344 l 0.85345,-1.8e-4 v 0.95827 0.95826 h 0.32941 0.3294 v -0.95826 -0.95827 h 0.82963 c 0.76154,0 0.84605,0.0111 1.02989,0.13496 0.11014,0.0742 0.25562,0.2292 0.32329,0.34438 0.11658,0.19847 0.12302,0.30181 0.12302,1.97622 0,1.6744 -0.006,1.77775 -0.12302,1.97622 -0.0677,0.11518 -0.21315,0.27014 -0.32329,0.34437 -0.19792,0.13338 -0.22383,0.13496 -2.21275,0.13474 -1.90251,-1.8e-4 -2.02315,-0.007 -2.20768,-0.11924 z m 6.05789,0.005 c -0.10249,-0.0625 -0.25072,-0.20389 -0.3294,-0.3142 l -0.14305,-0.20058 v -1.83735 c 0,-1.77037 0.005,-1.84343 0.12529,-2.00636 0.0689,-0.093 0.21438,-0.22974 0.32328,-0.30385 0.1818,-0.12374 0.26587,-0.13476 1.02763,-0.13476 h 0.82962 v 0.95827 0.95826 h 0.3294 0.32941 v -0.95826 -0.95827 l 0.82351,9e-5 c 0.93431,1.1e-4 1.14212,0.0625 1.37631,0.41304 0.13397,0.20054 0.13595,0.2303 0.13595,2.04243 0,2.62936 0.1888,2.45542 -2.66518,2.45523 -1.83522,-1.2e-4 -1.98973,-0.008 -2.16277,-0.11376 z"
       id="path16-2" />
    <path
       style="fill:#5a73c4;fill-opacity:1;stroke:none;stroke-width:0.999999"
       d="m 91.50823,162.03613 c -0.44902,-0.18468 -0.8004,-0.47028 -1.03585,-0.84191 -0.38551,-0.60849 -0.35938,-0.0838 -0.37737,-7.57834 -0.011,-4.5698 -0.0369,-6.87655 -0.0777,-6.91748 -0.0337,-0.0338 -0.33622,-0.075 -0.67231,-0.0916 -0.51997,-0.0257 -0.64113,-0.0516 -0.81269,-0.17375 -0.37476,-0.26685 -0.42442,-0.4808 -0.42591,-1.83466 -10e-4,-1.12687 0.007,-1.21642 0.13344,-1.46734 0.0904,-0.17927 0.21362,-0.31003 0.37432,-0.39724 0.27238,-0.14781 13.5421,-5.66487 14.03898,-5.83689 0.41214,-0.14268 0.91563,-0.14288 1.32881,-5.3e-4 0.53997,0.18602 14.02152,5.70048 14.27433,5.83873 0.15089,0.0825 0.28524,0.22345 0.37432,0.39267 0.13214,0.251 0.1389,0.32304 0.13765,1.46735 -10e-4,1.35745 -0.051,1.57094 -0.42591,1.83793 -0.17066,0.12152 -0.29358,0.1482 -0.80054,0.17375 -0.32941,0.0166 -0.63262,0.052 -0.67379,0.0786 -0.0592,0.0383 -0.0749,1.44746 -0.0749,6.71465 0,4.19907 -0.0222,6.78322 -0.06,6.98239 -0.13078,0.6896 -0.61053,1.3089 -1.24353,1.60525 -0.28761,0.13466 -0.44344,0.16419 -0.95741,0.18143 l -0.61389,0.0206 V 156.255 150.32029 H 103.43726 92.95623 v 5.92926 5.92927 l -0.55399,-0.001 c -0.44126,-0.001 -0.62321,-0.0299 -0.89409,-0.1413 z m 6.47898,-16.53708 v -1.10799 H 95.53165 93.0761 v 1.10799 1.10799 h 2.45555 2.45556 z m 7.90568,0 v -1.10799 h -2.45555 -2.45556 v 1.10799 1.10799 h 2.45556 2.45555 z m 7.90569,0 v -1.10799 h -2.45555 -2.45556 v 1.10799 1.10799 h 2.45556 2.45555 z m -18.44604,16.56868 c -0.12342,-0.0662 -0.26328,-0.21718 -0.34591,-0.37341 -0.13728,-0.25962 -0.13852,-0.28052 -0.12127,-2.04071 0.0166,-1.6962 0.0232,-1.78621 0.14272,-1.94738 0.0689,-0.0929 0.21439,-0.22961 0.32329,-0.30373 0.1818,-0.12373 0.26586,-0.13476 1.02762,-0.13476 h 0.82963 v 0.95827 0.95826 h 0.3294 0.3294 v -0.95826 -0.95827 h 0.81536 c 0.94152,0 1.16832,0.0786 1.39607,0.48382 0.12579,0.22382 0.12886,0.27982 0.11187,2.04422 -0.0174,1.80556 -0.0182,1.81505 -0.16113,2.01553 -0.2539,0.35598 -0.3327,0.36754 -2.50555,0.36754 -1.79888,0 -1.98176,-0.009 -2.1715,-0.11112 z m 5.88324,-0.008 c -0.10736,-0.0655 -0.24875,-0.20685 -0.31421,-0.3142 -0.1119,-0.18353 -0.11903,-0.30479 -0.11924,-2.02801 -2.1e-4,-1.80594 0.002,-1.83579 0.13573,-2.03631 0.23419,-0.35056 0.442,-0.41293 1.37631,-0.41303 l 0.82351,-1e-4 v 0.95827 0.95826 h 0.3294 0.32941 v -0.96268 -0.96268 l 0.86427,0.0194 c 0.96203,0.0216 1.07969,0.0639 1.32177,0.47484 0.11248,0.19096 0.11978,0.31107 0.11978,1.97016 0,1.6744 -0.006,1.77775 -0.12302,1.97622 -0.0677,0.11518 -0.21314,0.27014 -0.32329,0.34437 -0.19792,0.13338 -0.22382,0.13496 -2.21275,0.13474 -1.9025,-1.8e-4 -2.02315,-0.007 -2.20767,-0.11924 z m 5.97183,-0.0143 c -0.40196,-0.26856 -0.41615,-0.34737 -0.41625,-2.31272 -1e-4,-1.94508 0.0156,-2.04004 0.38161,-2.30108 0.16971,-0.12106 0.27008,-0.13539 1.07067,-0.15287 l 0.8834,-0.0193 v 0.96258 0.96258 h 0.3294 0.3294 v -0.96273 -0.96268 l 0.86428,0.0194 c 0.93984,0.0211 1.03448,0.0521 1.31807,0.43163 0.11717,0.15682 0.12438,0.25568 0.14103,1.9335 0.0167,1.6834 0.0116,1.78018 -0.10568,2.01707 -0.2473,0.49936 -0.18154,0.48617 -2.52005,0.50555 l -2.06915,0.0171 z m -8.90652,-5.55558 c -0.10736,-0.0655 -0.24875,-0.20685 -0.31421,-0.31421 -0.11188,-0.18351 -0.11901,-0.30455 -0.11901,-2.02189 0,-1.71733 0.007,-1.83837 0.11901,-2.02188 0.22987,-0.37702 0.40649,-0.4332 1.36286,-0.43345 l 0.85345,-1.7e-4 v 0.95826 0.95827 h 0.32941 0.3294 v -0.95827 -0.95826 h 0.82963 c 0.76154,0 0.84605,0.0111 1.02989,0.13496 0.11014,0.0742 0.25562,0.22919 0.32329,0.34437 0.11658,0.19847 0.12302,0.30181 0.12302,1.97622 0,1.67441 -0.006,1.77775 -0.12302,1.97622 -0.0677,0.11518 -0.21315,0.27015 -0.32329,0.34438 -0.19792,0.13338 -0.22383,0.13495 -2.21275,0.13473 -1.90251,-1.7e-4 -2.02315,-0.007 -2.20768,-0.11923 z m 6.05789,0.005 c -0.10249,-0.0625 -0.25072,-0.20389 -0.3294,-0.31421 l -0.14305,-0.20057 v -1.83735 c 0,-1.77038 0.005,-1.84343 0.12529,-2.00637 0.0689,-0.093 0.21438,-0.22973 0.32328,-0.30385 0.1818,-0.12373 0.26587,-0.13475 1.02763,-0.13475 h 0.82962 v 0.95826 0.95826 h 0.3294 0.32941 v -0.95826 -0.95826 l 0.82351,9e-5 c 0.93431,10e-5 1.14212,0.0625 1.37631,0.41303 0.13397,0.20054 0.13595,0.23031 0.13595,2.04243 0,2.62936 0.1888,2.45543 -2.66518,2.45524 -1.83522,-1.2e-4 -1.98973,-0.008 -2.16277,-0.11377 z"
       id="path16" />
  </g>
</svg>
