<?xml version="1.0" encoding="UTF-8" standalone="no"?>
<!-- Created with Inkscape (http://www.inkscape.org/) -->

<svg
   width="103.43977mm"
   height="11.118839mm"
   viewBox="0 0 103.43977 11.118839"
   version="1.1"
   id="svg1"
   inkscape:version="1.4 (86a8ad7, 2024-10-11)"
   sodipodi:docname="Logo 96px no margin.svg"
   xmlns:inkscape="http://www.inkscape.org/namespaces/inkscape"
   xmlns:sodipodi="http://sodipodi.sourceforge.net/DTD/sodipodi-0.dtd"
   xmlns="http://www.w3.org/2000/svg"
   xmlns:svg="http://www.w3.org/2000/svg">
  <sodipodi:namedview
     id="namedview1"
     pagecolor="#ffffff"
     bordercolor="#000000"
     borderopacity="0.25"
     inkscape:showpageshadow="2"
     inkscape:pageopacity="0.0"
     inkscape:pagecheckerboard="0"
     inkscape:deskcolor="#d1d1d1"
     inkscape:document-units="mm"
     inkscape:zoom="1.2222503"
     inkscape:cx="207.81341"
     inkscape:cy="106.36119"
     inkscape:window-width="1500"
     inkscape:window-height="930"
     inkscape:window-x="-6"
     inkscape:window-y="-6"
     inkscape:window-maximized="1"
     inkscape:current-layer="layer1" />
  <defs
     id="defs1">
    <inkscape:path-effect
       effect="fillet_chamfer"
       id="path-effect1-6-4"
       is_visible="true"
       lpeversion="1"
       nodesatellites_param="F,0,0,1,0,0,0,1 @ F,0,0,1,0,0,0,1 @ F,0,0,1,0,0,0,1 @ F,0,0,1,0,0,0,1 @ F,0,0,1,0,0,0,1 @ F,0,0,1,0,0,0,1 @ F,0,0,1,0,0,0,1 @ F,0,0,1,0,0,0,1 @ F,0,0,1,0,0,0,1 @ F,0,0,1,0,0,0,1 @ F,0,0,1,0,0,0,1 @ F,0,0,1,0,0,0,1 @ F,0,0,1,0,0,0,1 @ F,0,0,1,0,0,0,1 @ F,0,0,1,0,0,0,1 @ F,0,1,1,0,0.41599999,0,1 @ F,0,1,1,0,0.41599999,0,1 @ F,0,0,1,0,0,0,1 @ F,0,0,1,0,0,0,1 @ F,0,0,1,0,0,0,1 @ F,0,0,1,0,0,0,1 @ F,0,0,1,0,0,0,1 @ F,0,0,1,0,0,0,1"
       radius="0.416"
       unit="mm"
       method="auto"
       mode="F"
       chamfer_steps="1"
       flexible="false"
       use_knot_distance="true"
       apply_no_radius="true"
       apply_with_radius="true"
       only_selected="true"
       hide_knots="false" />
    <inkscape:path-effect
       effect="fillet_chamfer"
       id="path-effect2-0-9"
       is_visible="true"
       lpeversion="1"
       nodesatellites_param="F,0,0,1,0,0,0,1 @ F,0,0,1,0,0,0,1 @ F,0,0,1,0,0,0,1 @ F,0,0,1,0,0,0,1 @ F,0,0,1,0,0,0,1 @ F,0,0,1,0,0,0,1 @ F,0,0,1,0,0,0,1 @ F,0,0,1,0,0,0,1 @ F,0,0,1,0,0,0,1 @ F,0,0,1,0,0,0,1 @ F,0,0,1,0,0,0,1 @ F,0,0,1,0,0,0,1 @ F,0,0,1,0,0,0,1 @ F,0,0,1,0,0,0,1 @ F,0,0,1,0,0,0,1 @ F,0,1,1,0,0.41599999,0,1 @ F,0,1,1,0,0.41599999,0,1 @ F,0,0,1,0,0,0,1 @ F,0,0,1,0,0,0,1 @ F,0,0,1,0,0,0,1 @ F,0,0,1,0,0,0,1 @ F,0,0,1,0,0,0,1 @ F,0,0,1,0,0,0,1"
       radius="0.416"
       unit="mm"
       method="auto"
       mode="F"
       chamfer_steps="1"
       flexible="false"
       use_knot_distance="true"
       apply_no_radius="true"
       apply_with_radius="true"
       only_selected="true"
       hide_knots="false" />
  </defs>
  <g
     inkscape:label="Capa 1"
     inkscape:groupmode="layer"
     id="layer1"
     transform="translate(7.1594872,-138.03087)">
    <g
       id="g1">
      <path
         id="text2256-4-4-9-8-7-2-5-1-5-2-7"
         style="font-style:normal;font-variant:normal;font-weight:600;font-stretch:normal;font-size:20px;line-height:1.25;font-family:Inter;-inkscape-font-specification:'Inter Semi-Bold';fill:#5a73c4;fill-opacity:1;stroke:none;stroke-width:0.331996"
         d="m 182.02193,86.783332 c -0.57943,0 -1.09715,0.140182 -1.55288,0.42013 -0.45573,0.279948 -0.81342,0.702767 -1.07384,1.269173 -0.2539,0.559896 -0.36814,1.266386 -0.3421,2.11925 3.1e-4,-1.07e-4 7.3e-4,1.08e-4 0.001,0 0.31738,-0.112339 0.65934,-0.168982 1.02629,-0.168982 0.3444,0 0.67261,0.05434 0.98444,0.162781 -0.0121,-0.595606 0.0954,-1.023124 0.32246,-1.282609 0.23437,-0.260416 0.52694,-0.390674 0.8785,-0.390674 0.24739,0 0.46263,0.05851 0.64492,0.1757 0.1888,0.117188 0.4427,0.312573 0.76171,0.586011 0.50781,0.449219 0.9632,0.774345 1.36684,0.976168 0.41016,0.195312 0.85613,0.293005 1.3379,0.293005 0.56641,0 1.07421,-0.139665 1.52343,-0.419612 0.45573,-0.279948 0.81393,-0.699976 1.07435,-1.259872 0.22195,-0.470963 0.34254,-1.038777 0.36191,-1.703317 0.007,-0.229616 -0.18694,-0.415933 -0.41669,-0.415933 h -1.17977 c -0.22975,0 -0.40729,0.187054 -0.4305,0.415481 -0.0369,0.362782 -0.13926,0.647561 -0.30744,0.854209 -0.22786,0.273437 -0.52094,0.41031 -0.87902,0.41031 -0.2539,0 -0.47854,-0.06182 -0.67386,-0.185518 -0.19531,-0.130208 -0.44259,-0.325594 -0.74207,-0.586011 -0.52083,-0.455729 -0.98335,-0.781372 -1.387,-0.976684 -0.40364,-0.195313 -0.83639,-0.293006 -1.29862,-0.293006 z"
         transform="matrix(0.79694676,0,0,0.79694676,-146.75024,68.869175)" />
      <path
         id="text2256-4-4-9-8-7-2-5-1-3-2-4-8"
         style="font-style:normal;font-variant:normal;font-weight:600;font-stretch:normal;font-size:20px;line-height:1.25;font-family:Inter;-inkscape-font-specification:'Inter Semi-Bold';fill:#5a73c4;fill-opacity:1;stroke:none;stroke-width:0.331996"
         d="m 182.47205,99.765146 c 0.57943,0 1.09715,-0.140182 1.55288,-0.42013 0.45573,-0.279948 0.81342,-0.702767 1.07384,-1.269173 0.2539,-0.559896 0.36814,-1.266386 0.3421,-2.11925 -3.1e-4,1.07e-4 -7.3e-4,-1.08e-4 -10e-4,0 -0.31738,0.112339 -0.65934,0.168982 -1.02629,0.168982 -0.3444,0 -0.67261,-0.05434 -0.98444,-0.162781 0.0121,0.595606 -0.0954,1.023124 -0.32246,1.282609 -0.23437,0.260416 -0.52694,0.390674 -0.8785,0.390674 -0.24739,0 -0.46263,-0.05851 -0.64492,-0.1757 -0.1888,-0.117188 -0.4427,-0.312573 -0.76171,-0.586011 -0.50781,-0.449219 -0.9632,-0.774345 -1.36684,-0.976168 -0.41016,-0.195312 -0.85613,-0.293005 -1.3379,-0.293005 -0.56641,0 -1.07421,0.139665 -1.52343,0.419612 -0.45573,0.279948 -0.81393,0.699976 -1.07435,1.259872 -0.22195,0.470963 -0.34254,1.038777 -0.36191,1.703317 -0.007,0.229616 0.18694,0.415933 0.41669,0.415933 h 1.17977 c 0.22975,0 0.40729,-0.187054 0.4305,-0.415481 0.0369,-0.362782 0.13926,-0.647561 0.30744,-0.854209 0.22786,-0.273437 0.52094,-0.41031 0.87902,-0.41031 0.2539,0 0.47854,0.06182 0.67386,0.185518 0.19531,0.130208 0.44259,0.325594 0.74207,0.586011 0.52083,0.455729 0.98335,0.781372 1.387,0.976684 0.40364,0.195313 0.83639,0.293006 1.29862,0.293006 z"
         transform="matrix(0.79694676,0,0,0.79694676,-146.75024,68.869175)" />
      <path
         id="text2256-4-4-9-8-7-2-5-1-4-8-8-8"
         style="font-style:normal;font-variant:normal;font-weight:600;font-stretch:normal;font-size:20px;line-height:1.25;font-family:Inter;-inkscape-font-specification:'Inter Semi-Bold';fill:#5a73c4;fill-opacity:1;stroke:none;stroke-width:0.264583"
         d="m -3.2349297,141.54232 c -0.056424,7e-5 -0.112234,0.002 -0.1671994,0.006 -0.056185,0.003 -0.11174,0.009 -0.1663866,0.0156 -0.00717,8e-4 -0.013389,0.002 -0.020163,0.003 -0.3132718,0.0434 -0.6015275,0.14627 -0.8644323,0.3101 -0.3631925,0.22311 -0.6486668,0.55785 -0.8562077,1.00405 -0.1802375,0.38246 -0.2756718,0.84608 -0.2882795,1.38871 -4.463e-4,0.0192 -0.00159,0.0378 -0.00239,0.0572 0,4.2e-4 8e-6,8e-4 0,0.002 -7.969e-4,0.0791 -6.37e-5,0.1594 0.00239,0.24175 h 0.024705 c 0.2462167,-0.084 0.5107154,-0.12684 0.794014,-0.12684 0.2710257,0 0.529356,0.0426 0.7750706,0.12684 h 0.00948 c -0.00159,-0.0583 -7.97e-4,-0.1144 7.969e-4,-0.16885 0.00159,-0.0514 0.00478,-0.10047 0.00909,-0.14827 7.17e-5,-7.1e-4 3.427e-4,-0.002 4.144e-4,-0.002 0.027813,-0.30991 0.1097396,-0.54361 0.2466869,-0.70011 0.034508,-0.0384 0.071008,-0.0721 0.1087195,-0.10337 0.1631669,-0.14325 0.3600526,-0.21621 0.5913982,-0.21621 0.2023448,0 0.3813709,0.0493 0.5370306,0.14784 0.1556517,0.10377 0.3527206,0.25949 0.5913903,0.46702 0.4150737,0.36319 0.7836776,0.62272 1.10536512,0.77837 0.24125969,0.11674 0.4956451,0.18991 0.76312434,0.2191 0.0239084,0.002 0.04829497,0.004 0.07244246,0.006 0.02080031,0.002 0.04128184,0.004 0.06216184,0.005 0.0465417,0.002 0.09342607,0.004 0.14085238,0.004 0.0564238,-8e-5 0.11223401,-0.002 0.16719943,-0.006 0.0561847,-0.003 0.11132549,-0.009 0.16597213,-0.0156 0.0121136,-0.002 0.0238287,-0.004 0.0358626,-0.006 0.30731861,-0.0447 0.5906013,-0.14649 0.8492026,-0.30764 0.3631925,-0.22311 0.6486588,-0.55785 0.8561997,-1.00406 0.1802375,-0.38245 0.2756719,-0.84607 0.2882796,-1.3887 3.905e-4,-0.0178 0.00159,-0.0348 0.00239,-0.0527 2.39e-5,-0.002 -2.39e-5,-0.004 0,-0.006 7.97e-4,-0.0787 -6.38e-5,-0.15956 -0.00239,-0.24175 h -0.024705 c -0.2462406,0.0841 -0.5106755,0.12685 -0.794014,0.12685 -0.2710177,0 -0.5293559,-0.0426 -0.7750706,-0.12685 h -0.009484 c 4.0644e-4,0.0209 -4.4629e-4,0.0402 -4.0644e-4,0.0606 1.1954e-4,0.0348 6.5349e-4,0.0701 -4.1441e-4,0.10337 -0.0118745,0.38847 -0.0971717,0.67369 -0.2561626,0.85538 -0.032356,0.036 -0.0670232,0.0675 -0.10212873,0.0972 -0.16447387,0.14724 -0.36343163,0.22239 -0.597989,0.22239 -0.20234478,0 -0.3813709,-0.0493 -0.53703054,-0.14785 -0.15565168,-0.10377 -0.35272067,-0.25948 -0.59139028,-0.46702 -0.4150738,-0.36319 -0.7836776,-0.62271 -1.1053652,-0.77836 -0.2412597,-0.11675 -0.4956451,-0.18991 -0.7631243,-0.2191 -0.023988,-0.002 -0.048295,-0.004 -0.072442,-0.006 -0.020721,-0.002 -0.041282,-0.004 -0.062162,-0.005 -7.97e-4,-5e-5 -0.00159,4e-5 -0.00239,0 -0.045745,-0.002 -0.0918,-0.004 -0.1383818,-0.004 z" />
      <path
         d="m 10.157916,140.59706 v -1.15685 h 6.016643 v 1.15685 h -2.333912 v 6.37027 h -1.338715 v -6.37027 z m 8.092916,3.35437 v 3.0159 h -1.273043 v -7.52712 h 1.273043 v 3.55139 h -0.267743 q 0.257639,-0.71735 0.722401,-1.09118 0.469814,-0.37383 1.161904,-0.37383 0.560745,0 0.990145,0.24248 0.429399,0.23743 0.671884,0.70725 0.242484,0.46981 0.242484,1.15685 v 3.33416 h -1.278095 v -3.13209 q 0,-0.586 -0.282898,-0.88911 -0.277847,-0.3031 -0.793126,-0.3031 -0.333416,0 -0.596108,0.13639 -0.262691,0.1364 -0.419295,0.42435 -0.151553,0.28795 -0.151553,0.74766 z m 6.279335,3.10178 q -0.530435,0 -0.949731,-0.17681 -0.414244,-0.17681 -0.656728,-0.53549 -0.237433,-0.35867 -0.237433,-0.88911 0,-0.45465 0.17176,-0.74766 0.17176,-0.29805 0.464761,-0.47486 0.293002,-0.17681 0.671884,-0.26774 0.378882,-0.096 0.788074,-0.1364 0.495073,-0.0556 0.783023,-0.096 0.293002,-0.0455 0.419296,-0.12629 0.126294,-0.0859 0.126294,-0.26774 v -0.0404 q 0,-0.23238 -0.116191,-0.40414 -0.11619,-0.17681 -0.338468,-0.27279 -0.217225,-0.10104 -0.520331,-0.10104 -0.308157,0 -0.545589,0.10104 -0.232381,0.096 -0.368779,0.27279 -0.136397,0.17176 -0.156604,0.39909 h -1.227577 q 0.03536,-0.53043 0.31826,-0.92447 0.287951,-0.39909 0.798178,-0.61631 0.510228,-0.22228 1.20737,-0.22228 0.520331,0 0.929524,0.12629 0.414244,0.12124 0.697142,0.35868 0.28795,0.23743 0.434451,0.57085 0.151553,0.33341 0.151553,0.74766 v 3.63726 H 26.12147 v -0.75271 h -0.02021 q -0.126294,0.23743 -0.328364,0.4294 -0.20207,0.18691 -0.505176,0.29805 -0.303105,0.11114 -0.737556,0.11114 z m 0.313209,-0.94468 q 0.419295,0 0.702194,-0.15155 0.282898,-0.15155 0.424347,-0.40414 0.146501,-0.25259 0.146501,-0.56075 v -0.5759 q -0.06062,0.0354 -0.176811,0.0707 -0.11619,0.0354 -0.277847,0.0707 -0.156604,0.0303 -0.343519,0.0606 -0.181864,0.0303 -0.378882,0.0606 -0.272795,0.0354 -0.505176,0.1263 -0.227329,0.0859 -0.368778,0.24248 -0.136398,0.15156 -0.136398,0.39404 0,0.20712 0.111139,0.35867 0.11619,0.15156 0.318261,0.23239 0.207122,0.0758 0.484969,0.0758 z m 4.930515,-6.66832 v 7.52712 h -1.273043 v -7.52712 z m 2.758259,7.613 q -0.530434,0 -0.94973,-0.17681 -0.414244,-0.17681 -0.656729,-0.53549 -0.237432,-0.35867 -0.237432,-0.88911 0,-0.45465 0.171759,-0.74766 0.17176,-0.29805 0.464762,-0.47486 0.293002,-0.17681 0.671884,-0.26774 0.378882,-0.096 0.788074,-0.1364 0.495072,-0.0556 0.783023,-0.096 0.293001,-0.0455 0.419295,-0.12629 0.126294,-0.0859 0.126294,-0.26774 v -0.0404 q 0,-0.23238 -0.11619,-0.40414 -0.116191,-0.17681 -0.338468,-0.27279 -0.217225,-0.10104 -0.520331,-0.10104 -0.308157,0 -0.54559,0.10104 -0.232381,0.096 -0.368778,0.27279 -0.136397,0.17176 -0.156605,0.39909 h -1.227577 q 0.03536,-0.53043 0.318261,-0.92447 0.28795,-0.39909 0.798178,-0.61631 0.510227,-0.22228 1.20737,-0.22228 0.520331,0 0.929523,0.12629 0.414244,0.12124 0.697143,0.35868 0.28795,0.23743 0.434451,0.57085 0.151553,0.33341 0.151553,0.74766 v 3.63726 h -1.252836 v -0.75271 h -0.02021 q -0.126294,0.23743 -0.328364,0.4294 -0.202071,0.18691 -0.505176,0.29805 -0.303106,0.11114 -0.737557,0.11114 z m 0.313209,-0.94468 q 0.419296,0 0.702194,-0.15155 0.282899,-0.15155 0.424348,-0.40414 0.146501,-0.25259 0.146501,-0.56075 v -0.5759 q -0.06062,0.0354 -0.176811,0.0707 -0.116191,0.0354 -0.277847,0.0707 -0.156605,0.0303 -0.34352,0.0606 -0.181863,0.0303 -0.378881,0.0606 -0.272795,0.0354 -0.505176,0.1263 -0.227329,0.0859 -0.368779,0.24248 -0.136397,0.15156 -0.136397,0.39404 0,0.20712 0.111139,0.35867 0.11619,0.15156 0.31826,0.23239 0.207122,0.0758 0.484969,0.0758 z m 5.748902,0.98509 q -0.646625,0 -1.161904,-0.20207 -0.515279,-0.20712 -0.828488,-0.60115 -0.313209,-0.39909 -0.353624,-0.96994 h 1.257888 q 0.04041,0.38898 0.313209,0.60621 0.277847,0.21217 0.752712,0.21217 0.45971,0 0.722401,-0.18186 0.267744,-0.18186 0.267744,-0.46476 0,-0.24249 -0.197019,-0.38899 -0.191967,-0.1465 -0.530435,-0.21722 l -0.909316,-0.18692 q -0.767867,-0.16165 -1.161904,-0.55064 -0.394037,-0.38899 -0.394037,-0.99014 0,-0.49002 0.262691,-0.8588 0.267743,-0.36878 0.74766,-0.5759 0.484969,-0.20713 1.136646,-0.20713 0.646625,0 1.136645,0.21723 0.495072,0.21723 0.772919,0.61631 0.282899,0.39404 0.298054,0.94468 h -1.197267 q -0.0051,-0.35867 -0.277846,-0.59105 -0.267744,-0.23238 -0.702195,-0.23238 -0.419296,0 -0.66178,0.18691 -0.242484,0.18692 -0.242484,0.45971 0,0.23743 0.186915,0.38899 0.186915,0.1465 0.520331,0.22227 l 0.959834,0.19702 q 0.793126,0.16671 1.166956,0.52539 0.378881,0.35867 0.378881,0.94467 0,0.52034 -0.293001,0.90427 -0.287951,0.37888 -0.798178,0.586 -0.510228,0.20712 -1.172008,0.20712 z m 5.223517,0 q -0.646625,0 -1.161905,-0.20207 -0.515279,-0.20712 -0.828488,-0.60115 -0.313209,-0.39909 -0.353623,-0.96994 h 1.257888 q 0.04041,0.38898 0.313209,0.60621 0.277846,0.21217 0.752711,0.21217 0.45971,0 0.722402,-0.18186 0.267743,-0.18186 0.267743,-0.46476 0,-0.24249 -0.197019,-0.38899 -0.191966,-0.1465 -0.530434,-0.21722 l -0.909316,-0.18692 q -0.767868,-0.16165 -1.161905,-0.55064 -0.394037,-0.38899 -0.394037,-0.99014 0,-0.49002 0.262692,-0.8588 0.267743,-0.36878 0.74766,-0.5759 0.484968,-0.20713 1.136645,-0.20713 0.646625,0 1.136646,0.21723 0.495072,0.21723 0.772919,0.61631 0.282898,0.39404 0.298053,0.94468 h -1.197266 q -0.0051,-0.35867 -0.277847,-0.59105 -0.267743,-0.23238 -0.702194,-0.23238 -0.419296,0 -0.661781,0.18691 -0.242484,0.18692 -0.242484,0.45971 0,0.23743 0.186915,0.38899 0.186915,0.1465 0.520331,0.22227 l 0.959834,0.19702 q 0.793126,0.16671 1.166956,0.52539 0.378882,0.35867 0.378882,0.94467 0,0.52034 -0.293002,0.90427 -0.28795,0.37888 -0.798178,0.586 -0.510227,0.20712 -1.172007,0.20712 z m 4.758754,-0.0404 q -0.530434,0 -0.94973,-0.17681 -0.414244,-0.17681 -0.656729,-0.53549 -0.237432,-0.35867 -0.237432,-0.88911 0,-0.45465 0.171759,-0.74766 0.17176,-0.29805 0.464762,-0.47486 0.293002,-0.17681 0.671884,-0.26774 0.378882,-0.096 0.788074,-0.1364 0.495072,-0.0556 0.783023,-0.096 0.293002,-0.0455 0.419295,-0.12629 0.126294,-0.0859 0.126294,-0.26774 v -0.0404 q 0,-0.23238 -0.11619,-0.40414 -0.11619,-0.17681 -0.338468,-0.27279 -0.217225,-0.10104 -0.520331,-0.10104 -0.308157,0 -0.54559,0.10104 -0.23238,0.096 -0.368778,0.27279 -0.136397,0.17176 -0.156604,0.39909 h -1.227578 q 0.03536,-0.53043 0.318261,-0.92447 0.28795,-0.39909 0.798178,-0.61631 0.510227,-0.22228 1.20737,-0.22228 0.520331,0 0.929523,0.12629 0.414245,0.12124 0.697143,0.35868 0.28795,0.23743 0.434451,0.57085 0.151553,0.33341 0.151553,0.74766 v 3.63726 h -1.252836 v -0.75271 h -0.02021 q -0.126294,0.23743 -0.328364,0.4294 -0.202071,0.18691 -0.505176,0.29805 -0.303106,0.11114 -0.737557,0.11114 z m 0.313209,-0.94468 q 0.419296,0 0.702195,-0.15155 0.282898,-0.15155 0.424347,-0.40414 0.146501,-0.25259 0.146501,-0.56075 v -0.5759 q -0.06062,0.0354 -0.176811,0.0707 -0.116191,0.0354 -0.277847,0.0707 -0.156604,0.0303 -0.34352,0.0606 -0.181863,0.0303 -0.378881,0.0606 -0.272795,0.0354 -0.505176,0.1263 -0.227329,0.0859 -0.368778,0.24248 -0.136398,0.15156 -0.136398,0.39404 0,0.20712 0.111139,0.35867 0.11619,0.15156 0.318261,0.23239 0.207122,0.0758 0.484968,0.0758 z m 6.05706,0.8588 v -7.52712 h 1.333664 v 6.37027 h 3.490765 v 1.15685 z m 8.012087,0.12124 q -0.783023,0 -1.37913,-0.34857 -0.591056,-0.35362 -0.924472,-0.98004 -0.328364,-0.62642 -0.328364,-1.45491 0,-0.82848 0.328364,-1.4549 0.333416,-0.63147 0.924472,-0.98509 0.596107,-0.35363 1.37913,-0.35363 0.788074,0 1.37913,0.35363 0.591055,0.35362 0.919419,0.98509 0.333417,0.62642 0.333417,1.4549 0,0.82849 -0.333417,1.45491 -0.328364,0.62642 -0.919419,0.98004 -0.591056,0.34857 -1.37913,0.34857 z m 0,-1.06592 q 0.409192,0 0.707246,-0.20712 0.303105,-0.20712 0.464762,-0.59106 0.166708,-0.38898 0.166708,-0.91942 0,-0.53548 -0.166708,-0.91942 -0.161657,-0.38898 -0.464762,-0.5961 -0.298054,-0.21218 -0.707246,-0.21218 -0.409193,0 -0.712298,0.21218 -0.303106,0.20712 -0.469814,0.5961 -0.161656,0.38394 -0.161656,0.91942 0,0.53549 0.161656,0.91942 0.166708,0.38394 0.469814,0.59106 0.303105,0.20712 0.712298,0.20712 z m 5.930763,3.12704 q -0.702194,0 -1.217474,-0.20712 -0.510227,-0.20207 -0.813333,-0.58095 -0.303105,-0.37889 -0.37383,-0.89922 h 1.247785 q 0.06062,0.22733 0.222277,0.38394 0.161656,0.1566 0.399089,0.23743 0.237432,0.0808 0.535486,0.0808 0.596107,0 0.924472,-0.32331 0.333416,-0.32332 0.333416,-0.93458 v -0.81333 h -0.0051 q -0.17176,0.31321 -0.414244,0.51528 -0.242485,0.20207 -0.54559,0.29805 -0.298054,0.096 -0.651677,0.096 -0.692091,0 -1.217473,-0.34857 -0.520331,-0.34857 -0.808282,-0.96488 -0.282898,-0.61632 -0.282898,-1.4145 0,-0.81333 0.28795,-1.42964 0.28795,-0.62137 0.808281,-0.96994 0.520331,-0.34857 1.202319,-0.34857 0.348571,0 0.651676,0.096 0.303106,0.096 0.550642,0.29806 0.252588,0.19701 0.424348,0.50517 h 0.0051 v -0.79313 h 1.257888 v 5.19826 q 0,0.82344 -0.328364,1.33367 -0.328364,0.51023 -0.899213,0.74766 -0.570849,0.23743 -1.29325,0.23743 z m -0.06062,-3.19776 q 0.419296,0 0.727453,-0.20712 0.308157,-0.21218 0.479917,-0.59106 0.17176,-0.38393 0.17176,-0.89416 0,-0.51528 -0.17176,-0.89416 -0.17176,-0.37888 -0.479917,-0.58601 -0.308157,-0.21217 -0.727453,-0.21217 -0.388985,0 -0.687039,0.19702 -0.298054,0.19702 -0.464762,0.5759 -0.166708,0.37383 -0.166708,0.91942 0,0.54054 0.166708,0.91942 0.166708,0.37888 0.464762,0.5759 0.298054,0.19702 0.687039,0.19702 z m 3.713041,1.0154 v -5.33466 h 1.273043 v 5.33466 z m 0.636522,-6.12778 q -0.328364,0 -0.54559,-0.20712 -0.217226,-0.21218 -0.217226,-0.52033 0,-0.30816 0.217226,-0.51528 0.217226,-0.20713 0.540538,-0.20713 0.328364,0 0.54559,0.20713 0.217225,0.20712 0.217225,0.52033 0,0.30815 -0.217225,0.51528 -0.217226,0.20712 -0.540538,0.20712 z m 3.859542,6.25407 q -0.646625,0 -1.161904,-0.20207 -0.515279,-0.20712 -0.828488,-0.60115 -0.313209,-0.39909 -0.353623,-0.96994 h 1.257888 q 0.04041,0.38898 0.313208,0.60621 0.277847,0.21217 0.752712,0.21217 0.45971,0 0.722402,-0.18186 0.267743,-0.18186 0.267743,-0.46476 0,-0.24249 -0.197019,-0.38899 -0.191966,-0.1465 -0.530434,-0.21722 l -0.909317,-0.18692 q -0.767867,-0.16165 -1.161904,-0.55064 -0.394037,-0.38899 -0.394037,-0.99014 0,-0.49002 0.262691,-0.8588 0.267744,-0.36878 0.747661,-0.5759 0.484968,-0.20713 1.136645,-0.20713 0.646625,0 1.136646,0.21723 0.495072,0.21723 0.772918,0.61631 0.282899,0.39404 0.298054,0.94468 h -1.197266 q -0.0051,-0.35867 -0.277847,-0.59105 -0.267743,-0.23238 -0.702194,-0.23238 -0.419296,0 -0.661781,0.18691 -0.242484,0.18692 -0.242484,0.45971 0,0.23743 0.186915,0.38899 0.186915,0.1465 0.520331,0.22227 l 0.959834,0.19702 q 0.793126,0.16671 1.166956,0.52539 0.378882,0.35867 0.378882,0.94467 0,0.52034 -0.293002,0.90427 -0.28795,0.37888 -0.798178,0.586 -0.510227,0.20712 -1.172008,0.20712 z m 6.046956,-5.46095 v 1.02551 h -3.293746 v -1.02551 z m -2.364222,-1.4549 h 1.278094 v 5.25888 q 0,0.2829 0.116191,0.39404 0.11619,0.11113 0.424347,0.11113 0.126294,0 0.287951,0 0.161656,0 0.257639,0 v 1.02551 q -0.131345,0 -0.348571,0 -0.212174,0 -0.419296,0 -0.818385,0 -1.20737,-0.32836 -0.388985,-0.33342 -0.388985,-1.01541 z m 3.167451,6.78956 v -5.33466 h 1.273043 v 5.33466 z m 0.636521,-6.12778 q -0.328364,0 -0.545589,-0.20712 -0.217226,-0.21218 -0.217226,-0.52033 0,-0.30816 0.217226,-0.51528 0.217225,-0.20713 0.540538,-0.20713 0.328364,0 0.54559,0.20713 0.217225,0.20712 0.217225,0.52033 0,0.30815 -0.217225,0.51528 -0.217226,0.20712 -0.540539,0.20712 z m 4.127282,6.24902 q -0.77797,0 -1.369026,-0.35362 -0.586004,-0.35362 -0.914368,-0.98004 -0.323313,-0.62642 -0.323313,-1.44986 0,-0.82343 0.323313,-1.44985 0.328364,-0.63147 0.914368,-0.98509 0.591056,-0.35868 1.369026,-0.35868 0.505176,0 0.929524,0.15156 0.424347,0.1465 0.742608,0.41929 0.318261,0.2728 0.510228,0.64663 0.197018,0.36877 0.237432,0.81333 h -1.247784 q -0.03536,-0.21723 -0.126294,-0.39404 -0.09093,-0.17681 -0.242484,-0.3031 -0.146501,-0.13135 -0.34352,-0.20207 -0.197018,-0.0707 -0.444554,-0.0707 -0.414244,0 -0.71735,0.21218 -0.298054,0.21217 -0.45971,0.60115 -0.156604,0.38899 -0.156604,0.91942 0,0.52539 0.156604,0.91437 0.161656,0.38394 0.45971,0.59611 0.298054,0.21217 0.71735,0.21217 0.247536,0 0.439503,-0.0657 0.197018,-0.0707 0.338467,-0.19702 0.14145,-0.13134 0.232381,-0.31321 0.09093,-0.18186 0.136398,-0.39909 h 1.257887 q -0.03536,0.43951 -0.227329,0.81334 -0.186915,0.36878 -0.510227,0.64662 -0.323313,0.2728 -0.752712,0.42435 -0.424348,0.15155 -0.929524,0.15155 z m 5.364971,0.005 q -0.646625,0 -1.161905,-0.20207 -0.515279,-0.20712 -0.828488,-0.60115 -0.313209,-0.39909 -0.353623,-0.96994 h 1.257888 q 0.04041,0.38898 0.313209,0.60621 0.277846,0.21217 0.752712,0.21217 0.459709,0 0.722401,-0.18186 0.267743,-0.18186 0.267743,-0.46476 0,-0.24249 -0.197019,-0.38899 -0.191966,-0.1465 -0.530434,-0.21722 l -0.909316,-0.18692 q -0.767868,-0.16165 -1.161905,-0.55064 -0.394037,-0.38899 -0.394037,-0.99014 0,-0.49002 0.262692,-0.8588 0.267743,-0.36878 0.74766,-0.5759 0.484968,-0.20713 1.136645,-0.20713 0.646625,0 1.136646,0.21723 0.495072,0.21723 0.772919,0.61631 0.282898,0.39404 0.298053,0.94468 H 94.95167 q -0.0051,-0.35867 -0.277847,-0.59105 -0.267743,-0.23238 -0.702194,-0.23238 -0.419296,0 -0.661781,0.18691 -0.242484,0.18692 -0.242484,0.45971 0,0.23743 0.186915,0.38899 0.186915,0.1465 0.520331,0.22227 l 0.959834,0.19702 q 0.793126,0.16671 1.166956,0.52539 0.378882,0.35867 0.378882,0.94467 0,0.52034 -0.293002,0.90427 -0.28795,0.37888 -0.798178,0.586 -0.510227,0.20712 -1.172007,0.20712 z"
         id="text3-2"
         style="font-weight:600;font-size:10.346px;line-height:0;font-family:Inter;-inkscape-font-specification:'Inter Semi-Bold';letter-spacing:0px;fill:#1b1a1a;stroke-width:0.1;paint-order:stroke markers fill"
         aria-label="Thalassa Logistics" />
    </g>
  </g>
</svg>
